%TF.GenerationSoftware,KiCad,Pcbnew,9.0.1*%
%TF.CreationDate,2025-04-06T02:54:57+02:00*%
%TF.ProjectId,controller_mainboard,636f6e74-726f-46c6-9c65-725f6d61696e,rev?*%
%TF.SameCoordinates,Original*%
%TF.FileFunction,Soldermask,Top*%
%TF.FilePolarity,Negative*%
%FSLAX46Y46*%
G04 Gerber Fmt 4.6, Leading zero omitted, Abs format (unit mm)*
G04 Created by KiCad (PCBNEW 9.0.1) date 2025-04-06 02:54:57*
%MOMM*%
%LPD*%
G01*
G04 APERTURE LIST*
G04 Aperture macros list*
%AMRoundRect*
0 Rectangle with rounded corners*
0 $1 Rounding radius*
0 $2 $3 $4 $5 $6 $7 $8 $9 X,Y pos of 4 corners*
0 Add a 4 corners polygon primitive as box body*
4,1,4,$2,$3,$4,$5,$6,$7,$8,$9,$2,$3,0*
0 Add four circle primitives for the rounded corners*
1,1,$1+$1,$2,$3*
1,1,$1+$1,$4,$5*
1,1,$1+$1,$6,$7*
1,1,$1+$1,$8,$9*
0 Add four rect primitives between the rounded corners*
20,1,$1+$1,$2,$3,$4,$5,0*
20,1,$1+$1,$4,$5,$6,$7,0*
20,1,$1+$1,$6,$7,$8,$9,0*
20,1,$1+$1,$8,$9,$2,$3,0*%
%AMRotRect*
0 Rectangle, with rotation*
0 The origin of the aperture is its center*
0 $1 length*
0 $2 width*
0 $3 Rotation angle, in degrees counterclockwise*
0 Add horizontal line*
21,1,$1,$2,0,0,$3*%
%AMFreePoly0*
4,1,23,0.500000,-0.750000,0.000000,-0.750000,0.000000,-0.745722,-0.065263,-0.745722,-0.191342,-0.711940,-0.304381,-0.646677,-0.396677,-0.554381,-0.461940,-0.441342,-0.495722,-0.315263,-0.495722,-0.250000,-0.500000,-0.250000,-0.500000,0.250000,-0.495722,0.250000,-0.495722,0.315263,-0.461940,0.441342,-0.396677,0.554381,-0.304381,0.646677,-0.191342,0.711940,-0.065263,0.745722,0.000000,0.745722,
0.000000,0.750000,0.500000,0.750000,0.500000,-0.750000,0.500000,-0.750000,$1*%
%AMFreePoly1*
4,1,23,0.000000,0.745722,0.065263,0.745722,0.191342,0.711940,0.304381,0.646677,0.396677,0.554381,0.461940,0.441342,0.495722,0.315263,0.495722,0.250000,0.500000,0.250000,0.500000,-0.250000,0.495722,-0.250000,0.495722,-0.315263,0.461940,-0.441342,0.396677,-0.554381,0.304381,-0.646677,0.191342,-0.711940,0.065263,-0.745722,0.000000,-0.745722,0.000000,-0.750000,-0.500000,-0.750000,
-0.500000,0.750000,0.000000,0.750000,0.000000,0.745722,0.000000,0.745722,$1*%
G04 Aperture macros list end*
%ADD10RoundRect,0.150000X-0.150000X0.512500X-0.150000X-0.512500X0.150000X-0.512500X0.150000X0.512500X0*%
%ADD11RoundRect,0.225000X-0.335876X-0.017678X-0.017678X-0.335876X0.335876X0.017678X0.017678X0.335876X0*%
%ADD12R,1.700000X1.700000*%
%ADD13C,1.700000*%
%ADD14RoundRect,0.135000X0.185000X-0.135000X0.185000X0.135000X-0.185000X0.135000X-0.185000X-0.135000X0*%
%ADD15RoundRect,0.250000X-1.000000X-0.650000X1.000000X-0.650000X1.000000X0.650000X-1.000000X0.650000X0*%
%ADD16RoundRect,0.225000X0.250000X-0.225000X0.250000X0.225000X-0.250000X0.225000X-0.250000X-0.225000X0*%
%ADD17RoundRect,0.150000X-0.512500X-0.150000X0.512500X-0.150000X0.512500X0.150000X-0.512500X0.150000X0*%
%ADD18RoundRect,0.135000X0.135000X0.185000X-0.135000X0.185000X-0.135000X-0.185000X0.135000X-0.185000X0*%
%ADD19RoundRect,0.135000X-0.185000X0.135000X-0.185000X-0.135000X0.185000X-0.135000X0.185000X0.135000X0*%
%ADD20RoundRect,0.225000X0.225000X0.250000X-0.225000X0.250000X-0.225000X-0.250000X0.225000X-0.250000X0*%
%ADD21RoundRect,0.243750X-0.456250X0.243750X-0.456250X-0.243750X0.456250X-0.243750X0.456250X0.243750X0*%
%ADD22RoundRect,0.249999X1.850001X-0.450001X1.850001X0.450001X-1.850001X0.450001X-1.850001X-0.450001X0*%
%ADD23RoundRect,0.140000X0.170000X-0.140000X0.170000X0.140000X-0.170000X0.140000X-0.170000X-0.140000X0*%
%ADD24RoundRect,0.135000X-0.135000X-0.185000X0.135000X-0.185000X0.135000X0.185000X-0.135000X0.185000X0*%
%ADD25RoundRect,0.250000X-0.650000X1.000000X-0.650000X-1.000000X0.650000X-1.000000X0.650000X1.000000X0*%
%ADD26RoundRect,0.225000X-0.250000X0.225000X-0.250000X-0.225000X0.250000X-0.225000X0.250000X0.225000X0*%
%ADD27RoundRect,0.243750X0.456250X-0.243750X0.456250X0.243750X-0.456250X0.243750X-0.456250X-0.243750X0*%
%ADD28C,3.200000*%
%ADD29C,3.500000*%
%ADD30RoundRect,0.250000X1.000000X0.650000X-1.000000X0.650000X-1.000000X-0.650000X1.000000X-0.650000X0*%
%ADD31RoundRect,0.250000X1.000000X-1.950000X1.000000X1.950000X-1.000000X1.950000X-1.000000X-1.950000X0*%
%ADD32RoundRect,0.225000X-0.225000X-0.250000X0.225000X-0.250000X0.225000X0.250000X-0.225000X0.250000X0*%
%ADD33RoundRect,0.250001X-1.099999X-1.099999X1.099999X-1.099999X1.099999X1.099999X-1.099999X1.099999X0*%
%ADD34C,2.700000*%
%ADD35RoundRect,0.249999X-1.850001X0.450001X-1.850001X-0.450001X1.850001X-0.450001X1.850001X0.450001X0*%
%ADD36RoundRect,0.218750X-0.218750X-0.256250X0.218750X-0.256250X0.218750X0.256250X-0.218750X0.256250X0*%
%ADD37RoundRect,0.250000X0.650000X-1.000000X0.650000X1.000000X-0.650000X1.000000X-0.650000X-1.000000X0*%
%ADD38RoundRect,0.150000X-0.150000X0.825000X-0.150000X-0.825000X0.150000X-0.825000X0.150000X0.825000X0*%
%ADD39R,1.550000X0.600000*%
%ADD40R,2.600000X3.100000*%
%ADD41RoundRect,1.500000X-1.500000X-1.500000X1.500000X-1.500000X1.500000X1.500000X-1.500000X1.500000X0*%
%ADD42C,6.000000*%
%ADD43RoundRect,0.218750X0.218750X0.256250X-0.218750X0.256250X-0.218750X-0.256250X0.218750X-0.256250X0*%
%ADD44RoundRect,0.200000X0.275000X-0.200000X0.275000X0.200000X-0.275000X0.200000X-0.275000X-0.200000X0*%
%ADD45RoundRect,0.250000X0.625000X-0.350000X0.625000X0.350000X-0.625000X0.350000X-0.625000X-0.350000X0*%
%ADD46O,1.750000X1.200000*%
%ADD47RoundRect,0.218750X0.381250X-0.218750X0.381250X0.218750X-0.381250X0.218750X-0.381250X-0.218750X0*%
%ADD48RoundRect,0.250001X1.099999X1.099999X-1.099999X1.099999X-1.099999X-1.099999X1.099999X-1.099999X0*%
%ADD49RoundRect,0.150000X0.587500X0.150000X-0.587500X0.150000X-0.587500X-0.150000X0.587500X-0.150000X0*%
%ADD50RoundRect,0.243750X0.243750X0.456250X-0.243750X0.456250X-0.243750X-0.456250X0.243750X-0.456250X0*%
%ADD51RoundRect,0.200000X-0.275000X0.200000X-0.275000X-0.200000X0.275000X-0.200000X0.275000X0.200000X0*%
%ADD52FreePoly0,90.000000*%
%ADD53FreePoly1,90.000000*%
%ADD54RoundRect,0.250000X1.425000X-0.362500X1.425000X0.362500X-1.425000X0.362500X-1.425000X-0.362500X0*%
%ADD55RoundRect,0.250000X-1.950000X-1.000000X1.950000X-1.000000X1.950000X1.000000X-1.950000X1.000000X0*%
%ADD56R,1.900000X0.400000*%
%ADD57RoundRect,0.062500X0.220971X0.309359X-0.309359X-0.220971X-0.220971X-0.309359X0.309359X0.220971X0*%
%ADD58RoundRect,0.062500X-0.220971X0.309359X-0.309359X0.220971X0.220971X-0.309359X0.309359X-0.220971X0*%
%ADD59RotRect,3.100000X3.100000X225.000000*%
%ADD60RoundRect,0.200000X0.200000X0.275000X-0.200000X0.275000X-0.200000X-0.275000X0.200000X-0.275000X0*%
%ADD61RoundRect,0.250000X1.950000X1.000000X-1.950000X1.000000X-1.950000X-1.000000X1.950000X-1.000000X0*%
%ADD62RoundRect,1.500000X1.500000X1.500000X-1.500000X1.500000X-1.500000X-1.500000X1.500000X-1.500000X0*%
%ADD63RoundRect,0.075000X0.075000X-0.662500X0.075000X0.662500X-0.075000X0.662500X-0.075000X-0.662500X0*%
%ADD64RoundRect,0.075000X0.662500X-0.075000X0.662500X0.075000X-0.662500X0.075000X-0.662500X-0.075000X0*%
%ADD65RoundRect,0.150000X0.150000X-0.825000X0.150000X0.825000X-0.150000X0.825000X-0.150000X-0.825000X0*%
%ADD66RoundRect,0.225000X0.017678X-0.335876X0.335876X-0.017678X-0.017678X0.335876X-0.335876X0.017678X0*%
%ADD67RoundRect,0.250000X-1.000000X1.950000X-1.000000X-1.950000X1.000000X-1.950000X1.000000X1.950000X0*%
%ADD68RoundRect,2.000000X2.000000X2.000000X-2.000000X2.000000X-2.000000X-2.000000X2.000000X-2.000000X0*%
%ADD69C,8.000000*%
%ADD70RoundRect,0.200000X-0.200000X-0.275000X0.200000X-0.275000X0.200000X0.275000X-0.200000X0.275000X0*%
%ADD71RotRect,0.400000X1.900000X135.000000*%
%ADD72RoundRect,0.140000X-0.170000X0.140000X-0.170000X-0.140000X0.170000X-0.140000X0.170000X0.140000X0*%
%ADD73R,1.300000X1.550000*%
%ADD74RoundRect,0.150000X0.512500X0.150000X-0.512500X0.150000X-0.512500X-0.150000X0.512500X-0.150000X0*%
%ADD75C,0.650000*%
%ADD76RoundRect,0.150000X0.425000X-0.150000X0.425000X0.150000X-0.425000X0.150000X-0.425000X-0.150000X0*%
%ADD77RoundRect,0.075000X0.500000X-0.075000X0.500000X0.075000X-0.500000X0.075000X-0.500000X-0.075000X0*%
%ADD78O,2.100000X1.000000*%
%ADD79O,1.800000X1.000000*%
%ADD80RoundRect,0.140000X0.140000X0.170000X-0.140000X0.170000X-0.140000X-0.170000X0.140000X-0.170000X0*%
%ADD81RoundRect,0.250000X-0.925000X-1.500000X0.925000X-1.500000X0.925000X1.500000X-0.925000X1.500000X0*%
%ADD82RoundRect,0.140000X-0.219203X-0.021213X-0.021213X-0.219203X0.219203X0.021213X0.021213X0.219203X0*%
%ADD83RoundRect,0.250000X-1.425000X0.362500X-1.425000X-0.362500X1.425000X-0.362500X1.425000X0.362500X0*%
%ADD84RoundRect,0.200000X-0.335876X-0.053033X-0.053033X-0.335876X0.335876X0.053033X0.053033X0.335876X0*%
%ADD85RoundRect,0.140000X0.219203X0.021213X0.021213X0.219203X-0.219203X-0.021213X-0.021213X-0.219203X0*%
%ADD86RoundRect,0.218750X0.218750X0.381250X-0.218750X0.381250X-0.218750X-0.381250X0.218750X-0.381250X0*%
%ADD87R,1.905000X2.000000*%
%ADD88O,1.905000X2.000000*%
G04 APERTURE END LIST*
%TO.C,JP1*%
G36*
X230150000Y-143850000D02*
G01*
X231650000Y-143850000D01*
X231650000Y-143550000D01*
X230150000Y-143550000D01*
X230150000Y-143850000D01*
G37*
%TD*%
D10*
%TO.C,U12*%
X242950000Y-142862500D03*
X242000000Y-142862500D03*
X241050000Y-142862500D03*
X241050000Y-145137500D03*
X242000000Y-145137500D03*
X242950000Y-145137500D03*
%TD*%
D11*
%TO.C,C11*%
X233451992Y-136851992D03*
X234548008Y-137948008D03*
%TD*%
D12*
%TO.C,J6*%
X205000000Y-96240000D03*
D13*
X205000000Y-93700000D03*
X205000000Y-91160000D03*
X205000000Y-88620000D03*
X205000000Y-86080000D03*
X205000000Y-83540000D03*
X205000000Y-81000000D03*
X205000000Y-78460000D03*
%TD*%
D14*
%TO.C,R17*%
X209100000Y-140610000D03*
X209100000Y-139590000D03*
%TD*%
D15*
%TO.C,D21*%
X104500000Y-142070000D03*
X108500000Y-142070000D03*
%TD*%
D12*
%TO.C,J16*%
X233000000Y-106800000D03*
D13*
X233000000Y-109340000D03*
X230460000Y-106800000D03*
X230460000Y-109340000D03*
X227920000Y-106800000D03*
X227920000Y-109340000D03*
%TD*%
D16*
%TO.C,C82*%
X234300000Y-144575000D03*
X234300000Y-143025000D03*
%TD*%
D17*
%TO.C,U7*%
X101862500Y-126120000D03*
X101862500Y-127070000D03*
X101862500Y-128020000D03*
X104137500Y-128020000D03*
X104137500Y-126120000D03*
%TD*%
D18*
%TO.C,R29*%
X189510000Y-86500000D03*
X188490000Y-86500000D03*
%TD*%
D12*
%TO.C,J19*%
X215200000Y-137375000D03*
D13*
X217740000Y-137375000D03*
X215200000Y-139915000D03*
X217740000Y-139915000D03*
X215200000Y-142455000D03*
X217740000Y-142455000D03*
%TD*%
D19*
%TO.C,R30*%
X91000000Y-111760000D03*
X91000000Y-112780000D03*
%TD*%
D20*
%TO.C,C53*%
X84275000Y-94179999D03*
X82725000Y-94179999D03*
%TD*%
D21*
%TO.C,D17*%
X70750000Y-120132500D03*
X70750000Y-122007500D03*
%TD*%
D19*
%TO.C,R33*%
X95600000Y-111460000D03*
X95600000Y-112480000D03*
%TD*%
D22*
%TO.C,L3*%
X127000000Y-132350000D03*
X127000000Y-128650000D03*
%TD*%
D23*
%TO.C,C1*%
X239400000Y-91180000D03*
X239400000Y-90220000D03*
%TD*%
D24*
%TO.C,R15*%
X220090000Y-130500000D03*
X221110000Y-130500000D03*
%TD*%
D25*
%TO.C,D8*%
X134000000Y-121750000D03*
X134000000Y-125750000D03*
%TD*%
D26*
%TO.C,C47*%
X109000000Y-124225000D03*
X109000000Y-125775000D03*
%TD*%
D27*
%TO.C,D31*%
X159749999Y-100367500D03*
X159749999Y-98492500D03*
%TD*%
D28*
%TO.C,F2*%
X116000000Y-133000000D03*
D29*
X116000000Y-143750000D03*
X116000000Y-122250000D03*
%TD*%
D28*
%TO.C,F4*%
X115000000Y-87430000D03*
D29*
X115000000Y-76680000D03*
X115000000Y-98180000D03*
%TD*%
D30*
%TO.C,D34*%
X136500000Y-78430000D03*
X132500000Y-78430000D03*
%TD*%
D19*
%TO.C,R82*%
X152000000Y-111490000D03*
X152000000Y-112510000D03*
%TD*%
D14*
%TO.C,R85*%
X132800000Y-110310000D03*
X132800000Y-109290000D03*
%TD*%
D31*
%TO.C,C46*%
X87000000Y-130770000D03*
X87000000Y-123370000D03*
%TD*%
D20*
%TO.C,C65*%
X137775000Y-95929999D03*
X136225000Y-95929999D03*
%TD*%
D32*
%TO.C,C20*%
X146725000Y-124500000D03*
X148275000Y-124500000D03*
%TD*%
D33*
%TO.C,J12*%
X59000000Y-153000000D03*
D34*
X64000000Y-153000000D03*
%TD*%
D19*
%TO.C,R20*%
X150700000Y-109390000D03*
X150700000Y-110410000D03*
%TD*%
D30*
%TO.C,D33*%
X148500001Y-78430000D03*
X144500001Y-78430000D03*
%TD*%
D18*
%TO.C,R28*%
X189510000Y-88000000D03*
X188490000Y-88000000D03*
%TD*%
D26*
%TO.C,C56*%
X84000000Y-89429999D03*
X84000000Y-90979999D03*
%TD*%
D32*
%TO.C,C85*%
X93225000Y-85929999D03*
X94775000Y-85929999D03*
%TD*%
D35*
%TO.C,L2*%
X133000000Y-128650000D03*
X133000000Y-132350000D03*
%TD*%
D14*
%TO.C,R47*%
X134200000Y-109039999D03*
X134200000Y-108019999D03*
%TD*%
D20*
%TO.C,C52*%
X84275000Y-95929999D03*
X82725000Y-95929999D03*
%TD*%
D14*
%TO.C,R46*%
X139000000Y-108740000D03*
X139000000Y-107720000D03*
%TD*%
D32*
%TO.C,C14*%
X234725000Y-135500000D03*
X236275000Y-135500000D03*
%TD*%
D15*
%TO.C,D18*%
X71000000Y-142070000D03*
X75000000Y-142070000D03*
%TD*%
D14*
%TO.C,R88*%
X77000000Y-108939999D03*
X77000000Y-107919999D03*
%TD*%
D26*
%TO.C,R60*%
X56900000Y-112725000D03*
X56900000Y-114275000D03*
%TD*%
D20*
%TO.C,C45*%
X103775000Y-129820000D03*
X102225000Y-129820000D03*
%TD*%
D36*
%TO.C,D1*%
X183612500Y-133500000D03*
X185187500Y-133500000D03*
%TD*%
D14*
%TO.C,R34*%
X71250000Y-124580000D03*
X71250000Y-123560000D03*
%TD*%
D28*
%TO.C,F1*%
X175500000Y-142000000D03*
D29*
X175500000Y-131250000D03*
X175500000Y-152750000D03*
%TD*%
D32*
%TO.C,C5*%
X237025000Y-94800000D03*
X238575000Y-94800000D03*
%TD*%
D16*
%TO.C,C78*%
X194944146Y-79000000D03*
X194944146Y-77450000D03*
%TD*%
D37*
%TO.C,D22*%
X100999999Y-98680000D03*
X100999999Y-94680000D03*
%TD*%
D19*
%TO.C,R50*%
X159249999Y-95920000D03*
X159249999Y-96940000D03*
%TD*%
D38*
%TO.C,U6*%
X101445000Y-115095000D03*
X100175000Y-115095000D03*
X98905000Y-115095000D03*
X97635000Y-115095000D03*
X96365000Y-115095000D03*
X95095000Y-115095000D03*
X93825000Y-115095000D03*
X92555000Y-115095000D03*
X92555000Y-120045000D03*
X93825000Y-120045000D03*
X95095000Y-120045000D03*
X96365000Y-120045000D03*
X97635000Y-120045000D03*
X98905000Y-120045000D03*
X100175000Y-120045000D03*
X101445000Y-120045000D03*
%TD*%
D20*
%TO.C,C66*%
X137775000Y-94179999D03*
X136225000Y-94179999D03*
%TD*%
D24*
%TO.C,R10*%
X236790000Y-96200000D03*
X237810000Y-96200000D03*
%TD*%
D18*
%TO.C,R27*%
X189510000Y-89500000D03*
X188490000Y-89500000D03*
%TD*%
D39*
%TO.C,U5*%
X186100000Y-90305000D03*
X186100000Y-89035000D03*
X186100000Y-87765000D03*
X186100000Y-86495000D03*
X180700000Y-86495000D03*
X180700000Y-87765000D03*
X180700000Y-89035000D03*
X180700000Y-90305000D03*
D40*
X183400000Y-88400000D03*
%TD*%
D26*
%TO.C,R56*%
X111000000Y-112950000D03*
X111000000Y-114500000D03*
%TD*%
D24*
%TO.C,R24*%
X157990000Y-131500000D03*
X159010000Y-131500000D03*
%TD*%
D32*
%TO.C,C42*%
X104725000Y-124570000D03*
X106275000Y-124570000D03*
%TD*%
D41*
%TO.C,J25*%
X174900000Y-121500000D03*
D42*
X182100000Y-121500000D03*
%TD*%
D43*
%TO.C,D5*%
X225687500Y-131200000D03*
X224112500Y-131200000D03*
%TD*%
D26*
%TO.C,R54*%
X120412500Y-112950000D03*
X120412500Y-114500000D03*
%TD*%
D44*
%TO.C,R76*%
X155500000Y-135325000D03*
X155500000Y-133675000D03*
%TD*%
D32*
%TO.C,C89*%
X72225000Y-86429999D03*
X73775000Y-86429999D03*
%TD*%
D20*
%TO.C,C3*%
X217175000Y-95200000D03*
X215625000Y-95200000D03*
%TD*%
D45*
%TO.C,J22*%
X69450000Y-113500000D03*
D46*
X69450000Y-111500000D03*
X69450000Y-109500000D03*
X69450000Y-107500000D03*
%TD*%
D18*
%TO.C,R44*%
X73010000Y-88929999D03*
X71990000Y-88929999D03*
%TD*%
D19*
%TO.C,R31*%
X96700000Y-111460000D03*
X96700000Y-112480000D03*
%TD*%
D12*
%TO.C,J5*%
X205000000Y-119240000D03*
D13*
X205000000Y-116700000D03*
X205000000Y-114160000D03*
X205000000Y-111620000D03*
X205000000Y-109080000D03*
X205000000Y-106540000D03*
X205000000Y-104000000D03*
X205000000Y-101460000D03*
%TD*%
D20*
%TO.C,C83*%
X137775000Y-134500000D03*
X136225000Y-134500000D03*
%TD*%
D17*
%TO.C,U4*%
X155862500Y-126050000D03*
X155862500Y-127000000D03*
X155862500Y-127950000D03*
X158137500Y-127950000D03*
X158137500Y-126050000D03*
%TD*%
D47*
%TO.C,L1*%
X217000000Y-99162500D03*
X217000000Y-97037500D03*
%TD*%
D14*
%TO.C,R39*%
X80300000Y-109039999D03*
X80300000Y-108019999D03*
%TD*%
%TO.C,R49*%
X135200000Y-109040000D03*
X135200000Y-108020000D03*
%TD*%
D20*
%TO.C,C6*%
X216875000Y-85500000D03*
X215325000Y-85500000D03*
%TD*%
D38*
%TO.C,U3*%
X155445000Y-115025000D03*
X154175000Y-115025000D03*
X152905000Y-115025000D03*
X151635000Y-115025000D03*
X150365000Y-115025000D03*
X149095000Y-115025000D03*
X147825000Y-115025000D03*
X146555000Y-115025000D03*
X146555000Y-119975000D03*
X147825000Y-119975000D03*
X149095000Y-119975000D03*
X150365000Y-119975000D03*
X151635000Y-119975000D03*
X152905000Y-119975000D03*
X154175000Y-119975000D03*
X155445000Y-119975000D03*
%TD*%
D19*
%TO.C,R14*%
X227800000Y-129310000D03*
X227800000Y-130330000D03*
%TD*%
D14*
%TO.C,R48*%
X134200000Y-111039999D03*
X134200000Y-110019999D03*
%TD*%
D16*
%TO.C,C24*%
X147000000Y-131000000D03*
X147000000Y-129450000D03*
%TD*%
D44*
%TO.C,R66*%
X108500000Y-87255000D03*
X108500000Y-85605000D03*
%TD*%
D48*
%TO.C,J13*%
X118000000Y-67500000D03*
D34*
X113000000Y-67500000D03*
%TD*%
D20*
%TO.C,C68*%
X125775000Y-95929999D03*
X124225000Y-95929999D03*
%TD*%
D49*
%TO.C,Q1*%
X190375000Y-84450000D03*
X190375000Y-82550000D03*
X188500000Y-83500000D03*
%TD*%
D26*
%TO.C,R57*%
X111000000Y-109450000D03*
X111000000Y-111000000D03*
%TD*%
D32*
%TO.C,C90*%
X125725000Y-86429999D03*
X127275000Y-86429999D03*
%TD*%
D50*
%TO.C,D36*%
X195437500Y-86000000D03*
X193562500Y-86000000D03*
%TD*%
D51*
%TO.C,R64*%
X122500000Y-133175000D03*
X122500000Y-134825000D03*
%TD*%
D22*
%TO.C,L9*%
X151499999Y-91780000D03*
X151499999Y-88080000D03*
%TD*%
D20*
%TO.C,C88*%
X104775000Y-134070000D03*
X103225000Y-134070000D03*
%TD*%
D24*
%TO.C,R63*%
X193500000Y-89500000D03*
X194520000Y-89500000D03*
%TD*%
D14*
%TO.C,R40*%
X80300000Y-111039999D03*
X80300000Y-110019999D03*
%TD*%
D52*
%TO.C,JP1*%
X230900000Y-144350000D03*
D53*
X230900000Y-143050000D03*
%TD*%
D28*
%TO.C,H1*%
X60000000Y-66000000D03*
%TD*%
D51*
%TO.C,R71*%
X152250000Y-82855000D03*
X152250000Y-84505000D03*
%TD*%
D54*
%TO.C,R37*%
X108000000Y-135032500D03*
X108000000Y-129107500D03*
%TD*%
D20*
%TO.C,C18*%
X153775000Y-126250000D03*
X152225000Y-126250000D03*
%TD*%
D28*
%TO.C,F3*%
X62000000Y-133070000D03*
D29*
X62000000Y-143820000D03*
X62000000Y-122320000D03*
%TD*%
D18*
%TO.C,R43*%
X73010000Y-87929999D03*
X71990000Y-87929999D03*
%TD*%
D32*
%TO.C,C50*%
X77225000Y-94179999D03*
X78775000Y-94179999D03*
%TD*%
D20*
%TO.C,C26*%
X157775000Y-129750000D03*
X156225000Y-129750000D03*
%TD*%
D51*
%TO.C,R78*%
X75500000Y-85104999D03*
X75500000Y-86754999D03*
%TD*%
D19*
%TO.C,R19*%
X150700000Y-111390000D03*
X150700000Y-112410000D03*
%TD*%
D26*
%TO.C,C54*%
X103999999Y-95655000D03*
X103999999Y-97205000D03*
%TD*%
D20*
%TO.C,C15*%
X224875000Y-132900000D03*
X223325000Y-132900000D03*
%TD*%
D55*
%TO.C,C34*%
X191300000Y-97000000D03*
X198700000Y-97000000D03*
%TD*%
D16*
%TO.C,C35*%
X93800000Y-112745000D03*
X93800000Y-111195000D03*
%TD*%
D56*
%TO.C,Y1*%
X237500000Y-90600000D03*
X237500000Y-91800000D03*
X237500000Y-93000000D03*
%TD*%
D15*
%TO.C,D12*%
X148000000Y-142000000D03*
X152000000Y-142000000D03*
%TD*%
D57*
%TO.C,U2*%
X231461010Y-135113864D03*
X231107456Y-134760311D03*
X230753903Y-134406757D03*
X230400349Y-134053204D03*
X230046796Y-133699651D03*
X229693243Y-133346097D03*
X229339689Y-132992544D03*
X228986136Y-132638990D03*
D58*
X228013864Y-132638990D03*
X227660311Y-132992544D03*
X227306757Y-133346097D03*
X226953204Y-133699651D03*
X226599651Y-134053204D03*
X226246097Y-134406757D03*
X225892544Y-134760311D03*
X225538990Y-135113864D03*
D57*
X225538990Y-136086136D03*
X225892544Y-136439689D03*
X226246097Y-136793243D03*
X226599651Y-137146796D03*
X226953204Y-137500349D03*
X227306757Y-137853903D03*
X227660311Y-138207456D03*
X228013864Y-138561010D03*
D58*
X228986136Y-138561010D03*
X229339689Y-138207456D03*
X229693243Y-137853903D03*
X230046796Y-137500349D03*
X230400349Y-137146796D03*
X230753903Y-136793243D03*
X231107456Y-136439689D03*
X231461010Y-136086136D03*
D59*
X228500000Y-135600000D03*
%TD*%
D16*
%TO.C,C22*%
X127000000Y-124775000D03*
X127000000Y-123225000D03*
%TD*%
D18*
%TO.C,R52*%
X126510000Y-88929999D03*
X125490000Y-88929999D03*
%TD*%
D30*
%TO.C,D26*%
X95000001Y-78430000D03*
X91000001Y-78430000D03*
%TD*%
D12*
%TO.C,J9*%
X245000000Y-125000000D03*
D13*
X242460000Y-125000000D03*
X239920000Y-125000000D03*
X237380000Y-125000000D03*
X234840000Y-125000000D03*
X232300000Y-125000000D03*
X229760000Y-125000000D03*
X227220000Y-125000000D03*
%TD*%
D26*
%TO.C,C8*%
X218600000Y-97025000D03*
X218600000Y-98575000D03*
%TD*%
D60*
%TO.C,R74*%
X86325000Y-85929999D03*
X84675000Y-85929999D03*
%TD*%
D24*
%TO.C,R23*%
X157990000Y-132500000D03*
X159010000Y-132500000D03*
%TD*%
D44*
%TO.C,R69*%
X78250000Y-137645000D03*
X78250000Y-135995000D03*
%TD*%
D18*
%TO.C,R81*%
X198110000Y-112700000D03*
X197090000Y-112700000D03*
%TD*%
D30*
%TO.C,D28*%
X72500000Y-78430000D03*
X68500000Y-78430000D03*
%TD*%
D16*
%TO.C,C43*%
X93000000Y-131070000D03*
X93000000Y-129520000D03*
%TD*%
%TO.C,C74*%
X201000000Y-79000000D03*
X201000000Y-77450000D03*
%TD*%
D35*
%TO.C,L5*%
X79000000Y-128720000D03*
X79000000Y-132420000D03*
%TD*%
D61*
%TO.C,C4*%
X190700000Y-68200000D03*
X183300000Y-68200000D03*
%TD*%
D25*
%TO.C,D15*%
X76000000Y-121820000D03*
X76000000Y-125820000D03*
%TD*%
D28*
%TO.C,H3*%
X248000000Y-66000000D03*
%TD*%
D62*
%TO.C,J2*%
X194600000Y-140000000D03*
D42*
X187400000Y-140000000D03*
%TD*%
D19*
%TO.C,R42*%
X105749999Y-95920000D03*
X105749999Y-96940000D03*
%TD*%
%TO.C,R26*%
X189000000Y-91090000D03*
X189000000Y-92110000D03*
%TD*%
D63*
%TO.C,U1*%
X221000000Y-97162500D03*
X221500000Y-97162500D03*
X222000000Y-97162500D03*
X222500000Y-97162500D03*
X223000000Y-97162500D03*
X223500000Y-97162500D03*
X224000000Y-97162500D03*
X224500000Y-97162500D03*
X225000000Y-97162500D03*
X225500000Y-97162500D03*
X226000000Y-97162500D03*
X226500000Y-97162500D03*
X227000000Y-97162500D03*
X227500000Y-97162500D03*
X228000000Y-97162500D03*
X228500000Y-97162500D03*
X229000000Y-97162500D03*
X229500000Y-97162500D03*
X230000000Y-97162500D03*
X230500000Y-97162500D03*
X231000000Y-97162500D03*
X231500000Y-97162500D03*
X232000000Y-97162500D03*
X232500000Y-97162500D03*
X233000000Y-97162500D03*
D64*
X234662500Y-95500000D03*
X234662500Y-95000000D03*
X234662500Y-94500000D03*
X234662500Y-94000000D03*
X234662500Y-93500000D03*
X234662500Y-93000000D03*
X234662500Y-92500000D03*
X234662500Y-92000000D03*
X234662500Y-91500000D03*
X234662500Y-91000000D03*
X234662500Y-90500000D03*
X234662500Y-90000000D03*
X234662500Y-89500000D03*
X234662500Y-89000000D03*
X234662500Y-88500000D03*
X234662500Y-88000000D03*
X234662500Y-87500000D03*
X234662500Y-87000000D03*
X234662500Y-86500000D03*
X234662500Y-86000000D03*
X234662500Y-85500000D03*
X234662500Y-85000000D03*
X234662500Y-84500000D03*
X234662500Y-84000000D03*
X234662500Y-83500000D03*
D63*
X233000000Y-81837500D03*
X232500000Y-81837500D03*
X232000000Y-81837500D03*
X231500000Y-81837500D03*
X231000000Y-81837500D03*
X230500000Y-81837500D03*
X230000000Y-81837500D03*
X229500000Y-81837500D03*
X229000000Y-81837500D03*
X228500000Y-81837500D03*
X228000000Y-81837500D03*
X227500000Y-81837500D03*
X227000000Y-81837500D03*
X226500000Y-81837500D03*
X226000000Y-81837500D03*
X225500000Y-81837500D03*
X225000000Y-81837500D03*
X224500000Y-81837500D03*
X224000000Y-81837500D03*
X223500000Y-81837500D03*
X223000000Y-81837500D03*
X222500000Y-81837500D03*
X222000000Y-81837500D03*
X221500000Y-81837500D03*
X221000000Y-81837500D03*
D64*
X219337500Y-83500000D03*
X219337500Y-84000000D03*
X219337500Y-84500000D03*
X219337500Y-85000000D03*
X219337500Y-85500000D03*
X219337500Y-86000000D03*
X219337500Y-86500000D03*
X219337500Y-87000000D03*
X219337500Y-87500000D03*
X219337500Y-88000000D03*
X219337500Y-88500000D03*
X219337500Y-89000000D03*
X219337500Y-89500000D03*
X219337500Y-90000000D03*
X219337500Y-90500000D03*
X219337500Y-91000000D03*
X219337500Y-91500000D03*
X219337500Y-92000000D03*
X219337500Y-92500000D03*
X219337500Y-93000000D03*
X219337500Y-93500000D03*
X219337500Y-94000000D03*
X219337500Y-94500000D03*
X219337500Y-95000000D03*
X219337500Y-95500000D03*
%TD*%
D28*
%TO.C,H4*%
X164000000Y-110000000D03*
%TD*%
D15*
%TO.C,D19*%
X82000000Y-142070000D03*
X86000000Y-142070000D03*
%TD*%
D20*
%TO.C,C37*%
X99775000Y-126320000D03*
X98225000Y-126320000D03*
%TD*%
D12*
%TO.C,J8*%
X250000000Y-97000000D03*
D13*
X250000000Y-99540000D03*
X250000000Y-102080000D03*
X250000000Y-104620000D03*
X250000000Y-107160000D03*
X250000000Y-109700000D03*
X250000000Y-112240000D03*
X250000000Y-114780000D03*
X250000000Y-117320000D03*
X250000000Y-119860000D03*
%TD*%
D26*
%TO.C,C70*%
X135500000Y-89429999D03*
X135500000Y-90979999D03*
%TD*%
D16*
%TO.C,C60*%
X66000000Y-89204999D03*
X66000000Y-87654999D03*
%TD*%
D35*
%TO.C,L10*%
X157499999Y-88080000D03*
X157499999Y-91780000D03*
%TD*%
D20*
%TO.C,R6*%
X242775000Y-137000000D03*
X241225000Y-137000000D03*
%TD*%
D45*
%TO.C,J21*%
X114500000Y-113725000D03*
D46*
X114500000Y-111725000D03*
X114500000Y-109725000D03*
X114500000Y-107725000D03*
%TD*%
D28*
%TO.C,H2*%
X248000000Y-154000000D03*
%TD*%
D65*
%TO.C,U8*%
X75555000Y-105404999D03*
X76825000Y-105404999D03*
X78095000Y-105404999D03*
X79365000Y-105404999D03*
X80635000Y-105404999D03*
X81905000Y-105404999D03*
X83175000Y-105404999D03*
X84445000Y-105404999D03*
X84445000Y-100454999D03*
X83175000Y-100454999D03*
X81905000Y-100454999D03*
X80635000Y-100454999D03*
X79365000Y-100454999D03*
X78095000Y-100454999D03*
X76825000Y-100454999D03*
X75555000Y-100454999D03*
%TD*%
D24*
%TO.C,R36*%
X103990000Y-131570000D03*
X105010000Y-131570000D03*
%TD*%
D54*
%TO.C,R25*%
X162000000Y-134962500D03*
X162000000Y-129037500D03*
%TD*%
D20*
%TO.C,C87*%
X158775000Y-134000000D03*
X157225000Y-134000000D03*
%TD*%
D66*
%TO.C,C12*%
X229851992Y-140348008D03*
X230948008Y-139251992D03*
%TD*%
D45*
%TO.C,J23*%
X60400000Y-113500000D03*
D46*
X60400000Y-111500000D03*
X60400000Y-109500000D03*
X60400000Y-107500000D03*
%TD*%
D19*
%TO.C,R32*%
X96700000Y-109460000D03*
X96700000Y-110480000D03*
%TD*%
D15*
%TO.C,D10*%
X125000000Y-142000000D03*
X129000000Y-142000000D03*
%TD*%
D67*
%TO.C,C59*%
X90000000Y-89730000D03*
X90000000Y-97130000D03*
%TD*%
D20*
%TO.C,C19*%
X153775000Y-124500000D03*
X152225000Y-124500000D03*
%TD*%
D30*
%TO.C,D27*%
X83000000Y-78430000D03*
X79000000Y-78430000D03*
%TD*%
D24*
%TO.C,R62*%
X193490000Y-88000000D03*
X194510000Y-88000000D03*
%TD*%
D66*
%TO.C,C13*%
X230451992Y-131648008D03*
X231548008Y-130551992D03*
%TD*%
D30*
%TO.C,D25*%
X106000000Y-78430001D03*
X102000000Y-78430001D03*
%TD*%
D32*
%TO.C,C63*%
X130725000Y-94179999D03*
X132275000Y-94179999D03*
%TD*%
D26*
%TO.C,R59*%
X65950000Y-109225000D03*
X65950000Y-110775000D03*
%TD*%
D19*
%TO.C,R1*%
X192437500Y-82990000D03*
X192437500Y-84010000D03*
%TD*%
D15*
%TO.C,D20*%
X94000000Y-142070000D03*
X98000000Y-142070000D03*
%TD*%
D26*
%TO.C,C67*%
X157499999Y-95655000D03*
X157499999Y-97205000D03*
%TD*%
D15*
%TO.C,D11*%
X136000000Y-142000000D03*
X140000000Y-142000000D03*
%TD*%
D20*
%TO.C,C84*%
X83775000Y-134570000D03*
X82225000Y-134570000D03*
%TD*%
D15*
%TO.C,D14*%
X180500000Y-102000000D03*
X184500000Y-102000000D03*
%TD*%
D32*
%TO.C,C32*%
X193725000Y-91000000D03*
X195275000Y-91000000D03*
%TD*%
D68*
%TO.C,J1*%
X200100000Y-152000000D03*
D69*
X187900000Y-152000000D03*
%TD*%
D30*
%TO.C,D35*%
X126000000Y-78430000D03*
X122000000Y-78430000D03*
%TD*%
D32*
%TO.C,C58*%
X73225000Y-90679999D03*
X74775000Y-90679999D03*
%TD*%
D16*
%TO.C,C80*%
X191944146Y-79000000D03*
X191944146Y-77450000D03*
%TD*%
D32*
%TO.C,C71*%
X126725000Y-90679999D03*
X128275000Y-90679999D03*
%TD*%
D16*
%TO.C,C76*%
X197944146Y-79000000D03*
X197944146Y-77450000D03*
%TD*%
D70*
%TO.C,R7*%
X241175000Y-139200000D03*
X242825000Y-139200000D03*
%TD*%
D71*
%TO.C,Y2*%
X233848528Y-134048528D03*
X233000000Y-133200000D03*
X232151472Y-132351472D03*
%TD*%
D48*
%TO.C,J14*%
X171500000Y-67500000D03*
D34*
X166500000Y-67500000D03*
%TD*%
D72*
%TO.C,C2*%
X239400000Y-92320000D03*
X239400000Y-93280000D03*
%TD*%
D73*
%TO.C,SW1*%
X241500000Y-100800000D03*
X241500000Y-108760000D03*
X237000000Y-100800000D03*
X237000000Y-108760000D03*
%TD*%
D32*
%TO.C,C23*%
X158725000Y-124500000D03*
X160275000Y-124500000D03*
%TD*%
D74*
%TO.C,U11*%
X128637500Y-94379999D03*
X128637500Y-93429999D03*
X128637500Y-92479999D03*
X126362500Y-92479999D03*
X126362500Y-94379999D03*
%TD*%
D70*
%TO.C,R8*%
X241175000Y-140700000D03*
X242825000Y-140700000D03*
%TD*%
D16*
%TO.C,C91*%
X201500000Y-114275000D03*
X201500000Y-112725000D03*
%TD*%
D19*
%TO.C,R86*%
X153200000Y-111490000D03*
X153200000Y-112510000D03*
%TD*%
D18*
%TO.C,R12*%
X223410000Y-134300000D03*
X222390000Y-134300000D03*
%TD*%
D12*
%TO.C,J4*%
X205000000Y-126000000D03*
D13*
X205000000Y-128540000D03*
X205000000Y-131080000D03*
X205000000Y-133620000D03*
X205000000Y-136160000D03*
X205000000Y-138700000D03*
X205000000Y-141240000D03*
X205000000Y-143780000D03*
%TD*%
D16*
%TO.C,C79*%
X193444146Y-79000000D03*
X193444146Y-77450000D03*
%TD*%
D26*
%TO.C,C62*%
X134000000Y-96154999D03*
X134000000Y-97704999D03*
%TD*%
D75*
%TO.C,J3*%
X248375000Y-142840000D03*
X248375000Y-137060000D03*
D76*
X247300000Y-143150000D03*
X247300000Y-142350000D03*
D77*
X247300000Y-141200000D03*
X247300000Y-140200000D03*
X247300000Y-139700000D03*
X247300000Y-138700000D03*
D76*
X247300000Y-137550000D03*
X247300000Y-136750000D03*
X247300000Y-136750000D03*
X247300000Y-137550000D03*
D77*
X247300000Y-138200000D03*
X247300000Y-139200000D03*
X247300000Y-140700000D03*
X247300000Y-141700000D03*
D76*
X247300000Y-142350000D03*
X247300000Y-143150000D03*
D78*
X247875000Y-144270000D03*
D79*
X252055000Y-144270000D03*
D78*
X247875000Y-135630000D03*
D79*
X252055000Y-135630000D03*
%TD*%
D30*
%TO.C,D32*%
X159500000Y-78430001D03*
X155500000Y-78430001D03*
%TD*%
D32*
%TO.C,C40*%
X92725000Y-126320000D03*
X94275000Y-126320000D03*
%TD*%
D16*
%TO.C,C75*%
X199500000Y-79000000D03*
X199500000Y-77450000D03*
%TD*%
D14*
%TO.C,R84*%
X78400000Y-108939999D03*
X78400000Y-107919999D03*
%TD*%
D37*
%TO.C,D23*%
X96999999Y-98680000D03*
X96999999Y-94680000D03*
%TD*%
D18*
%TO.C,R90*%
X244110000Y-98300000D03*
X243090000Y-98300000D03*
%TD*%
D16*
%TO.C,C17*%
X150500000Y-124275000D03*
X150500000Y-122725000D03*
%TD*%
D19*
%TO.C,R87*%
X99000000Y-111560000D03*
X99000000Y-112580000D03*
%TD*%
D60*
%TO.C,R75*%
X139825000Y-85929999D03*
X138175000Y-85929999D03*
%TD*%
D37*
%TO.C,D30*%
X150499999Y-98680000D03*
X150499999Y-94680000D03*
%TD*%
D14*
%TO.C,R38*%
X85500000Y-108740000D03*
X85500000Y-107720000D03*
%TD*%
D18*
%TO.C,R91*%
X244110000Y-97000000D03*
X243090000Y-97000000D03*
%TD*%
D25*
%TO.C,D16*%
X80000000Y-121820000D03*
X80000000Y-125820000D03*
%TD*%
D19*
%TO.C,R83*%
X98000000Y-111560000D03*
X98000000Y-112580000D03*
%TD*%
D12*
%TO.C,J7*%
X197900000Y-66000000D03*
D13*
X197900000Y-68540000D03*
X200440000Y-66000000D03*
X200440000Y-68540000D03*
X202980000Y-66000000D03*
X202980000Y-68540000D03*
X205520000Y-66000000D03*
X205520000Y-68540000D03*
X208060000Y-66000000D03*
X208060000Y-68540000D03*
X210600000Y-66000000D03*
X210600000Y-68540000D03*
X213140000Y-66000000D03*
X213140000Y-68540000D03*
X215680000Y-66000000D03*
X215680000Y-68540000D03*
X218220000Y-66000000D03*
X218220000Y-68540000D03*
X220760000Y-66000000D03*
X220760000Y-68540000D03*
X223300000Y-66000000D03*
X223300000Y-68540000D03*
X225840000Y-66000000D03*
X225840000Y-68540000D03*
X228380000Y-66000000D03*
X228380000Y-68540000D03*
X230920000Y-66000000D03*
X230920000Y-68540000D03*
X233460000Y-66000000D03*
X233460000Y-68540000D03*
X236000000Y-66000000D03*
X236000000Y-68540000D03*
X238540000Y-66000000D03*
X238540000Y-68540000D03*
X241080000Y-66000000D03*
X241080000Y-68540000D03*
%TD*%
D65*
%TO.C,U10*%
X129055000Y-105404999D03*
X130325000Y-105404999D03*
X131595000Y-105404999D03*
X132865000Y-105404999D03*
X134135000Y-105404999D03*
X135405000Y-105404999D03*
X136675000Y-105404999D03*
X137945000Y-105404999D03*
X137945000Y-100454999D03*
X136675000Y-100454999D03*
X135405000Y-100454999D03*
X134135000Y-100454999D03*
X132865000Y-100454999D03*
X131595000Y-100454999D03*
X130325000Y-100454999D03*
X129055000Y-100454999D03*
%TD*%
D16*
%TO.C,C77*%
X196444146Y-79000000D03*
X196444146Y-77450000D03*
%TD*%
D27*
%TO.C,D24*%
X106249999Y-100367500D03*
X106249999Y-98492500D03*
%TD*%
D31*
%TO.C,C27*%
X141000000Y-130700000D03*
X141000000Y-123300000D03*
%TD*%
D24*
%TO.C,R16*%
X220090000Y-131600000D03*
X221110000Y-131600000D03*
%TD*%
%TO.C,R4*%
X186990000Y-133500000D03*
X188010000Y-133500000D03*
%TD*%
D14*
%TO.C,R41*%
X81400000Y-109040000D03*
X81400000Y-108020000D03*
%TD*%
D28*
%TO.C,F5*%
X168500000Y-87430000D03*
D29*
X168500000Y-76680000D03*
X168500000Y-98180000D03*
%TD*%
D22*
%TO.C,L7*%
X97999999Y-91780000D03*
X97999999Y-88080000D03*
%TD*%
D16*
%TO.C,C81*%
X190444146Y-79000000D03*
X190444146Y-77450000D03*
%TD*%
D80*
%TO.C,C93*%
X216700000Y-145300000D03*
X215740000Y-145300000D03*
%TD*%
D81*
%TO.C,L4*%
X180475000Y-96500000D03*
X186525000Y-96500000D03*
%TD*%
D32*
%TO.C,C55*%
X70325000Y-96000000D03*
X71875000Y-96000000D03*
%TD*%
D16*
%TO.C,C41*%
X73000000Y-124845000D03*
X73000000Y-123295000D03*
%TD*%
D70*
%TO.C,R72*%
X144675000Y-134500000D03*
X146325000Y-134500000D03*
%TD*%
D16*
%TO.C,C16*%
X147800000Y-112675000D03*
X147800000Y-111125000D03*
%TD*%
D44*
%TO.C,R67*%
X162000000Y-87255000D03*
X162000000Y-85605000D03*
%TD*%
D16*
%TO.C,C36*%
X96500000Y-124345000D03*
X96500000Y-122795000D03*
%TD*%
D51*
%TO.C,R70*%
X98750000Y-82855000D03*
X98750000Y-84505000D03*
%TD*%
D44*
%TO.C,R9*%
X240800000Y-92525000D03*
X240800000Y-90875000D03*
%TD*%
D19*
%TO.C,R18*%
X145500000Y-111690000D03*
X145500000Y-112710000D03*
%TD*%
D44*
%TO.C,R77*%
X101500000Y-135395000D03*
X101500000Y-133745000D03*
%TD*%
D35*
%TO.C,L8*%
X103999999Y-88080000D03*
X103999999Y-91780000D03*
%TD*%
D21*
%TO.C,D9*%
X124750000Y-120062500D03*
X124750000Y-121937500D03*
%TD*%
D14*
%TO.C,R22*%
X125250000Y-124510000D03*
X125250000Y-123490000D03*
%TD*%
D20*
%TO.C,C7*%
X227575000Y-79400000D03*
X226025000Y-79400000D03*
%TD*%
D12*
%TO.C,J10*%
X250000000Y-75000000D03*
D13*
X250000000Y-77540000D03*
X250000000Y-80080000D03*
X250000000Y-82620000D03*
X250000000Y-85160000D03*
X250000000Y-87700000D03*
X250000000Y-90240000D03*
X250000000Y-92780000D03*
%TD*%
D19*
%TO.C,R21*%
X149600000Y-111390000D03*
X149600000Y-112410000D03*
%TD*%
D20*
%TO.C,C31*%
X184175000Y-92000000D03*
X182625000Y-92000000D03*
%TD*%
D25*
%TO.C,D7*%
X130000000Y-121750000D03*
X130000000Y-125750000D03*
%TD*%
D44*
%TO.C,R68*%
X132250000Y-137575000D03*
X132250000Y-135925000D03*
%TD*%
D26*
%TO.C,C57*%
X82000000Y-89429999D03*
X82000000Y-90979999D03*
%TD*%
D16*
%TO.C,C25*%
X149000000Y-131000000D03*
X149000000Y-129450000D03*
%TD*%
D30*
%TO.C,D3*%
X233500000Y-113000000D03*
X229500000Y-113000000D03*
%TD*%
D80*
%TO.C,C92*%
X237780000Y-97400000D03*
X236820000Y-97400000D03*
%TD*%
D26*
%TO.C,C61*%
X136700000Y-107755000D03*
X136700000Y-109305000D03*
%TD*%
%TO.C,R61*%
X56900000Y-109225000D03*
X56900000Y-110775000D03*
%TD*%
D82*
%TO.C,C9*%
X234860589Y-131960589D03*
X235539411Y-132639411D03*
%TD*%
D51*
%TO.C,R79*%
X129000000Y-85104999D03*
X129000000Y-86754999D03*
%TD*%
D20*
%TO.C,C38*%
X99775000Y-124570000D03*
X98225000Y-124570000D03*
%TD*%
D83*
%TO.C,R53*%
X122500000Y-85467499D03*
X122500000Y-91392499D03*
%TD*%
D26*
%TO.C,R58*%
X65950000Y-112725000D03*
X65950000Y-114275000D03*
%TD*%
D33*
%TO.C,J11*%
X113022500Y-153050000D03*
D34*
X118022500Y-153050000D03*
%TD*%
D55*
%TO.C,C30*%
X177500000Y-79500000D03*
X184900000Y-79500000D03*
%TD*%
%TO.C,C33*%
X191300000Y-106500000D03*
X198700000Y-106500000D03*
%TD*%
D84*
%TO.C,R11*%
X234816637Y-130016637D03*
X235983363Y-131183363D03*
%TD*%
D16*
%TO.C,R80*%
X199900000Y-114275000D03*
X199900000Y-112725000D03*
%TD*%
%TO.C,C29*%
X178500000Y-89175000D03*
X178500000Y-87625000D03*
%TD*%
D24*
%TO.C,R35*%
X103990000Y-132570000D03*
X105010000Y-132570000D03*
%TD*%
D25*
%TO.C,D6*%
X211500000Y-138100000D03*
X211500000Y-142100000D03*
%TD*%
D32*
%TO.C,C51*%
X77225000Y-95929999D03*
X78775000Y-95929999D03*
%TD*%
D26*
%TO.C,C49*%
X80500000Y-96154999D03*
X80500000Y-97704999D03*
%TD*%
D28*
%TO.C,H5*%
X104000000Y-110000000D03*
%TD*%
D26*
%TO.C,R55*%
X120412500Y-109450000D03*
X120412500Y-111000000D03*
%TD*%
D32*
%TO.C,C64*%
X130725000Y-95929999D03*
X132275000Y-95929999D03*
%TD*%
D26*
%TO.C,R5*%
X245000000Y-142425000D03*
X245000000Y-143975000D03*
%TD*%
D67*
%TO.C,C72*%
X143500000Y-89730000D03*
X143500000Y-97130000D03*
%TD*%
D15*
%TO.C,D13*%
X158500000Y-142000000D03*
X162500000Y-142000000D03*
%TD*%
D62*
%TO.C,J24*%
X183100000Y-111500000D03*
D42*
X175900000Y-111500000D03*
%TD*%
D74*
%TO.C,U9*%
X75137500Y-94379999D03*
X75137500Y-93429999D03*
X75137500Y-92479999D03*
X72862500Y-92479999D03*
X72862500Y-94379999D03*
%TD*%
D32*
%TO.C,C86*%
X146725000Y-85929999D03*
X148275000Y-85929999D03*
%TD*%
D18*
%TO.C,R51*%
X126510000Y-87929999D03*
X125490000Y-87929999D03*
%TD*%
D85*
%TO.C,C10*%
X234100000Y-131200000D03*
X233421178Y-130521178D03*
%TD*%
D43*
%TO.C,D4*%
X226087500Y-129400000D03*
X224512500Y-129400000D03*
%TD*%
D51*
%TO.C,R65*%
X68500000Y-133245000D03*
X68500000Y-134895000D03*
%TD*%
D26*
%TO.C,C28*%
X165000000Y-131225000D03*
X165000000Y-132775000D03*
%TD*%
D70*
%TO.C,R73*%
X90675000Y-134570000D03*
X92325000Y-134570000D03*
%TD*%
D45*
%TO.C,J20*%
X123912500Y-113725000D03*
D46*
X123912500Y-111725000D03*
X123912500Y-109725000D03*
X123912500Y-107725000D03*
%TD*%
D32*
%TO.C,C21*%
X146725000Y-126250000D03*
X148275000Y-126250000D03*
%TD*%
D12*
%TO.C,J18*%
X222600000Y-145300000D03*
D13*
X225140000Y-145300000D03*
X222600000Y-147840000D03*
X225140000Y-147840000D03*
%TD*%
D16*
%TO.C,C73*%
X121500000Y-96675000D03*
X121500000Y-95125000D03*
%TD*%
%TO.C,C44*%
X95000000Y-131070000D03*
X95000000Y-129520000D03*
%TD*%
D32*
%TO.C,C39*%
X92725000Y-124570000D03*
X94275000Y-124570000D03*
%TD*%
D26*
%TO.C,C69*%
X137500000Y-89429999D03*
X137500000Y-90979999D03*
%TD*%
D22*
%TO.C,L6*%
X73000000Y-132420000D03*
X73000000Y-128720000D03*
%TD*%
D83*
%TO.C,R45*%
X69000000Y-85467499D03*
X69000000Y-91392499D03*
%TD*%
D14*
%TO.C,R89*%
X131600000Y-110310000D03*
X131600000Y-109290000D03*
%TD*%
D19*
%TO.C,R13*%
X229200000Y-129290000D03*
X229200000Y-130310000D03*
%TD*%
D26*
%TO.C,C48*%
X83200000Y-107755000D03*
X83200000Y-109305000D03*
%TD*%
D15*
%TO.C,D2*%
X242200000Y-131500000D03*
X246200000Y-131500000D03*
%TD*%
D37*
%TO.C,D29*%
X154499999Y-98680000D03*
X154499999Y-94680000D03*
%TD*%
D86*
%TO.C,FB1*%
X244462500Y-134600000D03*
X242337500Y-134600000D03*
%TD*%
D29*
%TO.C,Q9*%
X94000000Y-154500000D03*
D87*
X91460000Y-137840000D03*
D88*
X94000000Y-137840000D03*
X96540000Y-137840000D03*
%TD*%
D29*
%TO.C,Q4*%
X137000000Y-154430000D03*
D87*
X134460000Y-137770000D03*
D88*
X137000000Y-137770000D03*
X139540000Y-137770000D03*
%TD*%
D29*
%TO.C,Q8*%
X83000000Y-154500000D03*
D87*
X80460000Y-137840000D03*
D88*
X83000000Y-137840000D03*
X85540000Y-137840000D03*
%TD*%
D29*
%TO.C,Q6*%
X159000000Y-154430000D03*
D87*
X156460000Y-137770000D03*
D88*
X159000000Y-137770000D03*
X161540000Y-137770000D03*
%TD*%
D29*
%TO.C,Q11*%
X105000000Y-65930001D03*
D87*
X107540000Y-82590001D03*
D88*
X105000000Y-82590001D03*
X102460000Y-82590001D03*
%TD*%
D29*
%TO.C,Q14*%
X72000000Y-66000000D03*
D87*
X74540000Y-82660000D03*
D88*
X72000000Y-82660000D03*
X69460000Y-82660000D03*
%TD*%
D29*
%TO.C,Q13*%
X83000000Y-66000000D03*
D87*
X85540000Y-82660000D03*
D88*
X83000000Y-82660000D03*
X80460000Y-82660000D03*
%TD*%
D29*
%TO.C,Q7*%
X72000000Y-154570000D03*
D87*
X69460000Y-137910000D03*
D88*
X72000000Y-137910000D03*
X74540000Y-137910000D03*
%TD*%
D29*
%TO.C,Q15*%
X158500000Y-65930001D03*
D87*
X161040000Y-82590001D03*
D88*
X158500000Y-82590001D03*
X155960000Y-82590001D03*
%TD*%
D29*
%TO.C,Q10*%
X105000000Y-154500000D03*
D87*
X102460000Y-137840000D03*
D88*
X105000000Y-137840000D03*
X107540000Y-137840000D03*
%TD*%
D29*
%TO.C,Q18*%
X125500000Y-66000000D03*
D87*
X128040000Y-82660000D03*
D88*
X125500000Y-82660000D03*
X122960000Y-82660000D03*
%TD*%
D29*
%TO.C,Q3*%
X126000000Y-154500000D03*
D87*
X123460000Y-137840000D03*
D88*
X126000000Y-137840000D03*
X128540000Y-137840000D03*
%TD*%
D29*
%TO.C,Q16*%
X147500000Y-66000000D03*
D87*
X150040000Y-82660000D03*
D88*
X147500000Y-82660000D03*
X144960000Y-82660000D03*
%TD*%
D29*
%TO.C,Q5*%
X148000000Y-154430000D03*
D87*
X145460000Y-137770000D03*
D88*
X148000000Y-137770000D03*
X150540000Y-137770000D03*
%TD*%
D29*
%TO.C,Q12*%
X94000000Y-66000000D03*
D87*
X96540000Y-82660000D03*
D88*
X94000000Y-82660000D03*
X91460000Y-82660000D03*
%TD*%
D29*
%TO.C,Q17*%
X136500000Y-66000000D03*
D87*
X139040000Y-82660000D03*
D88*
X136500000Y-82660000D03*
X133960000Y-82660000D03*
%TD*%
M02*
