M48
; DRILL file {KiCad 9.0.1} date 2025-04-06T02:55:30+0200
; FORMAT={-:-/ absolute / metric / decimal}
; #@! TF.CreationDate,2025-04-06T02:55:30+02:00
; #@! TF.GenerationSoftware,Kicad,Pcbnew,9.0.1
; #@! TF.FileFunction,Plated,1,4,PTH
FMAT,2
METRIC
; #@! TA.AperFunction,Plated,PTH,ViaDrill
T1C0.300
; #@! TA.AperFunction,Plated,PTH,ComponentDrill
T2C0.300
; #@! TA.AperFunction,Plated,PTH,ViaDrill
T3C0.400
; #@! TA.AperFunction,Plated,PTH,ViaDrill
T4C0.600
; #@! TA.AperFunction,Plated,PTH,ComponentDrill
T5C0.600
; #@! TA.AperFunction,Plated,PTH,ComponentDrill
T6C0.750
; #@! TA.AperFunction,Plated,PTH,ComponentDrill
T7C1.000
; #@! TA.AperFunction,Plated,PTH,ComponentDrill
T8C1.100
; #@! TA.AperFunction,Plated,PTH,ComponentDrill
T9C1.700
; #@! TA.AperFunction,Plated,PTH,ComponentDrill
T10C1.800
; #@! TA.AperFunction,Plated,PTH,ComponentDrill
T11C4.500
; #@! TA.AperFunction,Plated,PTH,ComponentDrill
T12C6.000
%
G90
G05
T1
X68.5Y-131.57
X68.5Y-132.32
X75.5Y-98.33
X75.5Y-98.93
X78.1Y-91.53
X78.1Y-92.13
X78.1Y-98.33
X78.1Y-98.93
X79.3Y-92.13
X79.3Y-95.03
X79.4Y-98.33
X79.4Y-98.93
X79.5Y-135.995
X80.2Y-135.97
X82.725Y-95.03
X83.175Y-99.03
X83.2Y-98.43
X84.6Y-84.43
X84.6Y-85.03
X92.4Y-135.47
X92.4Y-136.07
X93.8Y-122.07
X93.825Y-121.47
X94.275Y-125.47
X96.8Y-84.53
X97.5Y-84.505
X97.6Y-121.57
X97.6Y-122.17
X97.7Y-125.47
X97.7Y-128.37
X98.9Y-121.57
X98.9Y-122.17
X98.9Y-128.37
X98.9Y-128.97
X101.5Y-121.57
X101.5Y-122.17
X108.5Y-88.18
X108.5Y-88.93
X122.5Y-131.5
X122.5Y-132.25
X129.0Y-98.33
X129.0Y-98.93
X131.6Y-91.53
X131.6Y-92.13
X131.6Y-98.33
X131.6Y-98.93
X132.8Y-92.13
X132.8Y-95.03
X132.9Y-98.33
X132.9Y-98.93
X133.5Y-135.925
X134.2Y-135.9
X136.225Y-95.03
X136.675Y-99.03
X136.7Y-98.43
X138.1Y-84.43
X138.1Y-85.03
X146.4Y-135.4
X146.4Y-136.0
X147.8Y-122.0
X147.825Y-121.4
X148.275Y-125.4
X150.3Y-84.53
X151.0Y-84.505
X151.6Y-121.5
X151.6Y-122.1
X151.7Y-125.4
X151.7Y-128.3
X152.9Y-121.5
X152.9Y-122.1
X152.9Y-128.3
X152.9Y-128.9
X155.5Y-121.5
X155.5Y-122.1
X162.0Y-88.18
X162.0Y-88.93
T2
X182.8Y-86.6
X182.8Y-87.7
X182.8Y-89.0
X182.8Y-90.2
X184.0Y-86.6
X184.0Y-87.7
X184.0Y-89.0
X184.0Y-90.2
T3
X57.5Y-62.5
X57.5Y-67.5
X57.5Y-72.5
X57.5Y-77.5
X57.5Y-82.5
X57.5Y-87.5
X57.5Y-92.5
X57.5Y-95.0
X57.5Y-97.5
X57.5Y-102.5
X57.5Y-107.5
X57.5Y-117.5
X57.5Y-122.5
X57.5Y-127.5
X57.5Y-132.5
X57.5Y-137.5
X57.5Y-142.5
X57.5Y-147.5
X57.5Y-155.0
X60.0Y-92.5
X65.0Y-89.2
X66.9Y-134.2
X69.4Y-96.0
X71.8Y-97.4
X72.1Y-120.3
X73.0Y-102.8
X73.0Y-122.0
X74.0Y-93.4
X77.0Y-109.7
X77.96Y-106.96
X78.4Y-109.7
X79.365Y-107.0
X79.5Y-111.1
X81.9Y-104.0
X81.9Y-106.8
X82.0Y-92.0
X82.2Y-108.7
X84.0Y-92.0
X84.2Y-109.3
X84.84Y-107.06
X85.5Y-109.5
X92.0Y-111.7
X92.06Y-113.34
X92.6Y-111.2
X93.0Y-128.6
X95.0Y-128.5
X95.6Y-110.4
X96.5Y-125.3
X96.7Y-108.3
X97.635Y-113.5
X98.0Y-110.5
X99.0Y-110.5
X99.0Y-113.5
X103.0Y-97.2
X103.0Y-127.1
X104.0Y-98.2
X104.7Y-123.4
X105.5Y-113.9
X106.3Y-99.6
X106.3Y-123.5
X109.0Y-123.1
X118.2Y-118.6
X122.3Y-96.7
X125.7Y-97.0
X126.1Y-120.2
X126.5Y-99.6
X127.0Y-122.0
X127.5Y-93.5
X131.6Y-108.1
X131.6Y-111.0
X132.8Y-108.1
X132.8Y-111.0
X133.8Y-111.6
X134.0Y-94.8
X135.5Y-92.0
X137.5Y-92.0
X138.35Y-107.15
X146.145Y-113.355
X147.0Y-128.5
X149.0Y-128.5
X150.5Y-125.3
X151.635Y-113.5
X153.005Y-113.505
X156.5Y-96.8
X156.6Y-98.8
X156.9Y-126.1
X156.9Y-127.0
X157.9Y-124.5
X158.1Y-121.3
X161.3Y-93.6
X165.0Y-137.5
X170.0Y-157.5
X175.0Y-157.5
X177.8Y-103.3
X179.4Y-87.7
X180.0Y-72.5
X180.0Y-157.5
X181.5Y-150.2
X181.6Y-134.6
X181.7Y-137.9
X181.7Y-141.3
X181.7Y-145.2
X184.0Y-99.6
X184.7Y-99.6
X185.0Y-62.5
X185.2Y-145.3
X185.4Y-99.6
X186.8Y-134.8
X187.5Y-157.5
X190.1Y-88.0
X190.1Y-89.5
X190.2Y-86.5
X190.3Y-83.4
X190.4Y-80.0
X190.5Y-72.0
X191.6Y-84.45
X191.9Y-80.1
X192.0Y-73.0
X192.4Y-82.2
X192.5Y-62.5
X192.5Y-157.5
X193.4Y-80.1
X193.5Y-74.0
X194.6Y-86.0
X194.9Y-80.1
X195.0Y-75.0
X196.2Y-91.0
X196.4Y-80.1
X196.5Y-76.0
X196.9Y-119.3
X196.9Y-120.15
X196.9Y-121.0
X196.9Y-121.9
X197.5Y-94.9
X197.5Y-104.4
X197.5Y-108.6
X197.5Y-157.5
X198.0Y-80.1
X198.2Y-94.9
X198.2Y-104.4
X198.2Y-108.6
X199.2Y-94.9
X199.2Y-104.4
X199.2Y-108.6
X199.381Y-75.881
X199.5Y-80.1
X199.9Y-94.9
X199.9Y-104.4
X199.9Y-108.6
X200.0Y-62.5
X200.5Y-76.0
X200.7Y-103.3
X201.0Y-80.1
X201.651Y-76.151
X201.8Y-95.7
X201.8Y-96.4
X201.8Y-97.1
X201.8Y-97.8
X201.9Y-102.5
X203.1Y-101.7
X203.1Y-107.8
X203.2Y-76.8
X203.2Y-84.9
X203.2Y-87.5
X203.2Y-95.6
X203.2Y-110.5
X203.2Y-127.4
X203.2Y-129.9
X203.2Y-132.3
X203.2Y-134.8
X203.2Y-137.5
X203.2Y-139.9
X203.2Y-142.6
X203.3Y-79.7
X203.3Y-82.3
X203.3Y-89.9
X203.3Y-92.4
X203.3Y-113.4
X203.3Y-115.5
X203.3Y-118.0
X205.0Y-157.5
X206.0Y-147.0
X206.74Y-78.8
X207.5Y-62.5
X208.0Y-149.0
X210.0Y-151.0
X210.0Y-157.5
X212.0Y-153.0
X213.5Y-79.5
X213.5Y-85.3
X213.6Y-97.1
X213.6Y-103.5
X214.0Y-155.0
X215.0Y-62.5
X215.4Y-96.3
X216.0Y-157.0
X217.6Y-145.3
X218.0Y-85.5
X218.6Y-121.8
X218.9Y-82.0
X218.9Y-138.8
X219.0Y-159.0
X219.1Y-122.6
X219.5Y-130.5
X219.5Y-131.6
X219.6Y-123.4
X219.7Y-98.6
X220.1Y-124.2
X220.3Y-77.2
X220.8Y-98.8
X220.9Y-86.3
X220.9Y-94.5
X221.0Y-84.0
X221.0Y-88.0
X221.0Y-92.0
X221.4Y-142.4
X221.6Y-134.3
X221.9Y-121.6
X222.5Y-62.5
X222.5Y-71.5
X222.5Y-132.9
X222.5Y-157.5
X222.7Y-79.4
X222.8Y-98.8
X222.8Y-136.7
X223.5Y-80.2
X223.8Y-148.7
X224.9Y-102.5
X225.1Y-121.6
X225.3Y-116.7
X225.4Y-95.0
X225.7Y-100.2
X225.9Y-139.5
X226.0Y-104.3
X226.6Y-95.8
X226.8Y-135.6
X227.1Y-98.6
X227.35Y-85.45
X227.4Y-139.2
X227.5Y-121.5
X227.5Y-157.5
X227.85Y-80.55
X228.0Y-95.0
X228.1Y-86.1
X228.3Y-101.8
X228.5Y-134.2
X228.5Y-135.6
X228.5Y-137.3
X228.5Y-139.7
X228.9Y-86.8
X229.0Y-89.0
X229.6Y-90.9
X229.6Y-92.8
X229.6Y-94.5
X229.7Y-87.5
X230.0Y-62.5
X230.1Y-121.5
X230.2Y-135.6
X230.3Y-95.3
X230.4Y-130.5
X230.452Y-132.7
X230.5Y-88.2
X230.7Y-118.3
X230.8Y-89.8
X230.8Y-90.65
X231.0Y-92.8
X231.0Y-146.0
X231.3Y-89.0
X231.8Y-93.6
X231.996Y-139.704
X232.354Y-137.446
X232.5Y-130.5
X232.5Y-157.5
X232.7Y-121.5
X232.7Y-135.5
X233.153Y-140.805
X233.2Y-94.5
X233.42Y-118.3
X233.9Y-132.3
X234.0Y-139.0
X234.0Y-146.0
X234.9Y-131.1
X235.0Y-71.0
X235.0Y-78.0
X235.0Y-80.6
X235.0Y-82.9
X235.0Y-146.0
X235.2Y-121.5
X235.3Y-138.7
X236.1Y-84.0
X236.4Y-91.8
X236.6Y-93.9
X236.8Y-132.5
X237.0Y-101.9
X237.0Y-107.6
X237.0Y-139.025
X237.0Y-140.875
X237.4Y-89.0
X237.5Y-62.5
X237.5Y-93.8
X237.5Y-157.5
X237.7Y-121.5
X237.8Y-98.1
X238.8Y-91.8
X239.6Y-94.5
X240.3Y-100.7
X240.3Y-108.8
X240.3Y-121.5
X240.3Y-131.6
X240.5Y-71.0
X240.6Y-93.8
X240.8Y-89.5
X241.0Y-77.0
X241.0Y-82.0
X241.2Y-134.2
X241.4Y-119.9
X241.9Y-146.2
X242.0Y-119.1
X242.5Y-157.5
X242.6Y-100.7
X242.7Y-108.8
X244.0Y-121.4
X244.4Y-131.5
X245.0Y-62.5
X245.8Y-140.4
X246.0Y-139.0
X246.2Y-133.4
X246.3Y-136.3
X246.3Y-137.4
X246.4Y-142.3
X246.4Y-143.3
X246.8Y-124.9
X247.0Y-77.0
X247.0Y-80.0
X247.5Y-157.5
X247.8Y-134.0
X248.0Y-146.0
X252.0Y-134.0
X252.0Y-146.0
X252.5Y-62.5
X252.5Y-67.5
X252.5Y-72.5
X252.5Y-77.5
X252.5Y-82.5
X252.5Y-87.5
X252.5Y-92.5
X252.5Y-97.5
X252.5Y-102.5
X252.5Y-107.5
X252.5Y-112.5
X252.5Y-117.5
X252.5Y-122.5
X252.5Y-127.5
X252.5Y-132.5
X252.5Y-147.5
X252.5Y-152.5
X252.5Y-157.5
T4
X67.8Y-92.6
X69.0Y-92.6
X70.1Y-92.6
X85.1Y-123.6
X85.1Y-124.6
X88.0Y-96.0
X88.0Y-97.2
X88.9Y-123.5
X88.9Y-124.6
X91.9Y-96.0
X91.9Y-97.2
X106.9Y-127.9
X108.0Y-127.9
X109.2Y-127.9
X121.3Y-92.6
X122.5Y-92.6
X123.6Y-92.6
X139.1Y-123.4
X139.1Y-124.5
X141.6Y-95.9
X141.6Y-97.1
X142.9Y-123.4
X142.9Y-124.5
X145.4Y-96.0
X145.4Y-97.1
X160.9Y-127.7
X162.0Y-127.7
X163.2Y-127.7
X181.8Y-66.2
X181.8Y-70.2
X183.1Y-66.2
X183.1Y-70.2
X185.0Y-81.7
X186.9Y-104.6
X186.9Y-105.7
X186.9Y-106.8
X187.9Y-80.1
X187.9Y-105.1
X187.9Y-106.2
X194.3Y-99.7
X195.4Y-99.7
X215.7Y-98.8
X223.0Y-94.7
T6
X60.4Y-107.5
X60.4Y-109.5
X60.4Y-111.5
X60.4Y-113.5
X69.45Y-107.5
X69.45Y-109.5
X69.45Y-111.5
X69.45Y-113.5
X114.5Y-107.725
X114.5Y-109.725
X114.5Y-111.725
X114.5Y-113.725
X123.912Y-107.725
X123.912Y-109.725
X123.912Y-111.725
X123.912Y-113.725
T7
X197.9Y-66.0
X197.9Y-68.54
X200.44Y-66.0
X200.44Y-68.54
X202.98Y-66.0
X202.98Y-68.54
X205.0Y-78.46
X205.0Y-81.0
X205.0Y-83.54
X205.0Y-86.08
X205.0Y-88.62
X205.0Y-91.16
X205.0Y-93.7
X205.0Y-96.24
X205.0Y-101.46
X205.0Y-104.0
X205.0Y-106.54
X205.0Y-109.08
X205.0Y-111.62
X205.0Y-114.16
X205.0Y-116.7
X205.0Y-119.24
X205.0Y-126.0
X205.0Y-128.54
X205.0Y-131.08
X205.0Y-133.62
X205.0Y-136.16
X205.0Y-138.7
X205.0Y-141.24
X205.0Y-143.78
X205.52Y-66.0
X205.52Y-68.54
X208.06Y-66.0
X208.06Y-68.54
X210.6Y-66.0
X210.6Y-68.54
X213.14Y-66.0
X213.14Y-68.54
X215.2Y-137.375
X215.2Y-139.915
X215.2Y-142.455
X215.68Y-66.0
X215.68Y-68.54
X217.74Y-137.375
X217.74Y-139.915
X217.74Y-142.455
X218.22Y-66.0
X218.22Y-68.54
X220.76Y-66.0
X220.76Y-68.54
X222.6Y-145.3
X222.6Y-147.84
X223.3Y-66.0
X223.3Y-68.54
X225.14Y-145.3
X225.14Y-147.84
X225.84Y-66.0
X225.84Y-68.54
X227.22Y-125.0
X227.92Y-106.8
X227.92Y-109.34
X228.38Y-66.0
X228.38Y-68.54
X229.76Y-125.0
X230.46Y-106.8
X230.46Y-109.34
X230.92Y-66.0
X230.92Y-68.54
X232.3Y-125.0
X233.0Y-106.8
X233.0Y-109.34
X233.46Y-66.0
X233.46Y-68.54
X234.84Y-125.0
X236.0Y-66.0
X236.0Y-68.54
X237.38Y-125.0
X238.54Y-66.0
X238.54Y-68.54
X239.92Y-125.0
X241.08Y-66.0
X241.08Y-68.54
X242.46Y-125.0
X245.0Y-125.0
X250.0Y-75.0
X250.0Y-77.54
X250.0Y-80.08
X250.0Y-82.62
X250.0Y-85.16
X250.0Y-87.7
X250.0Y-90.24
X250.0Y-92.78
X250.0Y-97.0
X250.0Y-99.54
X250.0Y-102.08
X250.0Y-104.62
X250.0Y-107.16
X250.0Y-109.7
X250.0Y-112.24
X250.0Y-114.78
X250.0Y-117.32
X250.0Y-119.86
T8
X69.46Y-82.66
X69.46Y-137.91
X72.0Y-82.66
X72.0Y-137.91
X74.54Y-82.66
X74.54Y-137.91
X80.46Y-82.66
X80.46Y-137.84
X83.0Y-82.66
X83.0Y-137.84
X85.54Y-82.66
X85.54Y-137.84
X91.46Y-82.66
X91.46Y-137.84
X94.0Y-82.66
X94.0Y-137.84
X96.54Y-82.66
X96.54Y-137.84
X102.46Y-82.59
X102.46Y-137.84
X105.0Y-82.59
X105.0Y-137.84
X107.54Y-82.59
X107.54Y-137.84
X122.96Y-82.66
X123.46Y-137.84
X125.5Y-82.66
X126.0Y-137.84
X128.04Y-82.66
X128.54Y-137.84
X133.96Y-82.66
X134.46Y-137.77
X136.5Y-82.66
X137.0Y-137.77
X139.04Y-82.66
X139.54Y-137.77
X144.96Y-82.66
X145.46Y-137.77
X147.5Y-82.66
X148.0Y-137.77
X150.04Y-82.66
X150.54Y-137.77
X155.96Y-82.59
X156.46Y-137.77
X158.5Y-82.59
X159.0Y-137.77
X161.04Y-82.59
X161.54Y-137.77
T9
X59.0Y-153.0
X64.0Y-153.0
X113.0Y-67.5
X113.022Y-153.05
X118.0Y-67.5
X118.022Y-153.05
X166.5Y-67.5
X171.5Y-67.5
T10
X62.0Y-122.32
X62.0Y-143.82
X115.0Y-76.68
X115.0Y-98.18
X116.0Y-122.25
X116.0Y-143.75
X168.5Y-76.68
X168.5Y-98.18
X175.5Y-131.25
X175.5Y-152.75
T11
X174.9Y-121.5
X175.9Y-111.5
X182.1Y-121.5
X183.1Y-111.5
X187.4Y-140.0
X194.6Y-140.0
T12
X187.9Y-152.0
X200.1Y-152.0
T5
G00X247.325Y-135.63
M15
G01X248.425Y-135.63
M16
G05
G00X247.325Y-144.27
M15
G01X248.425Y-144.27
M16
G05
G00X251.655Y-135.63
M15
G01X252.455Y-135.63
M16
G05
G00X251.655Y-144.27
M15
G01X252.455Y-144.27
M16
G05
M30
