%TF.GenerationSoftware,KiCad,Pcbnew,9.0.1*%
%TF.CreationDate,2025-04-06T02:54:57+02:00*%
%TF.ProjectId,controller_mainboard,636f6e74-726f-46c6-9c65-725f6d61696e,rev?*%
%TF.SameCoordinates,Original*%
%TF.FileFunction,Legend,Bot*%
%TF.FilePolarity,Positive*%
%FSLAX46Y46*%
G04 Gerber Fmt 4.6, Leading zero omitted, Abs format (unit mm)*
G04 Created by KiCad (PCBNEW 9.0.1) date 2025-04-06 02:54:57*
%MOMM*%
%LPD*%
G01*
G04 APERTURE LIST*
%ADD10C,0.150000*%
%ADD11C,0.120000*%
%ADD12C,0.000000*%
G04 APERTURE END LIST*
D10*
X129835363Y-123891792D02*
X129787744Y-123939411D01*
X129787744Y-123939411D02*
X129740124Y-124082268D01*
X129740124Y-124082268D02*
X129740124Y-124177506D01*
X129740124Y-124177506D02*
X129787744Y-124320363D01*
X129787744Y-124320363D02*
X129882982Y-124415601D01*
X129882982Y-124415601D02*
X129978220Y-124463220D01*
X129978220Y-124463220D02*
X130168696Y-124510839D01*
X130168696Y-124510839D02*
X130311553Y-124510839D01*
X130311553Y-124510839D02*
X130502029Y-124463220D01*
X130502029Y-124463220D02*
X130597267Y-124415601D01*
X130597267Y-124415601D02*
X130692505Y-124320363D01*
X130692505Y-124320363D02*
X130740124Y-124177506D01*
X130740124Y-124177506D02*
X130740124Y-124082268D01*
X130740124Y-124082268D02*
X130692505Y-123939411D01*
X130692505Y-123939411D02*
X130644886Y-123891792D01*
X129740124Y-123320363D02*
X129787744Y-123415601D01*
X129787744Y-123415601D02*
X129835363Y-123463220D01*
X129835363Y-123463220D02*
X129930601Y-123510839D01*
X129930601Y-123510839D02*
X130216315Y-123510839D01*
X130216315Y-123510839D02*
X130311553Y-123463220D01*
X130311553Y-123463220D02*
X130359172Y-123415601D01*
X130359172Y-123415601D02*
X130406791Y-123320363D01*
X130406791Y-123320363D02*
X130406791Y-123177506D01*
X130406791Y-123177506D02*
X130359172Y-123082268D01*
X130359172Y-123082268D02*
X130311553Y-123034649D01*
X130311553Y-123034649D02*
X130216315Y-122987030D01*
X130216315Y-122987030D02*
X129930601Y-122987030D01*
X129930601Y-122987030D02*
X129835363Y-123034649D01*
X129835363Y-123034649D02*
X129787744Y-123082268D01*
X129787744Y-123082268D02*
X129740124Y-123177506D01*
X129740124Y-123177506D02*
X129740124Y-123320363D01*
X130406791Y-122558458D02*
X129406791Y-122558458D01*
X130359172Y-122558458D02*
X130406791Y-122463220D01*
X130406791Y-122463220D02*
X130406791Y-122272744D01*
X130406791Y-122272744D02*
X130359172Y-122177506D01*
X130359172Y-122177506D02*
X130311553Y-122129887D01*
X130311553Y-122129887D02*
X130216315Y-122082268D01*
X130216315Y-122082268D02*
X129930601Y-122082268D01*
X129930601Y-122082268D02*
X129835363Y-122129887D01*
X129835363Y-122129887D02*
X129787744Y-122177506D01*
X129787744Y-122177506D02*
X129740124Y-122272744D01*
X129740124Y-122272744D02*
X129740124Y-122463220D01*
X129740124Y-122463220D02*
X129787744Y-122558458D01*
X130406791Y-121748934D02*
X129740124Y-121510839D01*
X130406791Y-121272744D02*
X129740124Y-121510839D01*
X129740124Y-121510839D02*
X129502029Y-121606077D01*
X129502029Y-121606077D02*
X129454410Y-121653696D01*
X129454410Y-121653696D02*
X129406791Y-121748934D01*
X129740124Y-120891791D02*
X130406791Y-120891791D01*
X130216315Y-120891791D02*
X130311553Y-120844172D01*
X130311553Y-120844172D02*
X130359172Y-120796553D01*
X130359172Y-120796553D02*
X130406791Y-120701315D01*
X130406791Y-120701315D02*
X130406791Y-120606077D01*
X129740124Y-120272743D02*
X130406791Y-120272743D01*
X130740124Y-120272743D02*
X130692505Y-120320362D01*
X130692505Y-120320362D02*
X130644886Y-120272743D01*
X130644886Y-120272743D02*
X130692505Y-120225124D01*
X130692505Y-120225124D02*
X130740124Y-120272743D01*
X130740124Y-120272743D02*
X130644886Y-120272743D01*
X130406791Y-119367982D02*
X129597267Y-119367982D01*
X129597267Y-119367982D02*
X129502029Y-119415601D01*
X129502029Y-119415601D02*
X129454410Y-119463220D01*
X129454410Y-119463220D02*
X129406791Y-119558458D01*
X129406791Y-119558458D02*
X129406791Y-119701315D01*
X129406791Y-119701315D02*
X129454410Y-119796553D01*
X129787744Y-119367982D02*
X129740124Y-119463220D01*
X129740124Y-119463220D02*
X129740124Y-119653696D01*
X129740124Y-119653696D02*
X129787744Y-119748934D01*
X129787744Y-119748934D02*
X129835363Y-119796553D01*
X129835363Y-119796553D02*
X129930601Y-119844172D01*
X129930601Y-119844172D02*
X130216315Y-119844172D01*
X130216315Y-119844172D02*
X130311553Y-119796553D01*
X130311553Y-119796553D02*
X130359172Y-119748934D01*
X130359172Y-119748934D02*
X130406791Y-119653696D01*
X130406791Y-119653696D02*
X130406791Y-119463220D01*
X130406791Y-119463220D02*
X130359172Y-119367982D01*
X129740124Y-118891791D02*
X130740124Y-118891791D01*
X129740124Y-118463220D02*
X130263934Y-118463220D01*
X130263934Y-118463220D02*
X130359172Y-118510839D01*
X130359172Y-118510839D02*
X130406791Y-118606077D01*
X130406791Y-118606077D02*
X130406791Y-118748934D01*
X130406791Y-118748934D02*
X130359172Y-118844172D01*
X130359172Y-118844172D02*
X130311553Y-118891791D01*
X130406791Y-118129886D02*
X130406791Y-117748934D01*
X130740124Y-117987029D02*
X129882982Y-117987029D01*
X129882982Y-117987029D02*
X129787744Y-117939410D01*
X129787744Y-117939410D02*
X129740124Y-117844172D01*
X129740124Y-117844172D02*
X129740124Y-117748934D01*
X130502029Y-115844171D02*
X130549648Y-115939410D01*
X130549648Y-115939410D02*
X130549648Y-116129886D01*
X130549648Y-116129886D02*
X130502029Y-116225124D01*
X130502029Y-116225124D02*
X130406791Y-116320362D01*
X130406791Y-116320362D02*
X130311553Y-116367981D01*
X130311553Y-116367981D02*
X130121077Y-116367981D01*
X130121077Y-116367981D02*
X130025839Y-116320362D01*
X130025839Y-116320362D02*
X129930601Y-116225124D01*
X129930601Y-116225124D02*
X129882982Y-116129886D01*
X129882982Y-116129886D02*
X129882982Y-115939410D01*
X129882982Y-115939410D02*
X129930601Y-115844171D01*
X130882982Y-116034648D02*
X130835363Y-116272743D01*
X130835363Y-116272743D02*
X130692505Y-116510838D01*
X130692505Y-116510838D02*
X130454410Y-116653695D01*
X130454410Y-116653695D02*
X130216315Y-116701314D01*
X130216315Y-116701314D02*
X129978220Y-116653695D01*
X129978220Y-116653695D02*
X129740124Y-116510838D01*
X129740124Y-116510838D02*
X129597267Y-116272743D01*
X129597267Y-116272743D02*
X129549648Y-116034648D01*
X129549648Y-116034648D02*
X129597267Y-115796552D01*
X129597267Y-115796552D02*
X129740124Y-115558457D01*
X129740124Y-115558457D02*
X129978220Y-115415600D01*
X129978220Y-115415600D02*
X130216315Y-115367981D01*
X130216315Y-115367981D02*
X130454410Y-115415600D01*
X130454410Y-115415600D02*
X130692505Y-115558457D01*
X130692505Y-115558457D02*
X130835363Y-115796552D01*
X130835363Y-115796552D02*
X130882982Y-116034648D01*
X129740124Y-114177504D02*
X130740124Y-114177504D01*
X130740124Y-114177504D02*
X130025839Y-113844171D01*
X130025839Y-113844171D02*
X130740124Y-113510838D01*
X130740124Y-113510838D02*
X129740124Y-113510838D01*
X129787744Y-112653695D02*
X129740124Y-112748933D01*
X129740124Y-112748933D02*
X129740124Y-112939409D01*
X129740124Y-112939409D02*
X129787744Y-113034647D01*
X129787744Y-113034647D02*
X129882982Y-113082266D01*
X129882982Y-113082266D02*
X130263934Y-113082266D01*
X130263934Y-113082266D02*
X130359172Y-113034647D01*
X130359172Y-113034647D02*
X130406791Y-112939409D01*
X130406791Y-112939409D02*
X130406791Y-112748933D01*
X130406791Y-112748933D02*
X130359172Y-112653695D01*
X130359172Y-112653695D02*
X130263934Y-112606076D01*
X130263934Y-112606076D02*
X130168696Y-112606076D01*
X130168696Y-112606076D02*
X130073458Y-113082266D01*
X130406791Y-112320361D02*
X130406791Y-111939409D01*
X130740124Y-112177504D02*
X129882982Y-112177504D01*
X129882982Y-112177504D02*
X129787744Y-112129885D01*
X129787744Y-112129885D02*
X129740124Y-112034647D01*
X129740124Y-112034647D02*
X129740124Y-111939409D01*
X129787744Y-111225123D02*
X129740124Y-111320361D01*
X129740124Y-111320361D02*
X129740124Y-111510837D01*
X129740124Y-111510837D02*
X129787744Y-111606075D01*
X129787744Y-111606075D02*
X129882982Y-111653694D01*
X129882982Y-111653694D02*
X130263934Y-111653694D01*
X130263934Y-111653694D02*
X130359172Y-111606075D01*
X130359172Y-111606075D02*
X130406791Y-111510837D01*
X130406791Y-111510837D02*
X130406791Y-111320361D01*
X130406791Y-111320361D02*
X130359172Y-111225123D01*
X130359172Y-111225123D02*
X130263934Y-111177504D01*
X130263934Y-111177504D02*
X130168696Y-111177504D01*
X130168696Y-111177504D02*
X130073458Y-111653694D01*
X129740124Y-109987027D02*
X130740124Y-109987027D01*
X130263934Y-109987027D02*
X130263934Y-109415599D01*
X129740124Y-109415599D02*
X130740124Y-109415599D01*
X129740124Y-108510837D02*
X130263934Y-108510837D01*
X130263934Y-108510837D02*
X130359172Y-108558456D01*
X130359172Y-108558456D02*
X130406791Y-108653694D01*
X130406791Y-108653694D02*
X130406791Y-108844170D01*
X130406791Y-108844170D02*
X130359172Y-108939408D01*
X129787744Y-108510837D02*
X129740124Y-108606075D01*
X129740124Y-108606075D02*
X129740124Y-108844170D01*
X129740124Y-108844170D02*
X129787744Y-108939408D01*
X129787744Y-108939408D02*
X129882982Y-108987027D01*
X129882982Y-108987027D02*
X129978220Y-108987027D01*
X129978220Y-108987027D02*
X130073458Y-108939408D01*
X130073458Y-108939408D02*
X130121077Y-108844170D01*
X130121077Y-108844170D02*
X130121077Y-108606075D01*
X130121077Y-108606075D02*
X130168696Y-108510837D01*
X130406791Y-108034646D02*
X129740124Y-108034646D01*
X130311553Y-108034646D02*
X130359172Y-107987027D01*
X130359172Y-107987027D02*
X130406791Y-107891789D01*
X130406791Y-107891789D02*
X130406791Y-107748932D01*
X130406791Y-107748932D02*
X130359172Y-107653694D01*
X130359172Y-107653694D02*
X130263934Y-107606075D01*
X130263934Y-107606075D02*
X129740124Y-107606075D01*
X129740124Y-106367979D02*
X130740124Y-106367979D01*
X129740124Y-105796551D02*
X130311553Y-106225122D01*
X130740124Y-105796551D02*
X130168696Y-106367979D01*
X129787744Y-104987027D02*
X129740124Y-105082265D01*
X129740124Y-105082265D02*
X129740124Y-105272741D01*
X129740124Y-105272741D02*
X129787744Y-105367979D01*
X129787744Y-105367979D02*
X129882982Y-105415598D01*
X129882982Y-105415598D02*
X130263934Y-105415598D01*
X130263934Y-105415598D02*
X130359172Y-105367979D01*
X130359172Y-105367979D02*
X130406791Y-105272741D01*
X130406791Y-105272741D02*
X130406791Y-105082265D01*
X130406791Y-105082265D02*
X130359172Y-104987027D01*
X130359172Y-104987027D02*
X130263934Y-104939408D01*
X130263934Y-104939408D02*
X130168696Y-104939408D01*
X130168696Y-104939408D02*
X130073458Y-105415598D01*
X129787744Y-104558455D02*
X129740124Y-104463217D01*
X129740124Y-104463217D02*
X129740124Y-104272741D01*
X129740124Y-104272741D02*
X129787744Y-104177503D01*
X129787744Y-104177503D02*
X129882982Y-104129884D01*
X129882982Y-104129884D02*
X129930601Y-104129884D01*
X129930601Y-104129884D02*
X130025839Y-104177503D01*
X130025839Y-104177503D02*
X130073458Y-104272741D01*
X130073458Y-104272741D02*
X130073458Y-104415598D01*
X130073458Y-104415598D02*
X130121077Y-104510836D01*
X130121077Y-104510836D02*
X130216315Y-104558455D01*
X130216315Y-104558455D02*
X130263934Y-104558455D01*
X130263934Y-104558455D02*
X130359172Y-104510836D01*
X130359172Y-104510836D02*
X130406791Y-104415598D01*
X130406791Y-104415598D02*
X130406791Y-104272741D01*
X130406791Y-104272741D02*
X130359172Y-104177503D01*
X129740124Y-103701312D02*
X130740124Y-103701312D01*
X130121077Y-103606074D02*
X129740124Y-103320360D01*
X130406791Y-103320360D02*
X130025839Y-103701312D01*
X129740124Y-102891788D02*
X130406791Y-102891788D01*
X130740124Y-102891788D02*
X130692505Y-102939407D01*
X130692505Y-102939407D02*
X130644886Y-102891788D01*
X130644886Y-102891788D02*
X130692505Y-102844169D01*
X130692505Y-102844169D02*
X130740124Y-102891788D01*
X130740124Y-102891788D02*
X130644886Y-102891788D01*
X130406791Y-102415598D02*
X129740124Y-102415598D01*
X130311553Y-102415598D02*
X130359172Y-102367979D01*
X130359172Y-102367979D02*
X130406791Y-102272741D01*
X130406791Y-102272741D02*
X130406791Y-102129884D01*
X130406791Y-102129884D02*
X130359172Y-102034646D01*
X130359172Y-102034646D02*
X130263934Y-101987027D01*
X130263934Y-101987027D02*
X129740124Y-101987027D01*
X129787744Y-101463217D02*
X129740124Y-101463217D01*
X129740124Y-101463217D02*
X129644886Y-101510836D01*
X129644886Y-101510836D02*
X129597267Y-101558455D01*
X130644886Y-100320360D02*
X130692505Y-100272741D01*
X130692505Y-100272741D02*
X130740124Y-100177503D01*
X130740124Y-100177503D02*
X130740124Y-99939408D01*
X130740124Y-99939408D02*
X130692505Y-99844170D01*
X130692505Y-99844170D02*
X130644886Y-99796551D01*
X130644886Y-99796551D02*
X130549648Y-99748932D01*
X130549648Y-99748932D02*
X130454410Y-99748932D01*
X130454410Y-99748932D02*
X130311553Y-99796551D01*
X130311553Y-99796551D02*
X129740124Y-100367979D01*
X129740124Y-100367979D02*
X129740124Y-99748932D01*
X130740124Y-99129884D02*
X130740124Y-99034646D01*
X130740124Y-99034646D02*
X130692505Y-98939408D01*
X130692505Y-98939408D02*
X130644886Y-98891789D01*
X130644886Y-98891789D02*
X130549648Y-98844170D01*
X130549648Y-98844170D02*
X130359172Y-98796551D01*
X130359172Y-98796551D02*
X130121077Y-98796551D01*
X130121077Y-98796551D02*
X129930601Y-98844170D01*
X129930601Y-98844170D02*
X129835363Y-98891789D01*
X129835363Y-98891789D02*
X129787744Y-98939408D01*
X129787744Y-98939408D02*
X129740124Y-99034646D01*
X129740124Y-99034646D02*
X129740124Y-99129884D01*
X129740124Y-99129884D02*
X129787744Y-99225122D01*
X129787744Y-99225122D02*
X129835363Y-99272741D01*
X129835363Y-99272741D02*
X129930601Y-99320360D01*
X129930601Y-99320360D02*
X130121077Y-99367979D01*
X130121077Y-99367979D02*
X130359172Y-99367979D01*
X130359172Y-99367979D02*
X130549648Y-99320360D01*
X130549648Y-99320360D02*
X130644886Y-99272741D01*
X130644886Y-99272741D02*
X130692505Y-99225122D01*
X130692505Y-99225122D02*
X130740124Y-99129884D01*
X130644886Y-98415598D02*
X130692505Y-98367979D01*
X130692505Y-98367979D02*
X130740124Y-98272741D01*
X130740124Y-98272741D02*
X130740124Y-98034646D01*
X130740124Y-98034646D02*
X130692505Y-97939408D01*
X130692505Y-97939408D02*
X130644886Y-97891789D01*
X130644886Y-97891789D02*
X130549648Y-97844170D01*
X130549648Y-97844170D02*
X130454410Y-97844170D01*
X130454410Y-97844170D02*
X130311553Y-97891789D01*
X130311553Y-97891789D02*
X129740124Y-98463217D01*
X129740124Y-98463217D02*
X129740124Y-97844170D01*
X130740124Y-96939408D02*
X130740124Y-97415598D01*
X130740124Y-97415598D02*
X130263934Y-97463217D01*
X130263934Y-97463217D02*
X130311553Y-97415598D01*
X130311553Y-97415598D02*
X130359172Y-97320360D01*
X130359172Y-97320360D02*
X130359172Y-97082265D01*
X130359172Y-97082265D02*
X130311553Y-96987027D01*
X130311553Y-96987027D02*
X130263934Y-96939408D01*
X130263934Y-96939408D02*
X130168696Y-96891789D01*
X130168696Y-96891789D02*
X129930601Y-96891789D01*
X129930601Y-96891789D02*
X129835363Y-96939408D01*
X129835363Y-96939408D02*
X129787744Y-96987027D01*
X129787744Y-96987027D02*
X129740124Y-97082265D01*
X129740124Y-97082265D02*
X129740124Y-97320360D01*
X129740124Y-97320360D02*
X129787744Y-97415598D01*
X129787744Y-97415598D02*
X129835363Y-97463217D01*
X128130180Y-124463220D02*
X129130180Y-124463220D01*
X129130180Y-124463220D02*
X128415895Y-124129887D01*
X128415895Y-124129887D02*
X129130180Y-123796554D01*
X129130180Y-123796554D02*
X128130180Y-123796554D01*
X128130180Y-123320363D02*
X129130180Y-123320363D01*
X129130180Y-122987030D02*
X129130180Y-122415602D01*
X128130180Y-122701316D02*
X129130180Y-122701316D01*
X128130180Y-120844173D02*
X128130180Y-121320363D01*
X128130180Y-121320363D02*
X129130180Y-121320363D01*
X128130180Y-120510839D02*
X128796847Y-120510839D01*
X129130180Y-120510839D02*
X129082561Y-120558458D01*
X129082561Y-120558458D02*
X129034942Y-120510839D01*
X129034942Y-120510839D02*
X129082561Y-120463220D01*
X129082561Y-120463220D02*
X129130180Y-120510839D01*
X129130180Y-120510839D02*
X129034942Y-120510839D01*
X128177800Y-119606078D02*
X128130180Y-119701316D01*
X128130180Y-119701316D02*
X128130180Y-119891792D01*
X128130180Y-119891792D02*
X128177800Y-119987030D01*
X128177800Y-119987030D02*
X128225419Y-120034649D01*
X128225419Y-120034649D02*
X128320657Y-120082268D01*
X128320657Y-120082268D02*
X128606371Y-120082268D01*
X128606371Y-120082268D02*
X128701609Y-120034649D01*
X128701609Y-120034649D02*
X128749228Y-119987030D01*
X128749228Y-119987030D02*
X128796847Y-119891792D01*
X128796847Y-119891792D02*
X128796847Y-119701316D01*
X128796847Y-119701316D02*
X128749228Y-119606078D01*
X128177800Y-118796554D02*
X128130180Y-118891792D01*
X128130180Y-118891792D02*
X128130180Y-119082268D01*
X128130180Y-119082268D02*
X128177800Y-119177506D01*
X128177800Y-119177506D02*
X128273038Y-119225125D01*
X128273038Y-119225125D02*
X128653990Y-119225125D01*
X128653990Y-119225125D02*
X128749228Y-119177506D01*
X128749228Y-119177506D02*
X128796847Y-119082268D01*
X128796847Y-119082268D02*
X128796847Y-118891792D01*
X128796847Y-118891792D02*
X128749228Y-118796554D01*
X128749228Y-118796554D02*
X128653990Y-118748935D01*
X128653990Y-118748935D02*
X128558752Y-118748935D01*
X128558752Y-118748935D02*
X128463514Y-119225125D01*
X128796847Y-118320363D02*
X128130180Y-118320363D01*
X128701609Y-118320363D02*
X128749228Y-118272744D01*
X128749228Y-118272744D02*
X128796847Y-118177506D01*
X128796847Y-118177506D02*
X128796847Y-118034649D01*
X128796847Y-118034649D02*
X128749228Y-117939411D01*
X128749228Y-117939411D02*
X128653990Y-117891792D01*
X128653990Y-117891792D02*
X128130180Y-117891792D01*
X128177800Y-117463220D02*
X128130180Y-117367982D01*
X128130180Y-117367982D02*
X128130180Y-117177506D01*
X128130180Y-117177506D02*
X128177800Y-117082268D01*
X128177800Y-117082268D02*
X128273038Y-117034649D01*
X128273038Y-117034649D02*
X128320657Y-117034649D01*
X128320657Y-117034649D02*
X128415895Y-117082268D01*
X128415895Y-117082268D02*
X128463514Y-117177506D01*
X128463514Y-117177506D02*
X128463514Y-117320363D01*
X128463514Y-117320363D02*
X128511133Y-117415601D01*
X128511133Y-117415601D02*
X128606371Y-117463220D01*
X128606371Y-117463220D02*
X128653990Y-117463220D01*
X128653990Y-117463220D02*
X128749228Y-117415601D01*
X128749228Y-117415601D02*
X128796847Y-117320363D01*
X128796847Y-117320363D02*
X128796847Y-117177506D01*
X128796847Y-117177506D02*
X128749228Y-117082268D01*
X128177800Y-116225125D02*
X128130180Y-116320363D01*
X128130180Y-116320363D02*
X128130180Y-116510839D01*
X128130180Y-116510839D02*
X128177800Y-116606077D01*
X128177800Y-116606077D02*
X128273038Y-116653696D01*
X128273038Y-116653696D02*
X128653990Y-116653696D01*
X128653990Y-116653696D02*
X128749228Y-116606077D01*
X128749228Y-116606077D02*
X128796847Y-116510839D01*
X128796847Y-116510839D02*
X128796847Y-116320363D01*
X128796847Y-116320363D02*
X128749228Y-116225125D01*
X128749228Y-116225125D02*
X128653990Y-116177506D01*
X128653990Y-116177506D02*
X128558752Y-116177506D01*
X128558752Y-116177506D02*
X128463514Y-116653696D01*
X94095238Y-158970057D02*
X94190476Y-158922438D01*
X94190476Y-158922438D02*
X94285714Y-158827200D01*
X94285714Y-158827200D02*
X94428571Y-158684342D01*
X94428571Y-158684342D02*
X94523809Y-158636723D01*
X94523809Y-158636723D02*
X94619047Y-158636723D01*
X94571428Y-158874819D02*
X94666666Y-158827200D01*
X94666666Y-158827200D02*
X94761904Y-158731961D01*
X94761904Y-158731961D02*
X94809523Y-158541485D01*
X94809523Y-158541485D02*
X94809523Y-158208152D01*
X94809523Y-158208152D02*
X94761904Y-158017676D01*
X94761904Y-158017676D02*
X94666666Y-157922438D01*
X94666666Y-157922438D02*
X94571428Y-157874819D01*
X94571428Y-157874819D02*
X94380952Y-157874819D01*
X94380952Y-157874819D02*
X94285714Y-157922438D01*
X94285714Y-157922438D02*
X94190476Y-158017676D01*
X94190476Y-158017676D02*
X94142857Y-158208152D01*
X94142857Y-158208152D02*
X94142857Y-158541485D01*
X94142857Y-158541485D02*
X94190476Y-158731961D01*
X94190476Y-158731961D02*
X94285714Y-158827200D01*
X94285714Y-158827200D02*
X94380952Y-158874819D01*
X94380952Y-158874819D02*
X94571428Y-158874819D01*
X93666666Y-158874819D02*
X93476190Y-158874819D01*
X93476190Y-158874819D02*
X93380952Y-158827200D01*
X93380952Y-158827200D02*
X93333333Y-158779580D01*
X93333333Y-158779580D02*
X93238095Y-158636723D01*
X93238095Y-158636723D02*
X93190476Y-158446247D01*
X93190476Y-158446247D02*
X93190476Y-158065295D01*
X93190476Y-158065295D02*
X93238095Y-157970057D01*
X93238095Y-157970057D02*
X93285714Y-157922438D01*
X93285714Y-157922438D02*
X93380952Y-157874819D01*
X93380952Y-157874819D02*
X93571428Y-157874819D01*
X93571428Y-157874819D02*
X93666666Y-157922438D01*
X93666666Y-157922438D02*
X93714285Y-157970057D01*
X93714285Y-157970057D02*
X93761904Y-158065295D01*
X93761904Y-158065295D02*
X93761904Y-158303390D01*
X93761904Y-158303390D02*
X93714285Y-158398628D01*
X93714285Y-158398628D02*
X93666666Y-158446247D01*
X93666666Y-158446247D02*
X93571428Y-158493866D01*
X93571428Y-158493866D02*
X93380952Y-158493866D01*
X93380952Y-158493866D02*
X93285714Y-158446247D01*
X93285714Y-158446247D02*
X93238095Y-158398628D01*
X93238095Y-158398628D02*
X93190476Y-158303390D01*
X137095238Y-158900057D02*
X137190476Y-158852438D01*
X137190476Y-158852438D02*
X137285714Y-158757200D01*
X137285714Y-158757200D02*
X137428571Y-158614342D01*
X137428571Y-158614342D02*
X137523809Y-158566723D01*
X137523809Y-158566723D02*
X137619047Y-158566723D01*
X137571428Y-158804819D02*
X137666666Y-158757200D01*
X137666666Y-158757200D02*
X137761904Y-158661961D01*
X137761904Y-158661961D02*
X137809523Y-158471485D01*
X137809523Y-158471485D02*
X137809523Y-158138152D01*
X137809523Y-158138152D02*
X137761904Y-157947676D01*
X137761904Y-157947676D02*
X137666666Y-157852438D01*
X137666666Y-157852438D02*
X137571428Y-157804819D01*
X137571428Y-157804819D02*
X137380952Y-157804819D01*
X137380952Y-157804819D02*
X137285714Y-157852438D01*
X137285714Y-157852438D02*
X137190476Y-157947676D01*
X137190476Y-157947676D02*
X137142857Y-158138152D01*
X137142857Y-158138152D02*
X137142857Y-158471485D01*
X137142857Y-158471485D02*
X137190476Y-158661961D01*
X137190476Y-158661961D02*
X137285714Y-158757200D01*
X137285714Y-158757200D02*
X137380952Y-158804819D01*
X137380952Y-158804819D02*
X137571428Y-158804819D01*
X136285714Y-158138152D02*
X136285714Y-158804819D01*
X136523809Y-157757200D02*
X136761904Y-158471485D01*
X136761904Y-158471485D02*
X136142857Y-158471485D01*
X83095238Y-158970057D02*
X83190476Y-158922438D01*
X83190476Y-158922438D02*
X83285714Y-158827200D01*
X83285714Y-158827200D02*
X83428571Y-158684342D01*
X83428571Y-158684342D02*
X83523809Y-158636723D01*
X83523809Y-158636723D02*
X83619047Y-158636723D01*
X83571428Y-158874819D02*
X83666666Y-158827200D01*
X83666666Y-158827200D02*
X83761904Y-158731961D01*
X83761904Y-158731961D02*
X83809523Y-158541485D01*
X83809523Y-158541485D02*
X83809523Y-158208152D01*
X83809523Y-158208152D02*
X83761904Y-158017676D01*
X83761904Y-158017676D02*
X83666666Y-157922438D01*
X83666666Y-157922438D02*
X83571428Y-157874819D01*
X83571428Y-157874819D02*
X83380952Y-157874819D01*
X83380952Y-157874819D02*
X83285714Y-157922438D01*
X83285714Y-157922438D02*
X83190476Y-158017676D01*
X83190476Y-158017676D02*
X83142857Y-158208152D01*
X83142857Y-158208152D02*
X83142857Y-158541485D01*
X83142857Y-158541485D02*
X83190476Y-158731961D01*
X83190476Y-158731961D02*
X83285714Y-158827200D01*
X83285714Y-158827200D02*
X83380952Y-158874819D01*
X83380952Y-158874819D02*
X83571428Y-158874819D01*
X82571428Y-158303390D02*
X82666666Y-158255771D01*
X82666666Y-158255771D02*
X82714285Y-158208152D01*
X82714285Y-158208152D02*
X82761904Y-158112914D01*
X82761904Y-158112914D02*
X82761904Y-158065295D01*
X82761904Y-158065295D02*
X82714285Y-157970057D01*
X82714285Y-157970057D02*
X82666666Y-157922438D01*
X82666666Y-157922438D02*
X82571428Y-157874819D01*
X82571428Y-157874819D02*
X82380952Y-157874819D01*
X82380952Y-157874819D02*
X82285714Y-157922438D01*
X82285714Y-157922438D02*
X82238095Y-157970057D01*
X82238095Y-157970057D02*
X82190476Y-158065295D01*
X82190476Y-158065295D02*
X82190476Y-158112914D01*
X82190476Y-158112914D02*
X82238095Y-158208152D01*
X82238095Y-158208152D02*
X82285714Y-158255771D01*
X82285714Y-158255771D02*
X82380952Y-158303390D01*
X82380952Y-158303390D02*
X82571428Y-158303390D01*
X82571428Y-158303390D02*
X82666666Y-158351009D01*
X82666666Y-158351009D02*
X82714285Y-158398628D01*
X82714285Y-158398628D02*
X82761904Y-158493866D01*
X82761904Y-158493866D02*
X82761904Y-158684342D01*
X82761904Y-158684342D02*
X82714285Y-158779580D01*
X82714285Y-158779580D02*
X82666666Y-158827200D01*
X82666666Y-158827200D02*
X82571428Y-158874819D01*
X82571428Y-158874819D02*
X82380952Y-158874819D01*
X82380952Y-158874819D02*
X82285714Y-158827200D01*
X82285714Y-158827200D02*
X82238095Y-158779580D01*
X82238095Y-158779580D02*
X82190476Y-158684342D01*
X82190476Y-158684342D02*
X82190476Y-158493866D01*
X82190476Y-158493866D02*
X82238095Y-158398628D01*
X82238095Y-158398628D02*
X82285714Y-158351009D01*
X82285714Y-158351009D02*
X82380952Y-158303390D01*
X159095238Y-158900057D02*
X159190476Y-158852438D01*
X159190476Y-158852438D02*
X159285714Y-158757200D01*
X159285714Y-158757200D02*
X159428571Y-158614342D01*
X159428571Y-158614342D02*
X159523809Y-158566723D01*
X159523809Y-158566723D02*
X159619047Y-158566723D01*
X159571428Y-158804819D02*
X159666666Y-158757200D01*
X159666666Y-158757200D02*
X159761904Y-158661961D01*
X159761904Y-158661961D02*
X159809523Y-158471485D01*
X159809523Y-158471485D02*
X159809523Y-158138152D01*
X159809523Y-158138152D02*
X159761904Y-157947676D01*
X159761904Y-157947676D02*
X159666666Y-157852438D01*
X159666666Y-157852438D02*
X159571428Y-157804819D01*
X159571428Y-157804819D02*
X159380952Y-157804819D01*
X159380952Y-157804819D02*
X159285714Y-157852438D01*
X159285714Y-157852438D02*
X159190476Y-157947676D01*
X159190476Y-157947676D02*
X159142857Y-158138152D01*
X159142857Y-158138152D02*
X159142857Y-158471485D01*
X159142857Y-158471485D02*
X159190476Y-158661961D01*
X159190476Y-158661961D02*
X159285714Y-158757200D01*
X159285714Y-158757200D02*
X159380952Y-158804819D01*
X159380952Y-158804819D02*
X159571428Y-158804819D01*
X158285714Y-157804819D02*
X158476190Y-157804819D01*
X158476190Y-157804819D02*
X158571428Y-157852438D01*
X158571428Y-157852438D02*
X158619047Y-157900057D01*
X158619047Y-157900057D02*
X158714285Y-158042914D01*
X158714285Y-158042914D02*
X158761904Y-158233390D01*
X158761904Y-158233390D02*
X158761904Y-158614342D01*
X158761904Y-158614342D02*
X158714285Y-158709580D01*
X158714285Y-158709580D02*
X158666666Y-158757200D01*
X158666666Y-158757200D02*
X158571428Y-158804819D01*
X158571428Y-158804819D02*
X158380952Y-158804819D01*
X158380952Y-158804819D02*
X158285714Y-158757200D01*
X158285714Y-158757200D02*
X158238095Y-158709580D01*
X158238095Y-158709580D02*
X158190476Y-158614342D01*
X158190476Y-158614342D02*
X158190476Y-158376247D01*
X158190476Y-158376247D02*
X158238095Y-158281009D01*
X158238095Y-158281009D02*
X158285714Y-158233390D01*
X158285714Y-158233390D02*
X158380952Y-158185771D01*
X158380952Y-158185771D02*
X158571428Y-158185771D01*
X158571428Y-158185771D02*
X158666666Y-158233390D01*
X158666666Y-158233390D02*
X158714285Y-158281009D01*
X158714285Y-158281009D02*
X158761904Y-158376247D01*
X105571429Y-62560058D02*
X105666667Y-62512439D01*
X105666667Y-62512439D02*
X105761905Y-62417201D01*
X105761905Y-62417201D02*
X105904762Y-62274343D01*
X105904762Y-62274343D02*
X106000000Y-62226724D01*
X106000000Y-62226724D02*
X106095238Y-62226724D01*
X106047619Y-62464820D02*
X106142857Y-62417201D01*
X106142857Y-62417201D02*
X106238095Y-62321962D01*
X106238095Y-62321962D02*
X106285714Y-62131486D01*
X106285714Y-62131486D02*
X106285714Y-61798153D01*
X106285714Y-61798153D02*
X106238095Y-61607677D01*
X106238095Y-61607677D02*
X106142857Y-61512439D01*
X106142857Y-61512439D02*
X106047619Y-61464820D01*
X106047619Y-61464820D02*
X105857143Y-61464820D01*
X105857143Y-61464820D02*
X105761905Y-61512439D01*
X105761905Y-61512439D02*
X105666667Y-61607677D01*
X105666667Y-61607677D02*
X105619048Y-61798153D01*
X105619048Y-61798153D02*
X105619048Y-62131486D01*
X105619048Y-62131486D02*
X105666667Y-62321962D01*
X105666667Y-62321962D02*
X105761905Y-62417201D01*
X105761905Y-62417201D02*
X105857143Y-62464820D01*
X105857143Y-62464820D02*
X106047619Y-62464820D01*
X104666667Y-62464820D02*
X105238095Y-62464820D01*
X104952381Y-62464820D02*
X104952381Y-61464820D01*
X104952381Y-61464820D02*
X105047619Y-61607677D01*
X105047619Y-61607677D02*
X105142857Y-61702915D01*
X105142857Y-61702915D02*
X105238095Y-61750534D01*
X103714286Y-62464820D02*
X104285714Y-62464820D01*
X104000000Y-62464820D02*
X104000000Y-61464820D01*
X104000000Y-61464820D02*
X104095238Y-61607677D01*
X104095238Y-61607677D02*
X104190476Y-61702915D01*
X104190476Y-61702915D02*
X104285714Y-61750534D01*
X72571429Y-62630057D02*
X72666667Y-62582438D01*
X72666667Y-62582438D02*
X72761905Y-62487200D01*
X72761905Y-62487200D02*
X72904762Y-62344342D01*
X72904762Y-62344342D02*
X73000000Y-62296723D01*
X73000000Y-62296723D02*
X73095238Y-62296723D01*
X73047619Y-62534819D02*
X73142857Y-62487200D01*
X73142857Y-62487200D02*
X73238095Y-62391961D01*
X73238095Y-62391961D02*
X73285714Y-62201485D01*
X73285714Y-62201485D02*
X73285714Y-61868152D01*
X73285714Y-61868152D02*
X73238095Y-61677676D01*
X73238095Y-61677676D02*
X73142857Y-61582438D01*
X73142857Y-61582438D02*
X73047619Y-61534819D01*
X73047619Y-61534819D02*
X72857143Y-61534819D01*
X72857143Y-61534819D02*
X72761905Y-61582438D01*
X72761905Y-61582438D02*
X72666667Y-61677676D01*
X72666667Y-61677676D02*
X72619048Y-61868152D01*
X72619048Y-61868152D02*
X72619048Y-62201485D01*
X72619048Y-62201485D02*
X72666667Y-62391961D01*
X72666667Y-62391961D02*
X72761905Y-62487200D01*
X72761905Y-62487200D02*
X72857143Y-62534819D01*
X72857143Y-62534819D02*
X73047619Y-62534819D01*
X71666667Y-62534819D02*
X72238095Y-62534819D01*
X71952381Y-62534819D02*
X71952381Y-61534819D01*
X71952381Y-61534819D02*
X72047619Y-61677676D01*
X72047619Y-61677676D02*
X72142857Y-61772914D01*
X72142857Y-61772914D02*
X72238095Y-61820533D01*
X70809524Y-61868152D02*
X70809524Y-62534819D01*
X71047619Y-61487200D02*
X71285714Y-62201485D01*
X71285714Y-62201485D02*
X70666667Y-62201485D01*
X83571429Y-62630057D02*
X83666667Y-62582438D01*
X83666667Y-62582438D02*
X83761905Y-62487200D01*
X83761905Y-62487200D02*
X83904762Y-62344342D01*
X83904762Y-62344342D02*
X84000000Y-62296723D01*
X84000000Y-62296723D02*
X84095238Y-62296723D01*
X84047619Y-62534819D02*
X84142857Y-62487200D01*
X84142857Y-62487200D02*
X84238095Y-62391961D01*
X84238095Y-62391961D02*
X84285714Y-62201485D01*
X84285714Y-62201485D02*
X84285714Y-61868152D01*
X84285714Y-61868152D02*
X84238095Y-61677676D01*
X84238095Y-61677676D02*
X84142857Y-61582438D01*
X84142857Y-61582438D02*
X84047619Y-61534819D01*
X84047619Y-61534819D02*
X83857143Y-61534819D01*
X83857143Y-61534819D02*
X83761905Y-61582438D01*
X83761905Y-61582438D02*
X83666667Y-61677676D01*
X83666667Y-61677676D02*
X83619048Y-61868152D01*
X83619048Y-61868152D02*
X83619048Y-62201485D01*
X83619048Y-62201485D02*
X83666667Y-62391961D01*
X83666667Y-62391961D02*
X83761905Y-62487200D01*
X83761905Y-62487200D02*
X83857143Y-62534819D01*
X83857143Y-62534819D02*
X84047619Y-62534819D01*
X82666667Y-62534819D02*
X83238095Y-62534819D01*
X82952381Y-62534819D02*
X82952381Y-61534819D01*
X82952381Y-61534819D02*
X83047619Y-61677676D01*
X83047619Y-61677676D02*
X83142857Y-61772914D01*
X83142857Y-61772914D02*
X83238095Y-61820533D01*
X82333333Y-61534819D02*
X81714286Y-61534819D01*
X81714286Y-61534819D02*
X82047619Y-61915771D01*
X82047619Y-61915771D02*
X81904762Y-61915771D01*
X81904762Y-61915771D02*
X81809524Y-61963390D01*
X81809524Y-61963390D02*
X81761905Y-62011009D01*
X81761905Y-62011009D02*
X81714286Y-62106247D01*
X81714286Y-62106247D02*
X81714286Y-62344342D01*
X81714286Y-62344342D02*
X81761905Y-62439580D01*
X81761905Y-62439580D02*
X81809524Y-62487200D01*
X81809524Y-62487200D02*
X81904762Y-62534819D01*
X81904762Y-62534819D02*
X82190476Y-62534819D01*
X82190476Y-62534819D02*
X82285714Y-62487200D01*
X82285714Y-62487200D02*
X82333333Y-62439580D01*
X72095238Y-159040057D02*
X72190476Y-158992438D01*
X72190476Y-158992438D02*
X72285714Y-158897200D01*
X72285714Y-158897200D02*
X72428571Y-158754342D01*
X72428571Y-158754342D02*
X72523809Y-158706723D01*
X72523809Y-158706723D02*
X72619047Y-158706723D01*
X72571428Y-158944819D02*
X72666666Y-158897200D01*
X72666666Y-158897200D02*
X72761904Y-158801961D01*
X72761904Y-158801961D02*
X72809523Y-158611485D01*
X72809523Y-158611485D02*
X72809523Y-158278152D01*
X72809523Y-158278152D02*
X72761904Y-158087676D01*
X72761904Y-158087676D02*
X72666666Y-157992438D01*
X72666666Y-157992438D02*
X72571428Y-157944819D01*
X72571428Y-157944819D02*
X72380952Y-157944819D01*
X72380952Y-157944819D02*
X72285714Y-157992438D01*
X72285714Y-157992438D02*
X72190476Y-158087676D01*
X72190476Y-158087676D02*
X72142857Y-158278152D01*
X72142857Y-158278152D02*
X72142857Y-158611485D01*
X72142857Y-158611485D02*
X72190476Y-158801961D01*
X72190476Y-158801961D02*
X72285714Y-158897200D01*
X72285714Y-158897200D02*
X72380952Y-158944819D01*
X72380952Y-158944819D02*
X72571428Y-158944819D01*
X71809523Y-157944819D02*
X71142857Y-157944819D01*
X71142857Y-157944819D02*
X71571428Y-158944819D01*
X159071429Y-62560058D02*
X159166667Y-62512439D01*
X159166667Y-62512439D02*
X159261905Y-62417201D01*
X159261905Y-62417201D02*
X159404762Y-62274343D01*
X159404762Y-62274343D02*
X159500000Y-62226724D01*
X159500000Y-62226724D02*
X159595238Y-62226724D01*
X159547619Y-62464820D02*
X159642857Y-62417201D01*
X159642857Y-62417201D02*
X159738095Y-62321962D01*
X159738095Y-62321962D02*
X159785714Y-62131486D01*
X159785714Y-62131486D02*
X159785714Y-61798153D01*
X159785714Y-61798153D02*
X159738095Y-61607677D01*
X159738095Y-61607677D02*
X159642857Y-61512439D01*
X159642857Y-61512439D02*
X159547619Y-61464820D01*
X159547619Y-61464820D02*
X159357143Y-61464820D01*
X159357143Y-61464820D02*
X159261905Y-61512439D01*
X159261905Y-61512439D02*
X159166667Y-61607677D01*
X159166667Y-61607677D02*
X159119048Y-61798153D01*
X159119048Y-61798153D02*
X159119048Y-62131486D01*
X159119048Y-62131486D02*
X159166667Y-62321962D01*
X159166667Y-62321962D02*
X159261905Y-62417201D01*
X159261905Y-62417201D02*
X159357143Y-62464820D01*
X159357143Y-62464820D02*
X159547619Y-62464820D01*
X158166667Y-62464820D02*
X158738095Y-62464820D01*
X158452381Y-62464820D02*
X158452381Y-61464820D01*
X158452381Y-61464820D02*
X158547619Y-61607677D01*
X158547619Y-61607677D02*
X158642857Y-61702915D01*
X158642857Y-61702915D02*
X158738095Y-61750534D01*
X157261905Y-61464820D02*
X157738095Y-61464820D01*
X157738095Y-61464820D02*
X157785714Y-61941010D01*
X157785714Y-61941010D02*
X157738095Y-61893391D01*
X157738095Y-61893391D02*
X157642857Y-61845772D01*
X157642857Y-61845772D02*
X157404762Y-61845772D01*
X157404762Y-61845772D02*
X157309524Y-61893391D01*
X157309524Y-61893391D02*
X157261905Y-61941010D01*
X157261905Y-61941010D02*
X157214286Y-62036248D01*
X157214286Y-62036248D02*
X157214286Y-62274343D01*
X157214286Y-62274343D02*
X157261905Y-62369581D01*
X157261905Y-62369581D02*
X157309524Y-62417201D01*
X157309524Y-62417201D02*
X157404762Y-62464820D01*
X157404762Y-62464820D02*
X157642857Y-62464820D01*
X157642857Y-62464820D02*
X157738095Y-62417201D01*
X157738095Y-62417201D02*
X157785714Y-62369581D01*
X105571428Y-158970057D02*
X105666666Y-158922438D01*
X105666666Y-158922438D02*
X105761904Y-158827200D01*
X105761904Y-158827200D02*
X105904761Y-158684342D01*
X105904761Y-158684342D02*
X105999999Y-158636723D01*
X105999999Y-158636723D02*
X106095237Y-158636723D01*
X106047618Y-158874819D02*
X106142856Y-158827200D01*
X106142856Y-158827200D02*
X106238094Y-158731961D01*
X106238094Y-158731961D02*
X106285713Y-158541485D01*
X106285713Y-158541485D02*
X106285713Y-158208152D01*
X106285713Y-158208152D02*
X106238094Y-158017676D01*
X106238094Y-158017676D02*
X106142856Y-157922438D01*
X106142856Y-157922438D02*
X106047618Y-157874819D01*
X106047618Y-157874819D02*
X105857142Y-157874819D01*
X105857142Y-157874819D02*
X105761904Y-157922438D01*
X105761904Y-157922438D02*
X105666666Y-158017676D01*
X105666666Y-158017676D02*
X105619047Y-158208152D01*
X105619047Y-158208152D02*
X105619047Y-158541485D01*
X105619047Y-158541485D02*
X105666666Y-158731961D01*
X105666666Y-158731961D02*
X105761904Y-158827200D01*
X105761904Y-158827200D02*
X105857142Y-158874819D01*
X105857142Y-158874819D02*
X106047618Y-158874819D01*
X104666666Y-158874819D02*
X105238094Y-158874819D01*
X104952380Y-158874819D02*
X104952380Y-157874819D01*
X104952380Y-157874819D02*
X105047618Y-158017676D01*
X105047618Y-158017676D02*
X105142856Y-158112914D01*
X105142856Y-158112914D02*
X105238094Y-158160533D01*
X104047618Y-157874819D02*
X103952380Y-157874819D01*
X103952380Y-157874819D02*
X103857142Y-157922438D01*
X103857142Y-157922438D02*
X103809523Y-157970057D01*
X103809523Y-157970057D02*
X103761904Y-158065295D01*
X103761904Y-158065295D02*
X103714285Y-158255771D01*
X103714285Y-158255771D02*
X103714285Y-158493866D01*
X103714285Y-158493866D02*
X103761904Y-158684342D01*
X103761904Y-158684342D02*
X103809523Y-158779580D01*
X103809523Y-158779580D02*
X103857142Y-158827200D01*
X103857142Y-158827200D02*
X103952380Y-158874819D01*
X103952380Y-158874819D02*
X104047618Y-158874819D01*
X104047618Y-158874819D02*
X104142856Y-158827200D01*
X104142856Y-158827200D02*
X104190475Y-158779580D01*
X104190475Y-158779580D02*
X104238094Y-158684342D01*
X104238094Y-158684342D02*
X104285713Y-158493866D01*
X104285713Y-158493866D02*
X104285713Y-158255771D01*
X104285713Y-158255771D02*
X104238094Y-158065295D01*
X104238094Y-158065295D02*
X104190475Y-157970057D01*
X104190475Y-157970057D02*
X104142856Y-157922438D01*
X104142856Y-157922438D02*
X104047618Y-157874819D01*
X126071429Y-62630057D02*
X126166667Y-62582438D01*
X126166667Y-62582438D02*
X126261905Y-62487200D01*
X126261905Y-62487200D02*
X126404762Y-62344342D01*
X126404762Y-62344342D02*
X126500000Y-62296723D01*
X126500000Y-62296723D02*
X126595238Y-62296723D01*
X126547619Y-62534819D02*
X126642857Y-62487200D01*
X126642857Y-62487200D02*
X126738095Y-62391961D01*
X126738095Y-62391961D02*
X126785714Y-62201485D01*
X126785714Y-62201485D02*
X126785714Y-61868152D01*
X126785714Y-61868152D02*
X126738095Y-61677676D01*
X126738095Y-61677676D02*
X126642857Y-61582438D01*
X126642857Y-61582438D02*
X126547619Y-61534819D01*
X126547619Y-61534819D02*
X126357143Y-61534819D01*
X126357143Y-61534819D02*
X126261905Y-61582438D01*
X126261905Y-61582438D02*
X126166667Y-61677676D01*
X126166667Y-61677676D02*
X126119048Y-61868152D01*
X126119048Y-61868152D02*
X126119048Y-62201485D01*
X126119048Y-62201485D02*
X126166667Y-62391961D01*
X126166667Y-62391961D02*
X126261905Y-62487200D01*
X126261905Y-62487200D02*
X126357143Y-62534819D01*
X126357143Y-62534819D02*
X126547619Y-62534819D01*
X125166667Y-62534819D02*
X125738095Y-62534819D01*
X125452381Y-62534819D02*
X125452381Y-61534819D01*
X125452381Y-61534819D02*
X125547619Y-61677676D01*
X125547619Y-61677676D02*
X125642857Y-61772914D01*
X125642857Y-61772914D02*
X125738095Y-61820533D01*
X124595238Y-61963390D02*
X124690476Y-61915771D01*
X124690476Y-61915771D02*
X124738095Y-61868152D01*
X124738095Y-61868152D02*
X124785714Y-61772914D01*
X124785714Y-61772914D02*
X124785714Y-61725295D01*
X124785714Y-61725295D02*
X124738095Y-61630057D01*
X124738095Y-61630057D02*
X124690476Y-61582438D01*
X124690476Y-61582438D02*
X124595238Y-61534819D01*
X124595238Y-61534819D02*
X124404762Y-61534819D01*
X124404762Y-61534819D02*
X124309524Y-61582438D01*
X124309524Y-61582438D02*
X124261905Y-61630057D01*
X124261905Y-61630057D02*
X124214286Y-61725295D01*
X124214286Y-61725295D02*
X124214286Y-61772914D01*
X124214286Y-61772914D02*
X124261905Y-61868152D01*
X124261905Y-61868152D02*
X124309524Y-61915771D01*
X124309524Y-61915771D02*
X124404762Y-61963390D01*
X124404762Y-61963390D02*
X124595238Y-61963390D01*
X124595238Y-61963390D02*
X124690476Y-62011009D01*
X124690476Y-62011009D02*
X124738095Y-62058628D01*
X124738095Y-62058628D02*
X124785714Y-62153866D01*
X124785714Y-62153866D02*
X124785714Y-62344342D01*
X124785714Y-62344342D02*
X124738095Y-62439580D01*
X124738095Y-62439580D02*
X124690476Y-62487200D01*
X124690476Y-62487200D02*
X124595238Y-62534819D01*
X124595238Y-62534819D02*
X124404762Y-62534819D01*
X124404762Y-62534819D02*
X124309524Y-62487200D01*
X124309524Y-62487200D02*
X124261905Y-62439580D01*
X124261905Y-62439580D02*
X124214286Y-62344342D01*
X124214286Y-62344342D02*
X124214286Y-62153866D01*
X124214286Y-62153866D02*
X124261905Y-62058628D01*
X124261905Y-62058628D02*
X124309524Y-62011009D01*
X124309524Y-62011009D02*
X124404762Y-61963390D01*
X126095238Y-158970057D02*
X126190476Y-158922438D01*
X126190476Y-158922438D02*
X126285714Y-158827200D01*
X126285714Y-158827200D02*
X126428571Y-158684342D01*
X126428571Y-158684342D02*
X126523809Y-158636723D01*
X126523809Y-158636723D02*
X126619047Y-158636723D01*
X126571428Y-158874819D02*
X126666666Y-158827200D01*
X126666666Y-158827200D02*
X126761904Y-158731961D01*
X126761904Y-158731961D02*
X126809523Y-158541485D01*
X126809523Y-158541485D02*
X126809523Y-158208152D01*
X126809523Y-158208152D02*
X126761904Y-158017676D01*
X126761904Y-158017676D02*
X126666666Y-157922438D01*
X126666666Y-157922438D02*
X126571428Y-157874819D01*
X126571428Y-157874819D02*
X126380952Y-157874819D01*
X126380952Y-157874819D02*
X126285714Y-157922438D01*
X126285714Y-157922438D02*
X126190476Y-158017676D01*
X126190476Y-158017676D02*
X126142857Y-158208152D01*
X126142857Y-158208152D02*
X126142857Y-158541485D01*
X126142857Y-158541485D02*
X126190476Y-158731961D01*
X126190476Y-158731961D02*
X126285714Y-158827200D01*
X126285714Y-158827200D02*
X126380952Y-158874819D01*
X126380952Y-158874819D02*
X126571428Y-158874819D01*
X125809523Y-157874819D02*
X125190476Y-157874819D01*
X125190476Y-157874819D02*
X125523809Y-158255771D01*
X125523809Y-158255771D02*
X125380952Y-158255771D01*
X125380952Y-158255771D02*
X125285714Y-158303390D01*
X125285714Y-158303390D02*
X125238095Y-158351009D01*
X125238095Y-158351009D02*
X125190476Y-158446247D01*
X125190476Y-158446247D02*
X125190476Y-158684342D01*
X125190476Y-158684342D02*
X125238095Y-158779580D01*
X125238095Y-158779580D02*
X125285714Y-158827200D01*
X125285714Y-158827200D02*
X125380952Y-158874819D01*
X125380952Y-158874819D02*
X125666666Y-158874819D01*
X125666666Y-158874819D02*
X125761904Y-158827200D01*
X125761904Y-158827200D02*
X125809523Y-158779580D01*
X148071429Y-62630057D02*
X148166667Y-62582438D01*
X148166667Y-62582438D02*
X148261905Y-62487200D01*
X148261905Y-62487200D02*
X148404762Y-62344342D01*
X148404762Y-62344342D02*
X148500000Y-62296723D01*
X148500000Y-62296723D02*
X148595238Y-62296723D01*
X148547619Y-62534819D02*
X148642857Y-62487200D01*
X148642857Y-62487200D02*
X148738095Y-62391961D01*
X148738095Y-62391961D02*
X148785714Y-62201485D01*
X148785714Y-62201485D02*
X148785714Y-61868152D01*
X148785714Y-61868152D02*
X148738095Y-61677676D01*
X148738095Y-61677676D02*
X148642857Y-61582438D01*
X148642857Y-61582438D02*
X148547619Y-61534819D01*
X148547619Y-61534819D02*
X148357143Y-61534819D01*
X148357143Y-61534819D02*
X148261905Y-61582438D01*
X148261905Y-61582438D02*
X148166667Y-61677676D01*
X148166667Y-61677676D02*
X148119048Y-61868152D01*
X148119048Y-61868152D02*
X148119048Y-62201485D01*
X148119048Y-62201485D02*
X148166667Y-62391961D01*
X148166667Y-62391961D02*
X148261905Y-62487200D01*
X148261905Y-62487200D02*
X148357143Y-62534819D01*
X148357143Y-62534819D02*
X148547619Y-62534819D01*
X147166667Y-62534819D02*
X147738095Y-62534819D01*
X147452381Y-62534819D02*
X147452381Y-61534819D01*
X147452381Y-61534819D02*
X147547619Y-61677676D01*
X147547619Y-61677676D02*
X147642857Y-61772914D01*
X147642857Y-61772914D02*
X147738095Y-61820533D01*
X146309524Y-61534819D02*
X146500000Y-61534819D01*
X146500000Y-61534819D02*
X146595238Y-61582438D01*
X146595238Y-61582438D02*
X146642857Y-61630057D01*
X146642857Y-61630057D02*
X146738095Y-61772914D01*
X146738095Y-61772914D02*
X146785714Y-61963390D01*
X146785714Y-61963390D02*
X146785714Y-62344342D01*
X146785714Y-62344342D02*
X146738095Y-62439580D01*
X146738095Y-62439580D02*
X146690476Y-62487200D01*
X146690476Y-62487200D02*
X146595238Y-62534819D01*
X146595238Y-62534819D02*
X146404762Y-62534819D01*
X146404762Y-62534819D02*
X146309524Y-62487200D01*
X146309524Y-62487200D02*
X146261905Y-62439580D01*
X146261905Y-62439580D02*
X146214286Y-62344342D01*
X146214286Y-62344342D02*
X146214286Y-62106247D01*
X146214286Y-62106247D02*
X146261905Y-62011009D01*
X146261905Y-62011009D02*
X146309524Y-61963390D01*
X146309524Y-61963390D02*
X146404762Y-61915771D01*
X146404762Y-61915771D02*
X146595238Y-61915771D01*
X146595238Y-61915771D02*
X146690476Y-61963390D01*
X146690476Y-61963390D02*
X146738095Y-62011009D01*
X146738095Y-62011009D02*
X146785714Y-62106247D01*
X148095238Y-158900057D02*
X148190476Y-158852438D01*
X148190476Y-158852438D02*
X148285714Y-158757200D01*
X148285714Y-158757200D02*
X148428571Y-158614342D01*
X148428571Y-158614342D02*
X148523809Y-158566723D01*
X148523809Y-158566723D02*
X148619047Y-158566723D01*
X148571428Y-158804819D02*
X148666666Y-158757200D01*
X148666666Y-158757200D02*
X148761904Y-158661961D01*
X148761904Y-158661961D02*
X148809523Y-158471485D01*
X148809523Y-158471485D02*
X148809523Y-158138152D01*
X148809523Y-158138152D02*
X148761904Y-157947676D01*
X148761904Y-157947676D02*
X148666666Y-157852438D01*
X148666666Y-157852438D02*
X148571428Y-157804819D01*
X148571428Y-157804819D02*
X148380952Y-157804819D01*
X148380952Y-157804819D02*
X148285714Y-157852438D01*
X148285714Y-157852438D02*
X148190476Y-157947676D01*
X148190476Y-157947676D02*
X148142857Y-158138152D01*
X148142857Y-158138152D02*
X148142857Y-158471485D01*
X148142857Y-158471485D02*
X148190476Y-158661961D01*
X148190476Y-158661961D02*
X148285714Y-158757200D01*
X148285714Y-158757200D02*
X148380952Y-158804819D01*
X148380952Y-158804819D02*
X148571428Y-158804819D01*
X147238095Y-157804819D02*
X147714285Y-157804819D01*
X147714285Y-157804819D02*
X147761904Y-158281009D01*
X147761904Y-158281009D02*
X147714285Y-158233390D01*
X147714285Y-158233390D02*
X147619047Y-158185771D01*
X147619047Y-158185771D02*
X147380952Y-158185771D01*
X147380952Y-158185771D02*
X147285714Y-158233390D01*
X147285714Y-158233390D02*
X147238095Y-158281009D01*
X147238095Y-158281009D02*
X147190476Y-158376247D01*
X147190476Y-158376247D02*
X147190476Y-158614342D01*
X147190476Y-158614342D02*
X147238095Y-158709580D01*
X147238095Y-158709580D02*
X147285714Y-158757200D01*
X147285714Y-158757200D02*
X147380952Y-158804819D01*
X147380952Y-158804819D02*
X147619047Y-158804819D01*
X147619047Y-158804819D02*
X147714285Y-158757200D01*
X147714285Y-158757200D02*
X147761904Y-158709580D01*
X94571429Y-62630057D02*
X94666667Y-62582438D01*
X94666667Y-62582438D02*
X94761905Y-62487200D01*
X94761905Y-62487200D02*
X94904762Y-62344342D01*
X94904762Y-62344342D02*
X95000000Y-62296723D01*
X95000000Y-62296723D02*
X95095238Y-62296723D01*
X95047619Y-62534819D02*
X95142857Y-62487200D01*
X95142857Y-62487200D02*
X95238095Y-62391961D01*
X95238095Y-62391961D02*
X95285714Y-62201485D01*
X95285714Y-62201485D02*
X95285714Y-61868152D01*
X95285714Y-61868152D02*
X95238095Y-61677676D01*
X95238095Y-61677676D02*
X95142857Y-61582438D01*
X95142857Y-61582438D02*
X95047619Y-61534819D01*
X95047619Y-61534819D02*
X94857143Y-61534819D01*
X94857143Y-61534819D02*
X94761905Y-61582438D01*
X94761905Y-61582438D02*
X94666667Y-61677676D01*
X94666667Y-61677676D02*
X94619048Y-61868152D01*
X94619048Y-61868152D02*
X94619048Y-62201485D01*
X94619048Y-62201485D02*
X94666667Y-62391961D01*
X94666667Y-62391961D02*
X94761905Y-62487200D01*
X94761905Y-62487200D02*
X94857143Y-62534819D01*
X94857143Y-62534819D02*
X95047619Y-62534819D01*
X93666667Y-62534819D02*
X94238095Y-62534819D01*
X93952381Y-62534819D02*
X93952381Y-61534819D01*
X93952381Y-61534819D02*
X94047619Y-61677676D01*
X94047619Y-61677676D02*
X94142857Y-61772914D01*
X94142857Y-61772914D02*
X94238095Y-61820533D01*
X93285714Y-61630057D02*
X93238095Y-61582438D01*
X93238095Y-61582438D02*
X93142857Y-61534819D01*
X93142857Y-61534819D02*
X92904762Y-61534819D01*
X92904762Y-61534819D02*
X92809524Y-61582438D01*
X92809524Y-61582438D02*
X92761905Y-61630057D01*
X92761905Y-61630057D02*
X92714286Y-61725295D01*
X92714286Y-61725295D02*
X92714286Y-61820533D01*
X92714286Y-61820533D02*
X92761905Y-61963390D01*
X92761905Y-61963390D02*
X93333333Y-62534819D01*
X93333333Y-62534819D02*
X92714286Y-62534819D01*
X137071429Y-62630057D02*
X137166667Y-62582438D01*
X137166667Y-62582438D02*
X137261905Y-62487200D01*
X137261905Y-62487200D02*
X137404762Y-62344342D01*
X137404762Y-62344342D02*
X137500000Y-62296723D01*
X137500000Y-62296723D02*
X137595238Y-62296723D01*
X137547619Y-62534819D02*
X137642857Y-62487200D01*
X137642857Y-62487200D02*
X137738095Y-62391961D01*
X137738095Y-62391961D02*
X137785714Y-62201485D01*
X137785714Y-62201485D02*
X137785714Y-61868152D01*
X137785714Y-61868152D02*
X137738095Y-61677676D01*
X137738095Y-61677676D02*
X137642857Y-61582438D01*
X137642857Y-61582438D02*
X137547619Y-61534819D01*
X137547619Y-61534819D02*
X137357143Y-61534819D01*
X137357143Y-61534819D02*
X137261905Y-61582438D01*
X137261905Y-61582438D02*
X137166667Y-61677676D01*
X137166667Y-61677676D02*
X137119048Y-61868152D01*
X137119048Y-61868152D02*
X137119048Y-62201485D01*
X137119048Y-62201485D02*
X137166667Y-62391961D01*
X137166667Y-62391961D02*
X137261905Y-62487200D01*
X137261905Y-62487200D02*
X137357143Y-62534819D01*
X137357143Y-62534819D02*
X137547619Y-62534819D01*
X136166667Y-62534819D02*
X136738095Y-62534819D01*
X136452381Y-62534819D02*
X136452381Y-61534819D01*
X136452381Y-61534819D02*
X136547619Y-61677676D01*
X136547619Y-61677676D02*
X136642857Y-61772914D01*
X136642857Y-61772914D02*
X136738095Y-61820533D01*
X135833333Y-61534819D02*
X135166667Y-61534819D01*
X135166667Y-61534819D02*
X135595238Y-62534819D01*
D11*
%TO.C,Q9*%
X88880000Y-157420000D02*
X88880000Y-141530000D01*
X88880000Y-157420000D02*
X99120000Y-157420000D01*
X88880000Y-141530000D02*
X99120000Y-141530000D01*
X91460000Y-141530000D02*
X91460000Y-138990000D01*
X94000000Y-141530000D02*
X94000000Y-138990000D01*
X96540000Y-141530000D02*
X96540000Y-138990000D01*
X99120000Y-157420000D02*
X99120000Y-141530000D01*
%TO.C,Q4*%
X131880000Y-157350000D02*
X131880000Y-141460000D01*
X131880000Y-157350000D02*
X142120000Y-157350000D01*
X131880000Y-141460000D02*
X142120000Y-141460000D01*
X134460000Y-141460000D02*
X134460000Y-138920000D01*
X137000000Y-141460000D02*
X137000000Y-138920000D01*
X139540000Y-141460000D02*
X139540000Y-138920000D01*
X142120000Y-157350000D02*
X142120000Y-141460000D01*
%TO.C,Q8*%
X77880000Y-157420000D02*
X77880000Y-141530000D01*
X77880000Y-157420000D02*
X88120000Y-157420000D01*
X77880000Y-141530000D02*
X88120000Y-141530000D01*
X80460000Y-141530000D02*
X80460000Y-138990000D01*
X83000000Y-141530000D02*
X83000000Y-138990000D01*
X85540000Y-141530000D02*
X85540000Y-138990000D01*
X88120000Y-157420000D02*
X88120000Y-141530000D01*
%TO.C,Q6*%
X153880000Y-157350000D02*
X153880000Y-141460000D01*
X153880000Y-157350000D02*
X164120000Y-157350000D01*
X153880000Y-141460000D02*
X164120000Y-141460000D01*
X156460000Y-141460000D02*
X156460000Y-138920000D01*
X159000000Y-141460000D02*
X159000000Y-138920000D01*
X161540000Y-141460000D02*
X161540000Y-138920000D01*
X164120000Y-157350000D02*
X164120000Y-141460000D01*
%TO.C,Q11*%
X110120000Y-63010001D02*
X110120000Y-78900001D01*
X110120000Y-63010001D02*
X99880000Y-63010001D01*
X110120000Y-78900001D02*
X99880000Y-78900001D01*
X107540000Y-78900001D02*
X107540000Y-81440001D01*
X105000000Y-78900001D02*
X105000000Y-81440001D01*
X102460000Y-78900001D02*
X102460000Y-81440001D01*
X99880000Y-63010001D02*
X99880000Y-78900001D01*
%TO.C,Q14*%
X77120000Y-63080000D02*
X77120000Y-78970000D01*
X77120000Y-63080000D02*
X66880000Y-63080000D01*
X77120000Y-78970000D02*
X66880000Y-78970000D01*
X74540000Y-78970000D02*
X74540000Y-81510000D01*
X72000000Y-78970000D02*
X72000000Y-81510000D01*
X69460000Y-78970000D02*
X69460000Y-81510000D01*
X66880000Y-63080000D02*
X66880000Y-78970000D01*
%TO.C,Q13*%
X88120000Y-63080000D02*
X88120000Y-78970000D01*
X88120000Y-63080000D02*
X77880000Y-63080000D01*
X88120000Y-78970000D02*
X77880000Y-78970000D01*
X85540000Y-78970000D02*
X85540000Y-81510000D01*
X83000000Y-78970000D02*
X83000000Y-81510000D01*
X80460000Y-78970000D02*
X80460000Y-81510000D01*
X77880000Y-63080000D02*
X77880000Y-78970000D01*
%TO.C,Q7*%
X66880000Y-157490000D02*
X66880000Y-141600000D01*
X66880000Y-157490000D02*
X77120000Y-157490000D01*
X66880000Y-141600000D02*
X77120000Y-141600000D01*
X69460000Y-141600000D02*
X69460000Y-139060000D01*
X72000000Y-141600000D02*
X72000000Y-139060000D01*
X74540000Y-141600000D02*
X74540000Y-139060000D01*
X77120000Y-157490000D02*
X77120000Y-141600000D01*
%TO.C,Q15*%
X163620000Y-63010001D02*
X163620000Y-78900001D01*
X163620000Y-63010001D02*
X153380000Y-63010001D01*
X163620000Y-78900001D02*
X153380000Y-78900001D01*
X161040000Y-78900001D02*
X161040000Y-81440001D01*
X158500000Y-78900001D02*
X158500000Y-81440001D01*
X155960000Y-78900001D02*
X155960000Y-81440001D01*
X153380000Y-63010001D02*
X153380000Y-78900001D01*
%TO.C,Q10*%
X99880000Y-157420000D02*
X99880000Y-141530000D01*
X99880000Y-157420000D02*
X110120000Y-157420000D01*
X99880000Y-141530000D02*
X110120000Y-141530000D01*
X102460000Y-141530000D02*
X102460000Y-138990000D01*
X105000000Y-141530000D02*
X105000000Y-138990000D01*
X107540000Y-141530000D02*
X107540000Y-138990000D01*
X110120000Y-157420000D02*
X110120000Y-141530000D01*
%TO.C,Q18*%
X130620000Y-63080000D02*
X130620000Y-78970000D01*
X130620000Y-63080000D02*
X120380000Y-63080000D01*
X130620000Y-78970000D02*
X120380000Y-78970000D01*
X128040000Y-78970000D02*
X128040000Y-81510000D01*
X125500000Y-78970000D02*
X125500000Y-81510000D01*
X122960000Y-78970000D02*
X122960000Y-81510000D01*
X120380000Y-63080000D02*
X120380000Y-78970000D01*
%TO.C,Q3*%
X120880000Y-157420000D02*
X120880000Y-141530000D01*
X120880000Y-157420000D02*
X131120000Y-157420000D01*
X120880000Y-141530000D02*
X131120000Y-141530000D01*
X123460000Y-141530000D02*
X123460000Y-138990000D01*
X126000000Y-141530000D02*
X126000000Y-138990000D01*
X128540000Y-141530000D02*
X128540000Y-138990000D01*
X131120000Y-157420000D02*
X131120000Y-141530000D01*
%TO.C,Q16*%
X152620000Y-63080000D02*
X152620000Y-78970000D01*
X152620000Y-63080000D02*
X142380000Y-63080000D01*
X152620000Y-78970000D02*
X142380000Y-78970000D01*
X150040000Y-78970000D02*
X150040000Y-81510000D01*
X147500000Y-78970000D02*
X147500000Y-81510000D01*
X144960000Y-78970000D02*
X144960000Y-81510000D01*
X142380000Y-63080000D02*
X142380000Y-78970000D01*
%TO.C,Q5*%
X142880000Y-157350000D02*
X142880000Y-141460000D01*
X142880000Y-157350000D02*
X153120000Y-157350000D01*
X142880000Y-141460000D02*
X153120000Y-141460000D01*
X145460000Y-141460000D02*
X145460000Y-138920000D01*
X148000000Y-141460000D02*
X148000000Y-138920000D01*
X150540000Y-141460000D02*
X150540000Y-138920000D01*
X153120000Y-157350000D02*
X153120000Y-141460000D01*
%TO.C,Q12*%
X99120000Y-63080000D02*
X99120000Y-78970000D01*
X99120000Y-63080000D02*
X88880000Y-63080000D01*
X99120000Y-78970000D02*
X88880000Y-78970000D01*
X96540000Y-78970000D02*
X96540000Y-81510000D01*
X94000000Y-78970000D02*
X94000000Y-81510000D01*
X91460000Y-78970000D02*
X91460000Y-81510000D01*
X88880000Y-63080000D02*
X88880000Y-78970000D01*
D12*
%TO.C,G\u002A\u002A\u002A*%
G36*
X143405671Y-107859420D02*
G01*
X142497993Y-107859420D01*
X141590314Y-107859420D01*
X141590314Y-108302007D01*
X141590314Y-108744595D01*
X141815358Y-108744595D01*
X142040402Y-108744595D01*
X142040402Y-108519550D01*
X142040402Y-108294506D01*
X142497993Y-108294506D01*
X142955583Y-108294506D01*
X142955583Y-108519550D01*
X142955583Y-108744595D01*
X143173125Y-108744595D01*
X143390668Y-108744595D01*
X143390668Y-108519550D01*
X143390668Y-108294506D01*
X143623214Y-108294506D01*
X143855760Y-108294506D01*
X143855760Y-108069462D01*
X143855760Y-107844417D01*
X144305848Y-107844417D01*
X144755937Y-107844417D01*
X144755937Y-107626875D01*
X144755937Y-107409332D01*
X144530893Y-107409332D01*
X144305848Y-107409332D01*
X144305848Y-107169284D01*
X144305848Y-106929237D01*
X144538394Y-106929237D01*
X144770940Y-106929237D01*
X144770940Y-107161783D01*
X144770940Y-107394329D01*
X144995984Y-107394329D01*
X145221029Y-107394329D01*
X145221029Y-107626875D01*
X145221029Y-107859420D01*
X144995984Y-107859420D01*
X144770940Y-107859420D01*
X144770940Y-108084465D01*
X144770940Y-108309509D01*
X144545896Y-108309509D01*
X144320851Y-108309509D01*
X144320851Y-108527052D01*
X144320851Y-108744595D01*
X144545896Y-108744595D01*
X144770940Y-108744595D01*
X144770940Y-108977140D01*
X144770940Y-109209686D01*
X144995984Y-109209686D01*
X145221029Y-109209686D01*
X145221029Y-109442232D01*
X145221029Y-109674778D01*
X144995984Y-109674778D01*
X144770940Y-109674778D01*
X144770940Y-109899822D01*
X144770940Y-110124866D01*
X144538394Y-110124866D01*
X144305848Y-110124866D01*
X144305848Y-109892320D01*
X144305848Y-109659775D01*
X144530893Y-109659775D01*
X144755937Y-109659775D01*
X144755937Y-109442232D01*
X144755937Y-109224689D01*
X144530893Y-109224689D01*
X144305848Y-109224689D01*
X144305848Y-108992143D01*
X144305848Y-108759598D01*
X143855760Y-108759598D01*
X143405671Y-108759598D01*
X143405671Y-108984642D01*
X143405671Y-109209686D01*
X143638217Y-109209686D01*
X143870763Y-109209686D01*
X143870763Y-109442232D01*
X143870763Y-109892320D01*
X143870763Y-110117365D01*
X143870763Y-110574955D01*
X143638217Y-110574955D01*
X143405671Y-110574955D01*
X143405671Y-110807501D01*
X143405671Y-111040046D01*
X142955583Y-111040046D01*
X142505494Y-111040046D01*
X142505494Y-111482634D01*
X142505494Y-111925221D01*
X142723037Y-111925221D01*
X142940580Y-111925221D01*
X142940580Y-111700176D01*
X142940580Y-111475132D01*
X143173125Y-111475132D01*
X143405671Y-111475132D01*
X143405671Y-111707678D01*
X143405671Y-111940224D01*
X143180627Y-111940224D01*
X142955583Y-111940224D01*
X142955583Y-112157766D01*
X142955583Y-112375309D01*
X143180627Y-112375309D01*
X143405671Y-112375309D01*
X143405671Y-112615357D01*
X143405671Y-112855404D01*
X142730538Y-112855404D01*
X142055405Y-112855404D01*
X142055405Y-113080448D01*
X142055405Y-113305492D01*
X141597815Y-113305492D01*
X141140225Y-113305492D01*
X141140225Y-113523035D01*
X141140225Y-113530537D01*
X141140225Y-113755581D01*
X140457591Y-113755581D01*
X139774957Y-113755581D01*
X139774957Y-113980625D01*
X139774957Y-114205670D01*
X139549912Y-114205670D01*
X139324868Y-114205670D01*
X139324868Y-114430714D01*
X139324868Y-114655758D01*
X139549912Y-114655758D01*
X139774957Y-114655758D01*
X139774957Y-114888304D01*
X139774957Y-115120850D01*
X139542411Y-115120850D01*
X139309865Y-115120850D01*
X139309865Y-114895805D01*
X139309865Y-114670761D01*
X139092322Y-114670761D01*
X138874779Y-114670761D01*
X138874779Y-115113348D01*
X138874779Y-115555935D01*
X139557414Y-115555935D01*
X140240048Y-115555935D01*
X140240048Y-116013525D01*
X140240048Y-116471116D01*
X140465092Y-116471116D01*
X140690137Y-116471116D01*
X140690137Y-116696160D01*
X140690137Y-116703661D01*
X140690137Y-116921204D01*
X141132724Y-116921204D01*
X141575311Y-116921204D01*
X141575311Y-116703661D01*
X141575311Y-116486118D01*
X141350267Y-116486118D01*
X141125222Y-116486118D01*
X141125222Y-116253573D01*
X141125222Y-116021027D01*
X142055405Y-116021027D01*
X142055405Y-116921204D01*
X142055405Y-117821381D01*
X142272948Y-117821381D01*
X142490491Y-117821381D01*
X142490491Y-116928706D01*
X142955583Y-116928706D01*
X142955583Y-117371293D01*
X143173125Y-117371293D01*
X143390668Y-117371293D01*
X143390668Y-116928706D01*
X143390668Y-116486118D01*
X143173125Y-116486118D01*
X142955583Y-116486118D01*
X142955583Y-116921204D01*
X142955583Y-116928706D01*
X142490491Y-116928706D01*
X142490491Y-116921204D01*
X142490491Y-116021027D01*
X142272948Y-116021027D01*
X142055405Y-116021027D01*
X141125222Y-116021027D01*
X140900178Y-116021027D01*
X140675134Y-116021027D01*
X140675134Y-115788481D01*
X140675134Y-115555935D01*
X140907680Y-115555935D01*
X141140225Y-115555935D01*
X141140225Y-115780980D01*
X141140225Y-116006024D01*
X141590314Y-116006024D01*
X142040402Y-116006024D01*
X142040402Y-115780980D01*
X142040402Y-115570938D01*
X142505494Y-115570938D01*
X142505494Y-115788481D01*
X142505494Y-116006024D01*
X142723037Y-116006024D01*
X142940580Y-116006024D01*
X142940580Y-115788481D01*
X142940580Y-115570938D01*
X142723037Y-115570938D01*
X142505494Y-115570938D01*
X142040402Y-115570938D01*
X142040402Y-115555935D01*
X142265447Y-115555935D01*
X142490491Y-115555935D01*
X142490491Y-115330891D01*
X142490491Y-115105847D01*
X142715535Y-115105847D01*
X142940580Y-115105847D01*
X142940580Y-114888304D01*
X142940580Y-114670761D01*
X142265447Y-114670761D01*
X141590314Y-114670761D01*
X141590314Y-114895805D01*
X141590314Y-115120850D01*
X140907680Y-115120850D01*
X140225045Y-115120850D01*
X140225045Y-114655758D01*
X140225045Y-114190667D01*
X140682635Y-114190667D01*
X141140225Y-114190667D01*
X141140225Y-114423212D01*
X141140225Y-114655758D01*
X141357768Y-114655758D01*
X141575311Y-114655758D01*
X141575311Y-114423212D01*
X141575311Y-114190667D01*
X142265447Y-114190667D01*
X142955583Y-114190667D01*
X142955583Y-114423212D01*
X142955583Y-114655758D01*
X143173125Y-114655758D01*
X143390668Y-114655758D01*
X143390668Y-114423212D01*
X143390668Y-114190667D01*
X143623214Y-114190667D01*
X143855760Y-114190667D01*
X143855760Y-113973124D01*
X143855760Y-113755581D01*
X143623214Y-113755581D01*
X143390668Y-113755581D01*
X143390668Y-113523035D01*
X143390668Y-113305492D01*
X143870763Y-113305492D01*
X143870763Y-113523035D01*
X143870763Y-113740578D01*
X144088306Y-113740578D01*
X144305848Y-113740578D01*
X144305848Y-113523035D01*
X144305848Y-113305492D01*
X144088306Y-113305492D01*
X143870763Y-113305492D01*
X143390668Y-113305492D01*
X143390668Y-113290489D01*
X143623214Y-113290489D01*
X143855760Y-113290489D01*
X143855760Y-112832899D01*
X143855760Y-112375309D01*
X144313350Y-112375309D01*
X144770940Y-112375309D01*
X144770940Y-112615357D01*
X144770940Y-112855404D01*
X144545896Y-112855404D01*
X144320851Y-112855404D01*
X144320851Y-113072947D01*
X144320851Y-113290489D01*
X144545896Y-113290489D01*
X144770940Y-113290489D01*
X144770940Y-113523035D01*
X144770940Y-113755581D01*
X144545896Y-113755581D01*
X144320851Y-113755581D01*
X144320851Y-113973124D01*
X144320851Y-114190667D01*
X144763439Y-114190667D01*
X145206026Y-114190667D01*
X145206026Y-113282988D01*
X145206026Y-112375309D01*
X145438571Y-112375309D01*
X145671117Y-112375309D01*
X145671117Y-112157766D01*
X145671117Y-111940224D01*
X146136209Y-111940224D01*
X146136209Y-112157766D01*
X146136209Y-112375309D01*
X146353752Y-112375309D01*
X146571294Y-112375309D01*
X146571294Y-112157766D01*
X146571294Y-111940224D01*
X146353752Y-111940224D01*
X146136209Y-111940224D01*
X145671117Y-111940224D01*
X145438571Y-111940224D01*
X145206026Y-111940224D01*
X145206026Y-111715179D01*
X145206026Y-111490135D01*
X144988483Y-111490135D01*
X144770940Y-111490135D01*
X144770940Y-111715179D01*
X144770940Y-111940224D01*
X144538394Y-111940224D01*
X144305848Y-111940224D01*
X144305848Y-111707678D01*
X144305848Y-111475132D01*
X144530893Y-111475132D01*
X144755937Y-111475132D01*
X144755937Y-111257589D01*
X144755937Y-111040046D01*
X144530893Y-111040046D01*
X144305848Y-111040046D01*
X144305848Y-110799999D01*
X144305848Y-110559952D01*
X144538394Y-110559952D01*
X144770940Y-110559952D01*
X144770940Y-110792498D01*
X144770940Y-111025043D01*
X145221029Y-111025043D01*
X145671117Y-111025043D01*
X145671117Y-110799999D01*
X145671117Y-110574955D01*
X145438571Y-110574955D01*
X145206026Y-110574955D01*
X145206026Y-110342409D01*
X145206026Y-110109863D01*
X145888660Y-110109863D01*
X146571294Y-110109863D01*
X146571294Y-109884819D01*
X146571294Y-109659775D01*
X147036386Y-109659775D01*
X147501477Y-109659775D01*
X147501477Y-109892320D01*
X147501477Y-110124866D01*
X147043887Y-110124866D01*
X146586297Y-110124866D01*
X146586297Y-110342409D01*
X146586297Y-110559952D01*
X146811342Y-110559952D01*
X147036386Y-110559952D01*
X147036386Y-110792498D01*
X147036386Y-111025043D01*
X147268932Y-111025043D01*
X147501477Y-111025043D01*
X147501477Y-111257589D01*
X147501477Y-111490135D01*
X147043887Y-111490135D01*
X146586297Y-111490135D01*
X146586297Y-111707678D01*
X146586297Y-111925221D01*
X146811342Y-111925221D01*
X147036386Y-111925221D01*
X147036386Y-112150265D01*
X147036386Y-112157766D01*
X147036386Y-112375309D01*
X147268932Y-112375309D01*
X147501477Y-112375309D01*
X147501477Y-112840401D01*
X147501477Y-113305492D01*
X147261430Y-113305492D01*
X147021383Y-113305492D01*
X147021383Y-112847902D01*
X147021383Y-112390312D01*
X146803840Y-112390312D01*
X146586297Y-112390312D01*
X146586297Y-112622858D01*
X146586297Y-112855404D01*
X146353752Y-112855404D01*
X146121206Y-112855404D01*
X146121206Y-112622858D01*
X146121206Y-112390312D01*
X145903663Y-112390312D01*
X145686120Y-112390312D01*
X145686120Y-113065445D01*
X145686120Y-113740578D01*
X145911164Y-113740578D01*
X146136209Y-113740578D01*
X146136209Y-113965622D01*
X146136209Y-114190667D01*
X146353752Y-114190667D01*
X146571294Y-114190667D01*
X146571294Y-113965622D01*
X146571294Y-113740578D01*
X146803840Y-113740578D01*
X147036386Y-113740578D01*
X147036386Y-113965622D01*
X147036386Y-114190667D01*
X147268932Y-114190667D01*
X147501477Y-114190667D01*
X147501477Y-114430714D01*
X147501477Y-114670761D01*
X147261430Y-114670761D01*
X147021383Y-114670761D01*
X147021383Y-114438215D01*
X147021383Y-114205670D01*
X146803840Y-114205670D01*
X146586297Y-114205670D01*
X146586297Y-114438215D01*
X146586297Y-114670761D01*
X146353752Y-114670761D01*
X146121206Y-114670761D01*
X146121206Y-114438215D01*
X146121206Y-114205670D01*
X145671117Y-114205670D01*
X145221029Y-114205670D01*
X145221029Y-114438215D01*
X145221029Y-114670761D01*
X144763439Y-114670761D01*
X144305848Y-114670761D01*
X144305848Y-114438215D01*
X144305848Y-114205670D01*
X144088306Y-114205670D01*
X143870763Y-114205670D01*
X143870763Y-114888304D01*
X143870763Y-115570938D01*
X143638217Y-115570938D01*
X143405671Y-115570938D01*
X143405671Y-115788481D01*
X143405671Y-116021027D01*
X143405671Y-116471116D01*
X143638217Y-116471116D01*
X143870763Y-116471116D01*
X143870763Y-116928706D01*
X143870763Y-117386296D01*
X143638217Y-117386296D01*
X143405671Y-117386296D01*
X143405671Y-117843886D01*
X143405671Y-118301476D01*
X142723037Y-118301476D01*
X142040402Y-118301476D01*
X142040402Y-118068930D01*
X142040402Y-117836384D01*
X141807857Y-117836384D01*
X141575311Y-117836384D01*
X141575311Y-117611340D01*
X141575311Y-117386296D01*
X141357768Y-117386296D01*
X141140225Y-117386296D01*
X141140225Y-117603839D01*
X141140225Y-117611340D01*
X141140225Y-117836384D01*
X140457591Y-117836384D01*
X139774957Y-117836384D01*
X139774957Y-118068930D01*
X139774957Y-118301476D01*
X139092322Y-118301476D01*
X138409688Y-118301476D01*
X138409688Y-117843886D01*
X138409688Y-117386296D01*
X139324868Y-117386296D01*
X139324868Y-117603839D01*
X139324868Y-117821381D01*
X139542411Y-117821381D01*
X139759954Y-117821381D01*
X139759954Y-117603839D01*
X139759954Y-117386296D01*
X139542411Y-117386296D01*
X139324868Y-117386296D01*
X138409688Y-117386296D01*
X137952098Y-117386296D01*
X137494508Y-117386296D01*
X137494508Y-116928706D01*
X137494508Y-116471116D01*
X137727053Y-116471116D01*
X137959599Y-116471116D01*
X137959599Y-116696160D01*
X137959599Y-116921204D01*
X138184643Y-116921204D01*
X138409688Y-116921204D01*
X138409688Y-116696160D01*
X138409688Y-116471116D01*
X138642234Y-116471116D01*
X138874779Y-116471116D01*
X138874779Y-116703661D01*
X138874779Y-116936207D01*
X138649735Y-116936207D01*
X138424691Y-116936207D01*
X138424691Y-117153750D01*
X138424691Y-117371293D01*
X138867278Y-117371293D01*
X139309865Y-117371293D01*
X139309865Y-116696160D01*
X139309865Y-116486118D01*
X139774957Y-116486118D01*
X139774957Y-116703661D01*
X139774957Y-116921204D01*
X140000001Y-116921204D01*
X140225045Y-116921204D01*
X140225045Y-116703661D01*
X140225045Y-116486118D01*
X140000001Y-116486118D01*
X139774957Y-116486118D01*
X139309865Y-116486118D01*
X139309865Y-116021027D01*
X138184643Y-116021027D01*
X137059422Y-116021027D01*
X137059422Y-116478617D01*
X137059422Y-116703661D01*
X137059422Y-116936207D01*
X136834378Y-116936207D01*
X136609333Y-116936207D01*
X136609333Y-117378794D01*
X136609333Y-117821381D01*
X137059422Y-117821381D01*
X137509511Y-117821381D01*
X137509511Y-118061429D01*
X137509511Y-118301476D01*
X137051921Y-118301476D01*
X136594330Y-118301476D01*
X136594330Y-118068930D01*
X136594330Y-117836384D01*
X136361785Y-117836384D01*
X136129239Y-117836384D01*
X136129239Y-117611340D01*
X136129239Y-117386296D01*
X135679150Y-117386296D01*
X135229062Y-117386296D01*
X135229062Y-117161251D01*
X135229062Y-116936207D01*
X135004017Y-116936207D01*
X134778973Y-116936207D01*
X134778973Y-116711163D01*
X134778973Y-116486118D01*
X135244065Y-116486118D01*
X135244065Y-116703661D01*
X135244065Y-116921204D01*
X135686652Y-116921204D01*
X136129239Y-116921204D01*
X136129239Y-116703661D01*
X136129239Y-116486118D01*
X135686652Y-116486118D01*
X135244065Y-116486118D01*
X134778973Y-116486118D01*
X134553929Y-116486118D01*
X134328884Y-116486118D01*
X134328884Y-116711163D01*
X134328884Y-116936207D01*
X133871294Y-116936207D01*
X133413704Y-116936207D01*
X133413704Y-116711163D01*
X133413704Y-116486118D01*
X133188660Y-116486118D01*
X132963616Y-116486118D01*
X132963616Y-116253573D01*
X132963616Y-116021027D01*
X132731070Y-116021027D01*
X132498524Y-116021027D01*
X132498524Y-115788481D01*
X132498524Y-115555935D01*
X132956114Y-115555935D01*
X133413704Y-115555935D01*
X133413704Y-115105847D01*
X133413704Y-114655758D01*
X133646250Y-114655758D01*
X133878796Y-114655758D01*
X133878796Y-115105847D01*
X133878796Y-115555935D01*
X134096339Y-115555935D01*
X134313882Y-115555935D01*
X134313882Y-114880802D01*
X134313882Y-114670761D01*
X134793976Y-114670761D01*
X134793976Y-115338393D01*
X134793976Y-116006024D01*
X135461607Y-116006024D01*
X136129239Y-116006024D01*
X136129239Y-115338393D01*
X136129239Y-114670761D01*
X135461607Y-114670761D01*
X134793976Y-114670761D01*
X134313882Y-114670761D01*
X134313882Y-114205670D01*
X134088837Y-114205670D01*
X133863793Y-114205670D01*
X133863793Y-113980625D01*
X133863793Y-113755581D01*
X134328884Y-113755581D01*
X134328884Y-113973124D01*
X134328884Y-114190667D01*
X134553929Y-114190667D01*
X134778973Y-114190667D01*
X135244065Y-114190667D01*
X135461607Y-114190667D01*
X135679150Y-114190667D01*
X135679150Y-113973124D01*
X135679150Y-113755581D01*
X135461607Y-113755581D01*
X135244065Y-113755581D01*
X135244065Y-113973124D01*
X135244065Y-114190667D01*
X134778973Y-114190667D01*
X134778973Y-113973124D01*
X134778973Y-113755581D01*
X134553929Y-113755581D01*
X134328884Y-113755581D01*
X133863793Y-113755581D01*
X133181159Y-113755581D01*
X132498524Y-113755581D01*
X132498524Y-113305492D01*
X133878796Y-113305492D01*
X133878796Y-113523035D01*
X133878796Y-113740578D01*
X134096339Y-113740578D01*
X134313882Y-113740578D01*
X134313882Y-113523035D01*
X134313882Y-113305492D01*
X134096339Y-113305492D01*
X133878796Y-113305492D01*
X132498524Y-113305492D01*
X132498524Y-112855404D01*
X133428707Y-112855404D01*
X133428707Y-113072947D01*
X133428707Y-113290489D01*
X133646250Y-113290489D01*
X133863793Y-113290489D01*
X133863793Y-113072947D01*
X133863793Y-112855404D01*
X133646250Y-112855404D01*
X133428707Y-112855404D01*
X132498524Y-112855404D01*
X132498524Y-112840401D01*
X132498524Y-112390312D01*
X134328884Y-112390312D01*
X134328884Y-112840401D01*
X134328884Y-113072947D01*
X134328884Y-113290489D01*
X134561430Y-113290489D01*
X134793976Y-113290489D01*
X134793976Y-113515534D01*
X134793976Y-113523035D01*
X134793976Y-113740578D01*
X135011519Y-113740578D01*
X135229062Y-113740578D01*
X135229062Y-113515534D01*
X135229062Y-113290489D01*
X135461607Y-113290489D01*
X135694153Y-113290489D01*
X135694153Y-113515534D01*
X135694153Y-113740578D01*
X136376788Y-113740578D01*
X137059422Y-113740578D01*
X137059422Y-113965622D01*
X137059422Y-113973124D01*
X137059422Y-114190667D01*
X137284466Y-114190667D01*
X137509511Y-114190667D01*
X137509511Y-114430714D01*
X137509511Y-114670761D01*
X137059422Y-114670761D01*
X136609333Y-114670761D01*
X136609333Y-114888304D01*
X136609333Y-115105847D01*
X137059422Y-115105847D01*
X137509511Y-115105847D01*
X137509511Y-115330891D01*
X137509511Y-115338393D01*
X137509511Y-115555935D01*
X137727053Y-115555935D01*
X137944596Y-115555935D01*
X137944596Y-115330891D01*
X137944596Y-115105847D01*
X138177142Y-115105847D01*
X138409688Y-115105847D01*
X138409688Y-114888304D01*
X138409688Y-114670761D01*
X138177142Y-114670761D01*
X137944596Y-114670761D01*
X137944596Y-114213171D01*
X137944596Y-113755581D01*
X138424691Y-113755581D01*
X138424691Y-114205670D01*
X138424691Y-114655758D01*
X138642234Y-114655758D01*
X138859776Y-114655758D01*
X138859776Y-114205670D01*
X138859776Y-113755581D01*
X138642234Y-113755581D01*
X138424691Y-113755581D01*
X137944596Y-113755581D01*
X137719552Y-113755581D01*
X137494508Y-113755581D01*
X137494508Y-113072947D01*
X137494508Y-112855404D01*
X137959599Y-112855404D01*
X137959599Y-113297991D01*
X137959599Y-113740578D01*
X138184643Y-113740578D01*
X138409688Y-113740578D01*
X138409688Y-113515534D01*
X138409688Y-113305492D01*
X138874779Y-113305492D01*
X138874779Y-113523035D01*
X138874779Y-113740578D01*
X139317366Y-113740578D01*
X139759954Y-113740578D01*
X139759954Y-113523035D01*
X139759954Y-113305492D01*
X139317366Y-113305492D01*
X138874779Y-113305492D01*
X138409688Y-113305492D01*
X138409688Y-113290489D01*
X138634732Y-113290489D01*
X138859776Y-113290489D01*
X138859776Y-113072947D01*
X138859776Y-112855404D01*
X138409688Y-112855404D01*
X137959599Y-112855404D01*
X137494508Y-112855404D01*
X137494508Y-112390312D01*
X137269463Y-112390312D01*
X137044419Y-112390312D01*
X137044419Y-112157766D01*
X137044419Y-111940224D01*
X137509511Y-111940224D01*
X137509511Y-112157766D01*
X137509511Y-112375309D01*
X137727053Y-112375309D01*
X137944596Y-112375309D01*
X137944596Y-112157766D01*
X137944596Y-111940224D01*
X137727053Y-111940224D01*
X137509511Y-111940224D01*
X137044419Y-111940224D01*
X137044419Y-111925221D01*
X137269463Y-111925221D01*
X137494508Y-111925221D01*
X137494508Y-111707678D01*
X137494508Y-111490135D01*
X137044419Y-111490135D01*
X136594330Y-111490135D01*
X136594330Y-111265091D01*
X136594330Y-111040046D01*
X137509511Y-111040046D01*
X137509511Y-111257589D01*
X137509511Y-111475132D01*
X137727053Y-111475132D01*
X137944596Y-111475132D01*
X137944596Y-111257589D01*
X137944596Y-111040046D01*
X137727053Y-111040046D01*
X137509511Y-111040046D01*
X136594330Y-111040046D01*
X136144242Y-111040046D01*
X135694153Y-111040046D01*
X135694153Y-111257589D01*
X135694153Y-111475132D01*
X135919198Y-111475132D01*
X136144242Y-111475132D01*
X136144242Y-111707678D01*
X136144242Y-111940224D01*
X135919198Y-111940224D01*
X135694153Y-111940224D01*
X135694153Y-112157766D01*
X135694153Y-112375309D01*
X135919198Y-112375309D01*
X136144242Y-112375309D01*
X136144242Y-112615357D01*
X136144242Y-112855404D01*
X135911696Y-112855404D01*
X135679150Y-112855404D01*
X135679150Y-112622858D01*
X135679150Y-112390312D01*
X135461607Y-112390312D01*
X135244065Y-112390312D01*
X135244065Y-112622858D01*
X135244065Y-112855404D01*
X135011519Y-112855404D01*
X134778973Y-112855404D01*
X134778973Y-112622858D01*
X134778973Y-112390312D01*
X134553929Y-112390312D01*
X134328884Y-112390312D01*
X132498524Y-112390312D01*
X132498524Y-111925221D01*
X132738571Y-111925221D01*
X132978619Y-111925221D01*
X132978619Y-112150265D01*
X132978619Y-112375309D01*
X133646250Y-112375309D01*
X134313882Y-112375309D01*
X134313882Y-111707678D01*
X134313882Y-111490135D01*
X134793976Y-111490135D01*
X134793976Y-111932722D01*
X134793976Y-112375309D01*
X135011519Y-112375309D01*
X135229062Y-112375309D01*
X135229062Y-112150265D01*
X135229062Y-111925221D01*
X135454106Y-111925221D01*
X135679150Y-111925221D01*
X135679150Y-111707678D01*
X135679150Y-111490135D01*
X135236563Y-111490135D01*
X134793976Y-111490135D01*
X134313882Y-111490135D01*
X134313882Y-111040046D01*
X134096339Y-111040046D01*
X133878796Y-111040046D01*
X133878796Y-111490135D01*
X133878796Y-111940224D01*
X133646250Y-111940224D01*
X133413704Y-111940224D01*
X133413704Y-111715179D01*
X133413704Y-111490135D01*
X132956114Y-111490135D01*
X132498524Y-111490135D01*
X132498524Y-111257589D01*
X132498524Y-111025043D01*
X132731070Y-111025043D01*
X132963616Y-111025043D01*
X132963616Y-110799999D01*
X132963616Y-110574955D01*
X132731070Y-110574955D01*
X132498524Y-110574955D01*
X132498524Y-110342409D01*
X132498524Y-110109863D01*
X132738571Y-110109863D01*
X132978619Y-110109863D01*
X132978619Y-110334908D01*
X132978619Y-110559952D01*
X133196161Y-110559952D01*
X133413704Y-110559952D01*
X133413704Y-110124866D01*
X134328884Y-110124866D01*
X134328884Y-110342409D01*
X134328884Y-110559952D01*
X134561430Y-110559952D01*
X134793976Y-110559952D01*
X134793976Y-110792498D01*
X134793976Y-111025043D01*
X135011519Y-111025043D01*
X135229062Y-111025043D01*
X135229062Y-110792498D01*
X135229062Y-110574955D01*
X137059422Y-110574955D01*
X137059422Y-110799999D01*
X137059422Y-111025043D01*
X137276965Y-111025043D01*
X137494508Y-111025043D01*
X137959599Y-111025043D01*
X138184643Y-111025043D01*
X138409688Y-111025043D01*
X138409688Y-110799999D01*
X138409688Y-110574955D01*
X138184643Y-110574955D01*
X137959599Y-110574955D01*
X137959599Y-110799999D01*
X137959599Y-111025043D01*
X137494508Y-111025043D01*
X137494508Y-110799999D01*
X137494508Y-110574955D01*
X137276965Y-110574955D01*
X137059422Y-110574955D01*
X135229062Y-110574955D01*
X135229062Y-110559952D01*
X135454106Y-110559952D01*
X135679150Y-110559952D01*
X135679150Y-110334908D01*
X135679150Y-110109863D01*
X135904195Y-110109863D01*
X136129239Y-110109863D01*
X136129239Y-109892320D01*
X136129239Y-109674778D01*
X135904195Y-109674778D01*
X135679150Y-109674778D01*
X135679150Y-109224689D01*
X136144242Y-109224689D01*
X136144242Y-109442232D01*
X136144242Y-109659775D01*
X136376788Y-109659775D01*
X136609333Y-109659775D01*
X136609333Y-109674778D01*
X136609333Y-109884819D01*
X136609333Y-110109863D01*
X137051921Y-110109863D01*
X137494508Y-110109863D01*
X137494508Y-109667276D01*
X137494508Y-109224689D01*
X137959599Y-109224689D01*
X137959599Y-109667276D01*
X137959599Y-110109863D01*
X138184643Y-110109863D01*
X138409688Y-110109863D01*
X138409688Y-109667276D01*
X138409688Y-109224689D01*
X138184643Y-109224689D01*
X137959599Y-109224689D01*
X137494508Y-109224689D01*
X137269463Y-109224689D01*
X137044419Y-109224689D01*
X137044419Y-108767099D01*
X137044419Y-108309509D01*
X136826876Y-108309509D01*
X136609333Y-108309509D01*
X136609333Y-108767099D01*
X136609333Y-109224689D01*
X136376788Y-109224689D01*
X136144242Y-109224689D01*
X135679150Y-109224689D01*
X135679150Y-108992143D01*
X135679150Y-108309509D01*
X135461607Y-108309509D01*
X135244065Y-108309509D01*
X135244065Y-108534553D01*
X135244065Y-108759598D01*
X135019020Y-108759598D01*
X134793976Y-108759598D01*
X134793976Y-108984642D01*
X134793976Y-109209686D01*
X135019020Y-109209686D01*
X135244065Y-109209686D01*
X135244065Y-109224689D01*
X135244065Y-109667276D01*
X135244065Y-110124866D01*
X134786475Y-110124866D01*
X134328884Y-110124866D01*
X133413704Y-110124866D01*
X133413704Y-109892320D01*
X133413704Y-109224689D01*
X133188660Y-109224689D01*
X132963616Y-109224689D01*
X132963616Y-108992143D01*
X132963616Y-108759598D01*
X132731070Y-108759598D01*
X132498524Y-108759598D01*
X132498524Y-108534553D01*
X133428707Y-108534553D01*
X133428707Y-109209686D01*
X133653752Y-109209686D01*
X133878796Y-109209686D01*
X133878796Y-109659775D01*
X133878796Y-110109863D01*
X134096339Y-110109863D01*
X134313882Y-110109863D01*
X134313882Y-109884819D01*
X134313882Y-109659775D01*
X134546427Y-109659775D01*
X134778973Y-109659775D01*
X134778973Y-109442232D01*
X134778973Y-109224689D01*
X134546427Y-109224689D01*
X134313882Y-109224689D01*
X134313882Y-108767099D01*
X134313882Y-108309509D01*
X134088837Y-108309509D01*
X133863793Y-108309509D01*
X133863793Y-108084465D01*
X133863793Y-107859420D01*
X133646250Y-107859420D01*
X133428707Y-107859420D01*
X133428707Y-108534553D01*
X132498524Y-108534553D01*
X132498524Y-108076963D01*
X132498524Y-107394329D01*
X132738571Y-107394329D01*
X132978619Y-107394329D01*
X132978619Y-107619373D01*
X132978619Y-107844417D01*
X133196161Y-107844417D01*
X133413704Y-107844417D01*
X133413704Y-107619373D01*
X133413704Y-107394329D01*
X133646250Y-107394329D01*
X133878796Y-107394329D01*
X133878796Y-107619373D01*
X133878796Y-107844417D01*
X134103840Y-107844417D01*
X134328884Y-107844417D01*
X134328884Y-108069462D01*
X134328884Y-108294506D01*
X134778973Y-108294506D01*
X135229062Y-108294506D01*
X135229062Y-107611872D01*
X135229062Y-106929237D01*
X135686652Y-106929237D01*
X136144242Y-106929237D01*
X136144242Y-107611872D01*
X136144242Y-108294506D01*
X136369286Y-108294506D01*
X136594330Y-108294506D01*
X136594330Y-107844417D01*
X136594330Y-107394329D01*
X136826876Y-107394329D01*
X137059422Y-107394329D01*
X137059422Y-107619373D01*
X137059422Y-107844417D01*
X137742056Y-107844417D01*
X138424691Y-107844417D01*
X138424691Y-108069462D01*
X138424691Y-108294506D01*
X138649735Y-108294506D01*
X138874779Y-108294506D01*
X138874779Y-108527052D01*
X138874779Y-108759598D01*
X138649735Y-108759598D01*
X138424691Y-108759598D01*
X138424691Y-108984642D01*
X138424691Y-109209686D01*
X138649735Y-109209686D01*
X138874779Y-109209686D01*
X138874779Y-109434730D01*
X138874779Y-109659775D01*
X139099824Y-109659775D01*
X139324868Y-109659775D01*
X139324868Y-109667276D01*
X139324868Y-109892320D01*
X139324868Y-110124866D01*
X138874779Y-110124866D01*
X138424691Y-110124866D01*
X138424691Y-110342409D01*
X138424691Y-110559952D01*
X138649735Y-110559952D01*
X138874779Y-110559952D01*
X138874779Y-110799999D01*
X138874779Y-111025043D01*
X138874779Y-111257589D01*
X138874779Y-111490135D01*
X138417189Y-111490135D01*
X137959599Y-111490135D01*
X137959599Y-111707678D01*
X137959599Y-111925221D01*
X138417189Y-111925221D01*
X138874779Y-111925221D01*
X138874779Y-112150265D01*
X138874779Y-112157766D01*
X138874779Y-112375309D01*
X139099824Y-112375309D01*
X139324868Y-112375309D01*
X139324868Y-112607855D01*
X139324868Y-112840401D01*
X139549912Y-112840401D01*
X139774957Y-112840401D01*
X139774957Y-113065445D01*
X139774957Y-113072947D01*
X139774957Y-113290489D01*
X140000001Y-113290489D01*
X140225045Y-113290489D01*
X140225045Y-112832899D01*
X140225045Y-112390312D01*
X140690137Y-112390312D01*
X140690137Y-112840401D01*
X140690137Y-113290489D01*
X140907680Y-113290489D01*
X141125222Y-113290489D01*
X141125222Y-113065445D01*
X141125222Y-112840401D01*
X141582812Y-112840401D01*
X142040402Y-112840401D01*
X142040402Y-112607855D01*
X142040402Y-112375309D01*
X142265447Y-112375309D01*
X142490491Y-112375309D01*
X142490491Y-112157766D01*
X142490491Y-111940224D01*
X142040402Y-111940224D01*
X141590314Y-111940224D01*
X141590314Y-112165268D01*
X141590314Y-112390312D01*
X141140225Y-112390312D01*
X140690137Y-112390312D01*
X140225045Y-112390312D01*
X140225045Y-112375309D01*
X140450089Y-112375309D01*
X140675134Y-112375309D01*
X140675134Y-112150265D01*
X140675134Y-111925221D01*
X140900178Y-111925221D01*
X141125222Y-111925221D01*
X141125222Y-111482634D01*
X141125222Y-111040046D01*
X140682635Y-111040046D01*
X140240048Y-111040046D01*
X140240048Y-111265091D01*
X140240048Y-111490135D01*
X139774957Y-111490135D01*
X139309865Y-111490135D01*
X139309865Y-111025043D01*
X139309865Y-110559952D01*
X139767455Y-110559952D01*
X140225045Y-110559952D01*
X140225045Y-110342409D01*
X140225045Y-110124866D01*
X141140225Y-110124866D01*
X141140225Y-110342409D01*
X141140225Y-110559952D01*
X141365270Y-110559952D01*
X141590314Y-110559952D01*
X141590314Y-111017542D01*
X141590314Y-111475132D01*
X141815358Y-111475132D01*
X142040402Y-111475132D01*
X142040402Y-111017542D01*
X142040402Y-110559952D01*
X142265447Y-110559952D01*
X142490491Y-110559952D01*
X142490491Y-110109863D01*
X142490491Y-109674778D01*
X142955583Y-109674778D01*
X142955583Y-110117365D01*
X142955583Y-110559952D01*
X143173125Y-110559952D01*
X143390668Y-110559952D01*
X143390668Y-110117365D01*
X143390668Y-109674778D01*
X143173125Y-109674778D01*
X142955583Y-109674778D01*
X142490491Y-109674778D01*
X142490491Y-109659775D01*
X142715535Y-109659775D01*
X142940580Y-109659775D01*
X142940580Y-109442232D01*
X142940580Y-109224689D01*
X142265447Y-109224689D01*
X141590314Y-109224689D01*
X141590314Y-109674778D01*
X141590314Y-110124866D01*
X141365270Y-110124866D01*
X141140225Y-110124866D01*
X140225045Y-110124866D01*
X139992499Y-110124866D01*
X139759954Y-110124866D01*
X139759954Y-109892320D01*
X139759954Y-109659775D01*
X139992499Y-109659775D01*
X140225045Y-109659775D01*
X140225045Y-109442232D01*
X140225045Y-109224689D01*
X139992499Y-109224689D01*
X139759954Y-109224689D01*
X139759954Y-108984642D01*
X139759954Y-108759598D01*
X140690137Y-108759598D01*
X140690137Y-108984642D01*
X140690137Y-109209686D01*
X141132724Y-109209686D01*
X141575311Y-109209686D01*
X141575311Y-108984642D01*
X141575311Y-108759598D01*
X141132724Y-108759598D01*
X140690137Y-108759598D01*
X139759954Y-108759598D01*
X139759954Y-108744595D01*
X139992499Y-108744595D01*
X140225045Y-108744595D01*
X140225045Y-108527052D01*
X140225045Y-108309509D01*
X139767455Y-108309509D01*
X139309865Y-108309509D01*
X139309865Y-108084465D01*
X139309865Y-107859420D01*
X140240048Y-107859420D01*
X140240048Y-108076963D01*
X140240048Y-108294506D01*
X140682635Y-108294506D01*
X141125222Y-108294506D01*
X141125222Y-108069462D01*
X141125222Y-107844417D01*
X141350267Y-107844417D01*
X141575311Y-107844417D01*
X141575311Y-107626875D01*
X141575311Y-107409332D01*
X141132724Y-107409332D01*
X140690137Y-107409332D01*
X140690137Y-107634376D01*
X140690137Y-107859420D01*
X140465092Y-107859420D01*
X140240048Y-107859420D01*
X139309865Y-107859420D01*
X139084821Y-107859420D01*
X138859776Y-107859420D01*
X138859776Y-107634376D01*
X138859776Y-107409332D01*
X138634732Y-107409332D01*
X138409688Y-107409332D01*
X138409688Y-107169284D01*
X138409688Y-106929237D01*
X138642234Y-106929237D01*
X138874779Y-106929237D01*
X138874779Y-107161783D01*
X138874779Y-107394329D01*
X139324868Y-107394329D01*
X139774957Y-107394329D01*
X139774957Y-107619373D01*
X139774957Y-107844417D01*
X140000001Y-107844417D01*
X140225045Y-107844417D01*
X140225045Y-107619373D01*
X140225045Y-107394329D01*
X140450089Y-107394329D01*
X140675134Y-107394329D01*
X140675134Y-106719196D01*
X140675134Y-106044063D01*
X140457591Y-106044063D01*
X140240048Y-106044063D01*
X140240048Y-106269107D01*
X140240048Y-106494152D01*
X140000001Y-106494152D01*
X139759954Y-106494152D01*
X139759954Y-106036561D01*
X139759954Y-105578971D01*
X139992499Y-105578971D01*
X140225045Y-105578971D01*
X140225045Y-105128883D01*
X140225045Y-104678794D01*
X140000001Y-104678794D01*
X139774957Y-104678794D01*
X139774957Y-104903839D01*
X139774957Y-105128883D01*
X139549912Y-105128883D01*
X139324868Y-105128883D01*
X139324868Y-105361429D01*
X139324868Y-105593974D01*
X139099824Y-105593974D01*
X138874779Y-105593974D01*
X138874779Y-105811517D01*
X138874779Y-106029060D01*
X139099824Y-106029060D01*
X139324868Y-106029060D01*
X139324868Y-106261606D01*
X139324868Y-106494152D01*
X139092322Y-106494152D01*
X138859776Y-106494152D01*
X138859776Y-106269107D01*
X138859776Y-106044063D01*
X138642234Y-106044063D01*
X138424691Y-106044063D01*
X138424691Y-106269107D01*
X138424691Y-106494152D01*
X138184643Y-106494152D01*
X137944596Y-106494152D01*
X137944596Y-106261606D01*
X137944596Y-106029060D01*
X138177142Y-106029060D01*
X138409688Y-106029060D01*
X138409688Y-105811517D01*
X138409688Y-105593974D01*
X138177142Y-105593974D01*
X137944596Y-105593974D01*
X137944596Y-105353927D01*
X137944596Y-105113880D01*
X138184643Y-105113880D01*
X138424691Y-105113880D01*
X138424691Y-105346426D01*
X138424691Y-105578971D01*
X138642234Y-105578971D01*
X138859776Y-105578971D01*
X138859776Y-105128883D01*
X138859776Y-104678794D01*
X138402186Y-104678794D01*
X137944596Y-104678794D01*
X137944596Y-104228706D01*
X139324868Y-104228706D01*
X139324868Y-104446248D01*
X139324868Y-104663791D01*
X139542411Y-104663791D01*
X139759954Y-104663791D01*
X139759954Y-104446248D01*
X139759954Y-104228706D01*
X139542411Y-104228706D01*
X139324868Y-104228706D01*
X137944596Y-104228706D01*
X137944596Y-104221204D01*
X137944596Y-103763614D01*
X138184643Y-103763614D01*
X138424691Y-103763614D01*
X138424691Y-103988658D01*
X138424691Y-104213703D01*
X138642234Y-104213703D01*
X138859776Y-104213703D01*
X138859776Y-103778617D01*
X139774957Y-103778617D01*
X139774957Y-103996160D01*
X139774957Y-104213703D01*
X140007502Y-104213703D01*
X140240048Y-104213703D01*
X140240048Y-104438747D01*
X140240048Y-104446248D01*
X140240048Y-104663791D01*
X140465092Y-104663791D01*
X140690137Y-104663791D01*
X140690137Y-104888836D01*
X140690137Y-105113880D01*
X140907680Y-105113880D01*
X141125222Y-105113880D01*
X141125222Y-104888836D01*
X141125222Y-104663791D01*
X141350267Y-104663791D01*
X141575311Y-104663791D01*
X141575311Y-104446248D01*
X141575311Y-104228706D01*
X141350267Y-104228706D01*
X141125222Y-104228706D01*
X141125222Y-104003661D01*
X141125222Y-103778617D01*
X140450089Y-103778617D01*
X139774957Y-103778617D01*
X138859776Y-103778617D01*
X138859776Y-103756113D01*
X138859776Y-103298523D01*
X140457591Y-103298523D01*
X142055405Y-103298523D01*
X142055405Y-103531068D01*
X142055405Y-103763614D01*
X142272948Y-103763614D01*
X142490491Y-103763614D01*
X142490491Y-103531068D01*
X142490491Y-103298523D01*
X142723037Y-103298523D01*
X142955583Y-103298523D01*
X142955583Y-103756113D01*
X142955583Y-104213703D01*
X143180627Y-104213703D01*
X143405671Y-104213703D01*
X143405671Y-104446248D01*
X143405671Y-104678794D01*
X143173125Y-104678794D01*
X142940580Y-104678794D01*
X142940580Y-104453750D01*
X142940580Y-104228706D01*
X142497993Y-104228706D01*
X142055405Y-104228706D01*
X142055405Y-104453750D01*
X142055405Y-104678794D01*
X141822860Y-104678794D01*
X141590314Y-104678794D01*
X141590314Y-105136384D01*
X141590314Y-105593974D01*
X141140225Y-105593974D01*
X140690137Y-105593974D01*
X140690137Y-105811517D01*
X140690137Y-106029060D01*
X140915181Y-106029060D01*
X141140225Y-106029060D01*
X141140225Y-106479149D01*
X141140225Y-106929237D01*
X141357768Y-106929237D01*
X141575311Y-106929237D01*
X141575311Y-106479149D01*
X141575311Y-106029060D01*
X141815358Y-106029060D01*
X142055405Y-106029060D01*
X142055405Y-106711694D01*
X142055405Y-107394329D01*
X142730538Y-107394329D01*
X143405671Y-107394329D01*
X143405671Y-107626875D01*
X143405671Y-107859420D01*
G37*
G36*
X135244065Y-118061429D02*
G01*
X135244065Y-118301476D01*
X134778973Y-118301476D01*
X134313882Y-118301476D01*
X134313882Y-118061429D01*
X134313882Y-117821381D01*
X134778973Y-117821381D01*
X135244065Y-117821381D01*
X135244065Y-118061429D01*
G37*
G36*
X133878796Y-118061429D02*
G01*
X133878796Y-118301476D01*
X133646250Y-118301476D01*
X133413704Y-118301476D01*
X133413704Y-118061429D01*
X133413704Y-117821381D01*
X133646250Y-117821381D01*
X133878796Y-117821381D01*
X133878796Y-118061429D01*
G37*
G36*
X147486475Y-118286473D02*
G01*
X145896161Y-118286473D01*
X144305848Y-118286473D01*
X144305848Y-116696160D01*
X144305848Y-115570938D01*
X144770940Y-115570938D01*
X144770940Y-116696160D01*
X144770940Y-117821381D01*
X145896161Y-117821381D01*
X147021383Y-117821381D01*
X147021383Y-116696160D01*
X147021383Y-115570938D01*
X145896161Y-115570938D01*
X144770940Y-115570938D01*
X144305848Y-115570938D01*
X144305848Y-115105847D01*
X145896161Y-115105847D01*
X147486475Y-115105847D01*
X147486475Y-116696160D01*
X147486475Y-118286473D01*
G37*
G36*
X132978619Y-117603839D02*
G01*
X132978619Y-117836384D01*
X132738571Y-117836384D01*
X132498524Y-117836384D01*
X132498524Y-117603839D01*
X132498524Y-117371293D01*
X132738571Y-117371293D01*
X132978619Y-117371293D01*
X132978619Y-117603839D01*
G37*
G36*
X147036386Y-107851919D02*
G01*
X147036386Y-108309509D01*
X146361253Y-108309509D01*
X145686120Y-108309509D01*
X145686120Y-108527052D01*
X145686120Y-108744595D01*
X146361253Y-108744595D01*
X147036386Y-108744595D01*
X147036386Y-108984642D01*
X147036386Y-109224689D01*
X146353752Y-109224689D01*
X145671117Y-109224689D01*
X145671117Y-108992143D01*
X145671117Y-108759598D01*
X145438571Y-108759598D01*
X145206026Y-108759598D01*
X145206026Y-108527052D01*
X145206026Y-108294506D01*
X145438571Y-108294506D01*
X145671117Y-108294506D01*
X145671117Y-107611872D01*
X145671117Y-107409332D01*
X146136209Y-107409332D01*
X146136209Y-107626875D01*
X146136209Y-107844417D01*
X146353752Y-107844417D01*
X146571294Y-107844417D01*
X146571294Y-107626875D01*
X146571294Y-107409332D01*
X146353752Y-107409332D01*
X146136209Y-107409332D01*
X145671117Y-107409332D01*
X145671117Y-106929237D01*
X146128707Y-106929237D01*
X146586297Y-106929237D01*
X146586297Y-107161783D01*
X146586297Y-107394329D01*
X146811342Y-107394329D01*
X147036386Y-107394329D01*
X147036386Y-107626875D01*
X147036386Y-107851919D01*
G37*
G36*
X137059422Y-103531068D02*
G01*
X137059422Y-103763614D01*
X137284466Y-103763614D01*
X137509511Y-103763614D01*
X137509511Y-103996160D01*
X137509511Y-104228706D01*
X137284466Y-104228706D01*
X137059422Y-104228706D01*
X137059422Y-104446248D01*
X137059422Y-104663791D01*
X137284466Y-104663791D01*
X137509511Y-104663791D01*
X137509511Y-104896337D01*
X137509511Y-105128883D01*
X137284466Y-105128883D01*
X137059422Y-105128883D01*
X137059422Y-105361429D01*
X137059422Y-105593974D01*
X136834378Y-105593974D01*
X136609333Y-105593974D01*
X136609333Y-106036561D01*
X136609333Y-106479149D01*
X136826876Y-106479149D01*
X137044419Y-106479149D01*
X137044419Y-106254104D01*
X137044419Y-106029060D01*
X137276965Y-106029060D01*
X137509511Y-106029060D01*
X137509511Y-106479149D01*
X137509511Y-106929237D01*
X137734555Y-106929237D01*
X137959599Y-106929237D01*
X137959599Y-107169284D01*
X137959599Y-107409332D01*
X137727053Y-107409332D01*
X137494508Y-107409332D01*
X137494508Y-107176786D01*
X137494508Y-106944240D01*
X137044419Y-106944240D01*
X136594330Y-106944240D01*
X136594330Y-106719196D01*
X136594330Y-106494152D01*
X136361785Y-106494152D01*
X136129239Y-106494152D01*
X136129239Y-106036561D01*
X136129239Y-105578971D01*
X136361785Y-105578971D01*
X136594330Y-105578971D01*
X136594330Y-104678794D01*
X136594330Y-103778617D01*
X136361785Y-103778617D01*
X136129239Y-103778617D01*
X136129239Y-103538570D01*
X136129239Y-103298523D01*
X136594330Y-103298523D01*
X137059422Y-103298523D01*
X137059422Y-103531068D01*
G37*
G36*
X134793976Y-107169284D02*
G01*
X134793976Y-107409332D01*
X134553929Y-107409332D01*
X134313882Y-107409332D01*
X134313882Y-107169284D01*
X134313882Y-106929237D01*
X134553929Y-106929237D01*
X134793976Y-106929237D01*
X134793976Y-107169284D01*
G37*
G36*
X142955583Y-106254104D02*
G01*
X142955583Y-106479149D01*
X143173125Y-106479149D01*
X143390668Y-106479149D01*
X143390668Y-106254104D01*
X143390668Y-106029060D01*
X143630716Y-106029060D01*
X143870763Y-106029060D01*
X143870763Y-106261606D01*
X143870763Y-106494152D01*
X143638217Y-106494152D01*
X143405671Y-106494152D01*
X143405671Y-106719196D01*
X143405671Y-106944240D01*
X142948081Y-106944240D01*
X142490491Y-106944240D01*
X142490491Y-106486650D01*
X142490491Y-106029060D01*
X142723037Y-106029060D01*
X142955583Y-106029060D01*
X142955583Y-106254104D01*
G37*
G36*
X147486475Y-106494152D02*
G01*
X145896161Y-106494152D01*
X144305848Y-106494152D01*
X144305848Y-104903839D01*
X144305848Y-103778617D01*
X144770940Y-103778617D01*
X144770940Y-104903839D01*
X144770940Y-106029060D01*
X145896161Y-106029060D01*
X147021383Y-106029060D01*
X147021383Y-104903839D01*
X147021383Y-103778617D01*
X145896161Y-103778617D01*
X144770940Y-103778617D01*
X144305848Y-103778617D01*
X144305848Y-103313525D01*
X145896161Y-103313525D01*
X147486475Y-103313525D01*
X147486475Y-104903839D01*
X147486475Y-106494152D01*
G37*
G36*
X135694153Y-106494152D02*
G01*
X134103840Y-106494152D01*
X132513527Y-106494152D01*
X132513527Y-104903839D01*
X132513527Y-103778617D01*
X132978619Y-103778617D01*
X132978619Y-104903839D01*
X132978619Y-106029060D01*
X134103840Y-106029060D01*
X135229062Y-106029060D01*
X135229062Y-104903839D01*
X135229062Y-103778617D01*
X134103840Y-103778617D01*
X132978619Y-103778617D01*
X132513527Y-103778617D01*
X132513527Y-103313525D01*
X134103840Y-103313525D01*
X135694153Y-103313525D01*
X135694153Y-104903839D01*
X135694153Y-106494152D01*
G37*
G36*
X142955583Y-105353927D02*
G01*
X142955583Y-105593974D01*
X142723037Y-105593974D01*
X142490491Y-105593974D01*
X142490491Y-105353927D01*
X142490491Y-105113880D01*
X142723037Y-105113880D01*
X142955583Y-105113880D01*
X142955583Y-105353927D01*
G37*
G36*
X135694153Y-115338393D02*
G01*
X135694153Y-115570938D01*
X135461607Y-115570938D01*
X135229062Y-115570938D01*
X135229062Y-115338393D01*
X135229062Y-115105847D01*
X135461607Y-115105847D01*
X135694153Y-115105847D01*
X135694153Y-115338393D01*
G37*
G36*
X146586297Y-116703661D02*
G01*
X146586297Y-117386296D01*
X145903663Y-117386296D01*
X145221029Y-117386296D01*
X145221029Y-116703661D01*
X145221029Y-116021027D01*
X145903663Y-116021027D01*
X146586297Y-116021027D01*
X146586297Y-116703661D01*
G37*
G36*
X146586297Y-104896337D02*
G01*
X146586297Y-105578971D01*
X145903663Y-105578971D01*
X145221029Y-105578971D01*
X145221029Y-104896337D01*
X145221029Y-104213703D01*
X145903663Y-104213703D01*
X146586297Y-104213703D01*
X146586297Y-104896337D01*
G37*
G36*
X134778973Y-104896337D02*
G01*
X134778973Y-105578971D01*
X134096339Y-105578971D01*
X133413704Y-105578971D01*
X133413704Y-104896337D01*
X133413704Y-104213703D01*
X134096339Y-104213703D01*
X134778973Y-104213703D01*
X134778973Y-104896337D01*
G37*
D11*
%TO.C,Q17*%
X141620000Y-63080000D02*
X141620000Y-78970000D01*
X141620000Y-63080000D02*
X131380000Y-63080000D01*
X141620000Y-78970000D02*
X131380000Y-78970000D01*
X139040000Y-78970000D02*
X139040000Y-81510000D01*
X136500000Y-78970000D02*
X136500000Y-81510000D01*
X133960000Y-78970000D02*
X133960000Y-81510000D01*
X131380000Y-63080000D02*
X131380000Y-78970000D01*
%TD*%
M02*
